<svg width="952" height="1330" viewBox="0 0 952 1330" fill="none" xmlns="http://www.w3.org/2000/svg">
<g clip-path="url(#clip0_3_10)">
<g opacity="0.4">
<path d="M0 1140H950H0" fill="black"/>
<path d="M0 1140H950H0" stroke="#1E293B" stroke-width="0.95"/>
<path d="M0 950H950H0" fill="black"/>
<path d="M0 950H950H0" stroke="#1E293B" stroke-width="0.95"/>
<path d="M0 760H950H0" fill="black"/>
<path d="M0 760H950H0" stroke="#1E293B" stroke-width="0.95"/>
<path d="M0 570H950H0" fill="black"/>
<path d="M0 570H950H0" stroke="#1E293B" stroke-width="0.95"/>
<path d="M0 380H950H0" fill="black"/>
<path d="M0 380H950H0" stroke="#1E293B" stroke-width="0.95"/>
<path d="M0 190H950H0" fill="black"/>
<path d="M0 190H950H0" stroke="#1E293B" stroke-width="0.95"/>
<path d="M190.4 0V1330V0" fill="black"/>
<path d="M190.4 0V1330V0" stroke="#1E293B" stroke-width="0.95"/>
<path d="M380.8 0V1330V0" fill="black"/>
<path d="M380.8 0V1330V0" stroke="#1E293B" stroke-width="0.95"/>
<path d="M571.2 0V1330V0" fill="black"/>
<path d="M571.2 0V1330V0" stroke="#1E293B" stroke-width="0.95"/>
<path d="M761.6 0V1330V0" fill="black"/>
<path d="M761.6 0V1330V0" stroke="#1E293B" stroke-width="0.95"/>
</g>
<g opacity="0.25">
<path d="M0 47.5C285 95 95 475 456 646" stroke="url(#paint0_linear_3_10)" stroke-width="1.9" stroke-linecap="round"/>
<path d="M951.04 47.5C666.04 95 856.04 475 495.04 646" stroke="url(#paint1_linear_3_10)" stroke-width="1.9" stroke-linecap="round"/>
<path d="M-47.6 190C379.9 237.5 189.9 570 465.4 655.5" stroke="url(#paint2_linear_3_10)" stroke-width="1.9" stroke-linecap="round"/>
<path d="M998.52 190C571.02 237.5 761.02 570 485.52 655.5" stroke="url(#paint3_linear_3_10)" stroke-width="1.9" stroke-linecap="round"/>
<path d="M95.2 0C380.2 285 285.2 570 475.2 665" stroke="url(#paint4_linear_3_10)" stroke-width="1.9" stroke-linecap="round"/>
<path d="M856 0C571 285 666 570 476 665" stroke="url(#paint5_linear_3_10)" stroke-width="1.9" stroke-linecap="round"/>
<path d="M-95.2 95C284.8 285 -0.199997 570 455.8 655.5" stroke="url(#paint6_linear_3_10)" stroke-width="1.9" stroke-linecap="round"/>
<path d="M1046.04 95C666.04 285 951.04 570 495.04 655.5" stroke="url(#paint7_linear_3_10)" stroke-width="1.9" stroke-linecap="round"/>
<path d="M0 0C475 95 -95 475 427.5 665" stroke="url(#paint8_linear_3_10)" stroke-width="1.9" stroke-linecap="round"/>
<path d="M951.1 0C476.1 95 1046.1 475 523.6 665" stroke="url(#paint9_linear_3_10)" stroke-width="1.9" stroke-linecap="round"/>
<path d="M190.4 -47.5C380.4 190 95.4 570 465.9 665" stroke="url(#paint10_linear_3_10)" stroke-width="1.9" stroke-linecap="round"/>
<path d="M761.02 -47.5C571.02 190 856.02 570 485.52 665" stroke="url(#paint11_linear_3_10)" stroke-width="1.9" stroke-linecap="round"/>
</g>
<g opacity="0.5">
<path d="M142.8 95C332.8 47.5 237.8 380 470.55 660.25" stroke="url(#paint12_linear_3_10)" stroke-width="0.95" stroke-linecap="round"/>
<path d="M808.51 95C618.51 47.5 713.51 380 480.76 660.25" stroke="url(#paint13_linear_3_10)" stroke-width="0.95" stroke-linecap="round"/>
<path d="M47.6 285C190.1 380 380.1 285 456.1 646" stroke="url(#paint14_linear_3_10)" stroke-width="0.95" stroke-linecap="round"/>
<path d="M903.54 285C761.04 380 571.04 285 495.04 646" stroke="url(#paint15_linear_3_10)" stroke-width="0.95" stroke-linecap="round"/>
<path d="M237.959 0C142.959 190 427.959 427.5 465.959 655.5" stroke="url(#paint16_linear_3_10)" stroke-width="0.95" stroke-linecap="round"/>
<path d="M713.52 0C808.52 190 523.52 427.5 485.52 655.5" stroke="url(#paint17_linear_3_10)" stroke-width="0.95" stroke-linecap="round"/>
<path d="M333.2 47.5C523.2 142.5 285.7 475 475.7 665" stroke="url(#paint18_linear_3_10)" stroke-width="0.95" stroke-linecap="round"/>
<path d="M618.5 47.5C428.5 142.5 666 475 476 665" stroke="url(#paint19_linear_3_10)" stroke-width="0.95" stroke-linecap="round"/>
<path d="M190.4 142.5C380.4 285 142.9 475 285.4 570C427.9 665 456.4 617.5 473.5 663.1" stroke="url(#paint20_linear_3_10)" stroke-width="0.95" stroke-linecap="round"/>
<path d="M761.004 142.5C571.004 285 808.504 475 666.004 570C523.504 665 495.004 617.5 477.904 663.1" stroke="url(#paint21_linear_3_10)" stroke-width="0.95" stroke-linecap="round"/>
<path d="M285.486 237.5C95.4863 380 475.486 427.5 380.486 570C285.486 712.5 465.986 636.5 475.486 665" stroke="url(#paint22_linear_3_10)" stroke-width="0.95" stroke-linecap="round"/>
<path d="M666 237.5C856 380 476 427.5 571 570C666 712.5 485.5 636.5 476 665" stroke="url(#paint23_linear_3_10)" stroke-width="0.95" stroke-linecap="round"/>
<path d="M47.5636 47.5C110.897 174.167 110.897 300.833 47.5636 427.5C-15.7697 554.167 95.0636 617.5 380.064 617.5C665.064 617.5 696.73 633.333 475.064 665" stroke="url(#paint24_linear_3_10)" stroke-width="0.95" stroke-linecap="round"/>
<path d="M903.194 47.5C839.86 174.167 839.86 300.833 903.194 427.5C966.527 554.167 855.694 617.5 570.694 617.5C285.694 617.5 254.027 633.333 475.694 665" stroke="url(#paint25_linear_3_10)" stroke-width="0.95" stroke-linecap="round"/>
<path d="M142.667 0C269.333 95 269.333 205.833 142.667 332.5C16 459.167 79.3333 522.5 332.667 522.5C586 522.5 633.5 570 475.167 665" stroke="url(#paint26_linear_3_10)" stroke-width="0.95" stroke-linecap="round"/>
<path d="M808.308 0C681.641 95 681.641 205.833 808.308 332.5C934.974 459.167 871.641 522.5 618.308 522.5C364.974 522.5 317.474 570 475.808 665" stroke="url(#paint27_linear_3_10)" stroke-width="0.95" stroke-linecap="round"/>
<path d="M-47.6 332.5C142.4 269.167 205.733 316.667 142.4 475C79.0667 633.333 174.067 665 427.4 570C680.733 475 696.567 506.667 474.9 665" stroke="url(#paint28_linear_3_10)" stroke-width="0.95" stroke-linecap="round"/>
<path d="M998.173 332.5C808.173 269.167 744.84 316.667 808.173 475C871.507 633.333 776.507 665 523.173 570C269.84 475 254.007 506.667 475.673 665" stroke="url(#paint29_linear_3_10)" stroke-width="0.95" stroke-linecap="round"/>
<path d="M237.744 -47.5C111.077 79.1667 111.077 190 237.744 285C364.41 380 348.577 443.333 190.244 475C31.9104 506.667 126.91 570 475.244 665" stroke="url(#paint30_linear_3_10)" stroke-width="0.95" stroke-linecap="round"/>
<path d="M713.5 -47.5C840.167 79.1667 840.167 190 713.5 285C586.833 380 602.667 443.333 761 475C919.333 506.667 824.333 570 476 665" stroke="url(#paint31_linear_3_10)" stroke-width="0.95" stroke-linecap="round"/>
<path d="M47.6 142.5C205.933 79.1667 253.433 110.833 190.1 237.5C126.767 364.167 190.1 427.5 380.1 427.5C570.1 427.5 601.767 506.667 475.1 665" stroke="url(#paint32_linear_3_10)" stroke-width="0.95" stroke-linecap="round"/>
<path d="M903.34 142.5C745.007 79.1667 697.507 110.833 760.84 237.5C824.173 364.167 760.84 427.5 570.84 427.5C380.84 427.5 349.173 506.667 475.84 665" stroke="url(#paint33_linear_3_10)" stroke-width="0.95" stroke-linecap="round"/>
<path d="M285.422 -19C158.756 120.333 174.589 253.333 332.922 380C491.256 506.667 522.922 538.333 427.922 475C332.922 411.667 348.756 475 475.422 665" stroke="url(#paint34_linear_3_10)" stroke-width="0.95" stroke-linecap="round"/>
<path d="M665.988 -19C792.654 120.333 776.821 253.333 618.488 380C460.154 506.667 428.488 538.333 523.488 475C618.488 411.667 602.654 475 475.988 665" stroke="url(#paint35_linear_3_10)" stroke-width="0.95" stroke-linecap="round"/>
<path d="M95.2 237.5C285.2 174.167 332.7 237.5 237.7 427.5C142.7 617.5 215.533 665 456.2 570C696.867 475 703.2 506.667 475.2 665" stroke="url(#paint36_linear_3_10)" stroke-width="0.95" stroke-linecap="round"/>
<path d="M855.65 237.5C665.65 174.167 618.15 237.5 713.15 427.5C808.15 617.5 735.316 665 494.65 570C253.983 475 247.65 506.667 475.65 665" stroke="url(#paint37_linear_3_10)" stroke-width="0.95" stroke-linecap="round"/>
<path d="M190.286 95C0.286327 285 380.286 380 285.286 522.5C190.286 665 456.286 589 475.286 665" stroke="url(#paint38_linear_3_10)" stroke-width="0.95" stroke-linecap="round"/>
<path d="M761 95C951 285 571 380 666 522.5C761 665 495 589 476 665" stroke="url(#paint39_linear_3_10)" stroke-width="0.95" stroke-linecap="round"/>
<path d="M332.889 47.5C142.889 142.5 427.889 332.5 237.889 475C47.8888 617.5 427.889 617.5 475.389 665" stroke="url(#paint40_linear_3_10)" stroke-width="0.95" stroke-linecap="round"/>
<path d="M618.5 47.5C808.5 142.5 523.5 332.5 713.5 475C903.5 617.5 523.5 617.5 476 665" stroke="url(#paint41_linear_3_10)" stroke-width="0.95" stroke-linecap="round"/>
<path d="M0 380C285 285 190 475 380 570C570 665 465.5 646 475 665" stroke="url(#paint42_linear_3_10)" stroke-width="0.95" stroke-linecap="round"/>
<path d="M950.957 380C665.957 285 760.957 475 570.957 570C380.957 665 485.457 646 475.957 665" stroke="url(#paint43_linear_3_10)" stroke-width="0.95" stroke-linecap="round"/>
</g>
<g opacity="0.75">
<path d="M380.633 0C317.3 63.3333 333.133 126.667 428.133 190C523.133 253.333 507.3 316.667 380.633 380C253.967 443.333 279.3 490.833 456.633 522.5C633.967 554.167 640.3 601.667 475.633 665" stroke="url(#paint44_linear_3_10)" stroke-width="0.475" stroke-linecap="round"/>
<path d="M570.75 0C634.083 63.3333 618.25 126.667 523.25 190C428.25 253.333 444.083 316.667 570.75 380C697.416 443.333 672.083 490.833 494.75 522.5C317.416 554.167 311.083 601.667 475.75 665" stroke="url(#paint45_linear_3_10)" stroke-width="0.475" stroke-linecap="round"/>
<path d="M428.234 0C491.568 95 482.068 190 399.734 285C317.401 380 336.401 443.333 456.734 475C577.068 506.667 581.818 554.167 470.984 617.5C360.151 680.833 361.734 696.667 475.734 665" stroke="url(#paint46_linear_3_10)" stroke-width="0.475" stroke-linecap="round"/>
<path d="M523.342 0C460.009 95 469.509 190 551.842 285C634.176 380 615.176 443.333 494.842 475C374.509 506.667 369.759 554.167 480.592 617.5C591.426 680.833 589.842 696.667 475.842 665" stroke="url(#paint47_linear_3_10)" stroke-width="0.475" stroke-linecap="round"/>
<path d="M333.071 95C238.071 158.333 253.905 237.5 380.571 332.5C507.238 427.5 523.071 475 428.071 475C333.071 475 345.738 506.667 466.071 570C586.405 633.333 589.571 665 475.571 665" stroke="url(#paint48_linear_3_10)" stroke-width="0.475" stroke-linecap="round"/>
<path d="M618.325 95C713.325 158.333 697.491 237.5 570.825 332.5C444.158 427.5 428.325 475 523.325 475C618.325 475 605.658 506.667 485.325 570C364.991 633.333 361.825 665 475.825 665" stroke="url(#paint49_linear_3_10)" stroke-width="0.475" stroke-linecap="round"/>
<path d="M238 190C380.5 142.5 285.5 332.5 399.5 427.5C513.5 522.5 437.5 570 473.6 655.5" stroke="url(#paint50_linear_3_10)" stroke-width="0.475" stroke-linecap="round"/>
<path d="M713.504 190C571.004 142.5 666.004 332.5 552.004 427.5C438.004 522.5 514.004 570 477.904 655.5" stroke="url(#paint51_linear_3_10)" stroke-width="0.475" stroke-linecap="round"/>
<path d="M456.9 95L437.9 114L466.4 142.5L428.4 190L456.9 237.5L437.9 285L466.4 332.5L447.4 380L471.15 427.5L456.9 475L474 522.5L466.4 570L475.9 617.5V665" stroke="url(#paint52_linear_3_10)" stroke-width="0.475" stroke-linecap="round"/>
<path d="M495 95L514 114L485.5 142.5L523.5 190L495 237.5L514 285L485.5 332.5L504.5 380L480.75 427.5L495 475L477.9 522.5L485.5 570L476 617.5V665" stroke="url(#paint53_linear_3_10)" stroke-width="0.475" stroke-linecap="round"/>
<path d="M399.833 190C437.833 221.667 444.166 253.333 418.833 285C393.5 316.667 406.166 348.333 456.833 380C507.5 411.667 501.166 443.333 437.833 475C374.5 506.667 384 538.333 466.333 570C548.666 601.667 551.833 633.333 475.833 665" stroke="url(#paint54_linear_3_10)" stroke-width="0.475" stroke-linecap="round"/>
<path d="M551.885 190C513.885 221.667 507.551 253.333 532.885 285C558.218 316.667 545.551 348.333 494.885 380C444.218 411.667 450.551 443.333 513.885 475C577.218 506.667 567.718 538.333 485.385 570C403.051 601.667 399.885 633.333 475.885 665" stroke="url(#paint55_linear_3_10)" stroke-width="0.475" stroke-linecap="round"/>
<path d="M380.72 95L361.72 123.5L399.72 152L352.22 190L390.22 237.5L342.72 285L409.22 332.5L361.72 380L428.22 427.5L399.72 475L447.22 522.5L437.72 570L466.22 617.5L475.72 665" stroke="url(#paint56_linear_3_10)" stroke-width="0.475" stroke-linecap="round"/>
<path d="M571 95L590 123.5L552 152L599.5 190L561.5 237.5L609 285L542.5 332.5L590 380L523.5 427.5L552 475L504.5 522.5L514 570L485.5 617.5L476 665" stroke="url(#paint57_linear_3_10)" stroke-width="0.475" stroke-linecap="round"/>
<path d="M333.087 190C364.753 202.667 367.92 221.667 342.587 247C317.253 272.333 333.087 291.333 390.087 304C447.087 316.667 434.42 335.667 352.087 361C269.753 386.333 291.92 405.333 418.587 418C545.253 430.667 532.587 449.667 380.587 475C228.587 500.333 247.587 519.333 437.587 532C627.587 544.667 624.42 563.667 428.087 589C231.753 614.333 247.587 639.667 475.587 665" stroke="url(#paint58_linear_3_10)" stroke-width="0.475" stroke-linecap="round"/>
<path d="M618.285 190C586.618 202.667 583.452 221.667 608.785 247C634.118 272.333 618.285 291.333 561.285 304C504.285 316.667 516.952 335.667 599.285 361C681.618 386.333 659.452 405.333 532.785 418C406.118 430.667 418.785 449.667 570.785 475C722.785 500.333 703.785 519.333 513.785 532C323.785 544.667 326.952 563.667 523.285 589C719.618 614.333 703.785 639.667 475.785 665" stroke="url(#paint59_linear_3_10)" stroke-width="0.475" stroke-linecap="round"/>
<path d="M428.144 142.5C447.144 161.5 440.811 186.833 409.144 218.5C377.478 250.167 390.144 269.167 447.144 275.5C504.144 281.833 488.311 300.833 399.644 332.5C310.978 364.167 329.978 386.333 456.644 399C583.311 411.667 570.644 430.667 418.644 456C266.644 481.333 282.478 503.5 466.144 522.5C649.811 541.5 643.478 560.5 447.144 579.5C250.811 598.5 260.311 627 475.644 665" stroke="url(#paint60_linear_3_10)" stroke-width="0.475" stroke-linecap="round"/>
<path d="M523.24 142.5C504.24 161.5 510.573 186.833 542.24 218.5C573.906 250.167 561.24 269.167 504.24 275.5C447.24 281.833 463.073 300.833 551.74 332.5C640.406 364.167 621.406 386.333 494.74 399C368.073 411.667 380.74 430.667 532.74 456C684.74 481.333 668.906 503.5 485.24 522.5C301.573 541.5 307.906 560.5 504.24 579.5C700.573 598.5 691.073 627 475.74 665" stroke="url(#paint61_linear_3_10)" stroke-width="0.475" stroke-linecap="round"/>
<path d="M285.6 285C380.6 237.5 238.1 380 361.6 427.5C304.6 475 428.1 522.5 399.6 570C456.6 598.5 437.6 646 475.6 665" stroke="url(#paint62_linear_3_10)" stroke-width="0.475" stroke-linecap="round"/>
<path d="M666 285C571 237.5 713.5 380 590 427.5C647 475 523.5 522.5 552 570C495 598.5 514 646 476 665" stroke="url(#paint63_linear_3_10)" stroke-width="0.475" stroke-linecap="round"/>
<path d="M238 380C364.667 348.333 380.5 380 285.5 475C190.5 570 238 601.667 428 570C618 538.333 633.833 570 475.5 665" stroke="url(#paint64_linear_3_10)" stroke-width="0.475" stroke-linecap="round"/>
<path d="M713.273 380C586.606 348.333 570.773 380 665.773 475C760.773 570 713.273 601.667 523.273 570C333.273 538.333 317.439 570 475.773 665" stroke="url(#paint65_linear_3_10)" stroke-width="0.475" stroke-linecap="round"/>
</g>
<g opacity="0.35">
<path d="M95.2 190C380.2 47.5 570.2 380 855.2 190" stroke="url(#paint66_linear_3_10)" stroke-width="0.76" stroke-linecap="round"/>
<path d="M47.6 380C285.1 190 665.1 570 902.6 380" stroke="url(#paint67_linear_3_10)" stroke-width="0.76" stroke-linecap="round"/>
<path d="M190.4 95C475.4 380 285.4 570 760.4 95" stroke="url(#paint68_linear_3_10)" stroke-width="0.76" stroke-linecap="round"/>
<path d="M285.577 47.5C190.577 285 760.577 285 665.577 47.5" stroke="url(#paint69_linear_3_10)" stroke-width="0.76" stroke-linecap="round"/>
<path d="M142.567 285C364.233 475 585.9 475 807.567 285C1029.23 95 918.4 31.6667 475.067 95C31.7333 158.333 -79.1 221.667 142.567 285" stroke="url(#paint70_linear_3_10)" stroke-width="0.76" stroke-linecap="round"/>
<path d="M380.717 190C190.717 475 760.717 475 570.717 190" stroke="url(#paint71_linear_3_10)" stroke-width="0.76" stroke-linecap="round"/>
<path d="M238 475C380.5 285 570.5 285 713 475" stroke="url(#paint72_linear_3_10)" stroke-width="0.76" stroke-linecap="round"/>
<path d="M333.1 142.5C428.1 47.5 523.1 47.5 618.1 142.5C713.1 237.5 665.6 300.833 475.6 332.5C285.6 364.167 238.1 300.833 333.1 142.5" stroke="url(#paint73_linear_3_10)" stroke-width="0.76" stroke-linecap="round"/>
<path d="M428.331 380C285.831 570 665.831 570 523.331 380" stroke="url(#paint74_linear_3_10)" stroke-width="0.76" stroke-linecap="round"/>
<path d="M399.787 237.5C450.453 174.167 501.12 174.167 551.787 237.5C602.453 300.833 577.12 364.167 475.787 427.5C374.453 490.833 349.12 427.5 399.787 237.5" stroke="url(#paint75_linear_3_10)" stroke-width="0.76" stroke-linecap="round"/>
</g>
<g opacity="0.6">
<path d="M285.307 0C221.973 63.3333 237.807 110.833 332.807 142.5C427.807 174.167 396.14 221.667 237.807 285C79.4735 348.333 126.973 380 380.307 380C633.64 380 617.807 411.667 332.807 475C47.8068 538.333 88.9734 570 456.307 570C823.64 570 829.973 601.667 475.307 665" stroke="url(#paint76_linear_3_10)" stroke-width="0.475" stroke-linecap="round"/>
<path d="M665.45 0C728.783 63.3333 712.95 110.833 617.95 142.5C522.95 174.167 554.616 221.667 712.95 285C871.283 348.333 823.783 380 570.45 380C317.117 380 332.95 411.667 617.95 475C902.95 538.333 861.783 570 494.45 570C127.116 570 120.783 601.667 475.45 665" stroke="url(#paint77_linear_3_10)" stroke-width="0.475" stroke-linecap="round"/>
<path d="M380.535 47.5C443.869 110.833 428.035 174.167 333.035 237.5C238.035 300.833 269.702 332.5 428.035 332.5C586.369 332.5 570.535 364.167 380.535 427.5C190.535 490.833 215.869 522.5 456.535 522.5C697.202 522.5 703.535 570 475.535 665" stroke="url(#paint78_linear_3_10)" stroke-width="0.475" stroke-linecap="round"/>
<path d="M570.65 47.5C507.316 110.833 523.15 174.167 618.15 237.5C713.15 300.833 681.483 332.5 523.15 332.5C364.816 332.5 380.65 364.167 570.65 427.5C760.65 490.833 735.316 522.5 494.65 522.5C253.983 522.5 247.65 570 475.65 665" stroke="url(#paint79_linear_3_10)" stroke-width="0.475" stroke-linecap="round"/>
<path d="M95.0875 95C0.0874939 190 31.7542 269.167 190.087 332.5C348.421 395.833 332.587 443.333 142.587 475C-47.4125 506.667 31.7542 538.333 380.087 570C728.421 601.667 760.087 633.333 475.087 665" stroke="url(#paint80_linear_3_10)" stroke-width="0.475" stroke-linecap="round"/>
<path d="M855.595 95C950.595 190 918.928 269.167 760.595 332.5C602.262 395.833 618.095 443.333 808.095 475C998.095 506.667 918.928 538.333 570.595 570C222.262 601.667 190.595 633.333 475.595 665" stroke="url(#paint81_linear_3_10)" stroke-width="0.475" stroke-linecap="round"/>
<path d="M237.755 142.5C332.755 205.833 316.921 285 190.255 380C63.5879 475 111.088 522.5 332.755 522.5C554.421 522.5 586.088 554.167 427.755 617.5C269.421 680.833 285.255 696.667 475.255 665" stroke="url(#paint82_linear_3_10)" stroke-width="0.475" stroke-linecap="round"/>
<path d="M713.392 142.5C618.392 205.833 634.225 285 760.892 380C887.558 475 840.058 522.5 618.392 522.5C396.725 522.5 365.058 554.167 523.392 617.5C681.725 680.833 665.892 696.667 475.892 665" stroke="url(#paint83_linear_3_10)" stroke-width="0.475" stroke-linecap="round"/>
<path d="M142.8 237.5C237.8 300.833 269.467 380 237.8 475C206.133 570 253.633 601.667 380.3 570C506.967 538.333 532.3 563.667 456.3 646C380.3 728.333 386.633 734.667 475.3 665" stroke="url(#paint84_linear_3_10)" stroke-width="0.475" stroke-linecap="round"/>
<path d="M808.45 237.5C713.45 300.833 681.783 380 713.45 475C745.117 570 697.617 601.667 570.95 570C444.283 538.333 418.95 563.667 494.95 646C570.95 728.333 564.617 734.667 475.95 665" stroke="url(#paint85_linear_3_10)" stroke-width="0.475" stroke-linecap="round"/>
<path d="M47.6 332.5C142.6 395.833 174.267 475 142.6 570C110.933 665 205.933 680.833 427.6 617.5C649.267 554.167 661.933 566.833 465.6 655.5C269.267 744.167 272.433 747.333 475.1 665" stroke="url(#paint86_linear_3_10)" stroke-width="0.475" stroke-linecap="round"/>
<path d="M903.229 332.5C808.229 395.833 776.562 475 808.229 570C839.895 665 744.895 680.833 523.229 617.5C301.562 554.167 288.895 566.833 485.229 655.5C681.562 744.167 678.395 747.333 475.729 665" stroke="url(#paint87_linear_3_10)" stroke-width="0.475" stroke-linecap="round"/>
<path d="M285.413 190C190.413 253.333 206.247 316.667 332.913 380C459.58 443.333 443.747 490.833 285.413 522.5C127.08 554.167 180.913 585.833 446.913 617.5C712.913 649.167 722.413 665 475.413 665" stroke="url(#paint88_linear_3_10)" stroke-width="0.475" stroke-linecap="round"/>
<path d="M665.624 190C760.624 253.333 744.791 316.667 618.124 380C491.458 443.333 507.291 490.833 665.624 522.5C823.958 554.167 770.124 585.833 504.124 617.5C238.124 649.167 228.624 665 475.624 665" stroke="url(#paint89_linear_3_10)" stroke-width="0.475" stroke-linecap="round"/>
<path d="M428.149 95C364.815 158.333 374.315 221.667 456.649 285C538.982 348.333 519.982 380 399.649 380C279.315 380 301.482 411.667 466.149 475C630.815 538.333 621.315 570 437.649 570C253.982 570 266.649 601.667 475.649 665" stroke="url(#paint90_linear_3_10)" stroke-width="0.475" stroke-linecap="round"/>
<path d="M523.274 95C586.607 158.333 577.107 221.667 494.774 285C412.441 348.333 431.441 380 551.774 380C672.107 380 649.941 411.667 485.274 475C320.607 538.333 330.107 570 513.774 570C697.441 570 684.774 601.667 475.774 665" stroke="url(#paint91_linear_3_10)" stroke-width="0.475" stroke-linecap="round"/>
</g>
<g opacity="0.85">
<path d="M333.14 95L304.64 142.5L361.64 190L314.14 237.5L380.64 285L342.64 332.5L399.64 380L371.14 427.5L428.14 475L409.14 522.5L456.64 570L447.14 617.5L475.64 665" stroke="url(#paint92_linear_3_10)" stroke-width="0.285" stroke-linecap="round"/>
<path d="M618.5 95L647 142.5L590 190L637.5 237.5L571 285L609 332.5L552 380L580.5 427.5L523.5 475L542.5 522.5L495 570L504.5 617.5L476 665" stroke="url(#paint93_linear_3_10)" stroke-width="0.285" stroke-linecap="round"/>
<path d="M237.92 190L199.92 237.5L266.42 285L228.42 332.5L294.92 380L275.92 427.5L342.42 475L332.92 522.5L399.42 570L418.42 617.5L475.42 665" stroke="url(#paint94_linear_3_10)" stroke-width="0.285" stroke-linecap="round"/>
<path d="M713.5 190L751.5 237.5L685 285L723 332.5L656.5 380L675.5 427.5L609 475L618.5 522.5L552 570L533 617.5L476 665" stroke="url(#paint95_linear_3_10)" stroke-width="0.285" stroke-linecap="round"/>
<path d="M380.78 142.5L418.78 171L371.28 209L428.28 256.5L390.28 304L437.78 361L409.28 408.5L456.78 465.5L437.78 513L466.28 570L461.53 617.5L475.78 665" stroke="url(#paint96_linear_3_10)" stroke-width="0.285" stroke-linecap="round"/>
<path d="M571 142.5L533 171L580.5 209L523.5 256.5L561.5 304L514 361L542.5 408.5L495 465.5L514 513L485.5 570L490.25 617.5L476 665" stroke="url(#paint97_linear_3_10)" stroke-width="0.285" stroke-linecap="round"/>
</g>
<path d="M140.896 95C140.896 96.0486 141.747 96.9 142.796 96.9C143.845 96.9 144.696 96.0486 144.696 95C144.696 93.9514 143.845 93.1 142.796 93.1C141.747 93.1 140.896 93.9514 140.896 95V95" fill="#F43F5E"/>
<path d="M807.296 95C807.296 96.0486 808.147 96.9 809.196 96.9C810.245 96.9 811.096 96.0486 811.096 95C811.096 93.9514 810.245 93.1 809.196 93.1C808.147 93.1 807.296 93.9514 807.296 95V95" fill="#F43F5E"/>
<path d="M235.62 190C235.62 191.311 236.684 192.375 237.995 192.375C239.306 192.375 240.37 191.311 240.37 190C240.37 188.689 239.306 187.625 237.995 187.625C236.684 187.625 235.62 188.689 235.62 190V190" fill="#F43F5E"/>
<path d="M711.62 190C711.62 191.311 712.684 192.375 713.995 192.375C715.306 192.375 716.37 191.311 716.37 190C716.37 188.689 715.306 187.625 713.995 187.625C712.684 187.625 711.62 188.689 711.62 190V190" fill="#F43F5E"/>
<path d="M93.772 285C93.772 285.786 94.4105 286.425 95.197 286.425C95.9835 286.425 96.622 285.786 96.622 285C96.622 284.214 95.9835 283.575 95.197 283.575C94.4105 283.575 93.772 284.214 93.772 285V285" fill="#F43F5E"/>
<path d="M855.372 285C855.372 285.786 856.011 286.425 856.797 286.425C857.584 286.425 858.222 285.786 858.222 285C858.222 284.214 857.584 283.575 856.797 283.575C856.011 283.575 855.372 284.214 855.372 285V285" fill="#F43F5E"/>
<path d="M331.296 142.5C331.296 143.549 332.147 144.4 333.196 144.4C334.245 144.4 335.096 143.549 335.096 142.5C335.096 141.451 334.245 140.6 333.196 140.6C332.147 140.6 331.296 141.451 331.296 142.5V142.5" fill="#F43F5E"/>
<path d="M616.896 142.5C616.896 143.549 617.747 144.4 618.796 144.4C619.845 144.4 620.696 143.549 620.696 142.5C620.696 141.451 619.845 140.6 618.796 140.6C617.747 140.6 616.896 141.451 616.896 142.5V142.5" fill="#F43F5E"/>
<path d="M426.972 76C426.972 76.7865 427.611 77.425 428.397 77.425C429.183 77.425 429.822 76.7865 429.822 76C429.822 75.2135 429.183 74.575 428.397 74.575C427.611 74.575 426.972 75.2135 426.972 76V76" fill="#F43F5E"/>
<path d="M522.172 76C522.172 76.7865 522.81 77.425 523.597 77.425C524.383 77.425 525.022 76.7865 525.022 76C525.022 75.2135 524.383 74.575 523.597 74.575C522.81 74.575 522.172 75.2135 522.172 76V76" fill="#F43F5E"/>
<path d="M283.696 332.5C283.696 333.549 284.547 334.4 285.596 334.4C286.645 334.4 287.496 333.549 287.496 332.5C287.496 331.451 286.645 330.6 285.596 330.6C284.547 330.6 283.696 331.451 283.696 332.5V332.5" fill="#F43F5E"/>
<path d="M664.496 332.5C664.496 333.549 665.347 334.4 666.396 334.4C667.445 334.4 668.296 333.549 668.296 332.5C668.296 331.451 667.445 330.6 666.396 330.6C665.347 330.6 664.496 331.451 664.496 332.5V332.5" fill="#F43F5E"/>
<path d="M188.972 427.5C188.972 428.286 189.611 428.925 190.397 428.925C191.183 428.925 191.822 428.286 191.822 427.5C191.822 426.714 191.183 426.075 190.397 426.075C189.611 426.075 188.972 426.714 188.972 427.5V427.5" fill="#F43F5E"/>
<path d="M760.172 427.5C760.172 428.286 760.81 428.925 761.597 428.925C762.383 428.925 763.022 428.286 763.022 427.5C763.022 426.714 762.383 426.075 761.597 426.075C760.81 426.075 760.172 426.714 760.172 427.5V427.5" fill="#F43F5E"/>
<path d="M378.42 266C378.42 267.311 379.484 268.375 380.795 268.375C382.106 268.375 383.17 267.311 383.17 266C383.17 264.689 382.106 263.625 380.795 263.625C379.484 263.625 378.42 264.689 378.42 266V266" fill="#F43F5E"/>
<path d="M568.82 266C568.82 267.311 569.884 268.375 571.195 268.375C572.506 268.375 573.57 267.311 573.57 266C573.57 264.689 572.506 263.625 571.195 263.625C569.884 263.625 568.82 264.689 568.82 266V266" fill="#F43F5E"/>
<path d="M426.496 380C426.496 381.049 427.347 381.9 428.396 381.9C429.445 381.9 430.296 381.049 430.296 380C430.296 378.951 429.445 378.1 428.396 378.1C427.347 378.1 426.496 378.951 426.496 380V380" fill="#F43F5E"/>
<path d="M521.696 380C521.696 381.049 522.547 381.9 523.596 381.9C524.645 381.9 525.496 381.049 525.496 380C525.496 378.951 524.645 378.1 523.596 378.1C522.547 378.1 521.696 378.951 521.696 380V380" fill="#F43F5E"/>
<path d="M360.332 475C360.332 475.786 360.97 476.425 361.757 476.425C362.543 476.425 363.182 475.786 363.182 475C363.182 474.214 362.543 473.575 361.757 473.575C360.97 473.575 360.332 474.214 360.332 475V475" fill="#F43F5E"/>
<path d="M588.812 475C588.812 475.786 589.45 476.425 590.237 476.425C591.023 476.425 591.662 475.786 591.662 475C591.662 474.214 591.023 473.575 590.237 473.575C589.45 473.575 588.812 474.214 588.812 475V475" fill="#F43F5E"/>
<path d="M454.58 522.5C454.58 523.811 455.644 524.875 456.955 524.875C458.266 524.875 459.33 523.811 459.33 522.5C459.33 521.189 458.266 520.125 456.955 520.125C455.644 520.125 454.58 521.189 454.58 522.5V522.5" fill="#F43F5E"/>
<path d="M492.66 522.5C492.66 523.811 493.724 524.875 495.035 524.875C496.346 524.875 497.41 523.811 497.41 522.5C497.41 521.189 496.346 520.125 495.035 520.125C493.724 520.125 492.66 521.189 492.66 522.5V522.5" fill="#F43F5E"/>
<path d="M436.492 589C436.492 589.786 437.131 590.425 437.917 590.425C438.703 590.425 439.342 589.786 439.342 589C439.342 588.214 438.703 587.575 437.917 587.575C437.131 587.575 436.492 588.214 436.492 589V589" fill="#F43F5E"/>
<path d="M512.652 589C512.652 589.786 513.29 590.425 514.077 590.425C514.863 590.425 515.502 589.786 515.502 589C515.502 588.214 514.863 587.575 514.077 587.575C513.29 587.575 512.652 588.214 512.652 589V589" fill="#F43F5E"/>
<path d="M46.648 142.5C46.648 143.024 47.0737 143.45 47.598 143.45C48.1223 143.45 48.548 143.024 48.548 142.5C48.548 141.976 48.1223 141.55 47.598 141.55C47.0737 141.55 46.648 141.976 46.648 142.5V142.5" fill="#F43F5E"/>
<path d="M903.448 142.5C903.448 143.024 903.874 143.45 904.398 143.45C904.922 143.45 905.348 143.024 905.348 142.5C905.348 141.976 904.922 141.55 904.398 141.55C903.874 141.55 903.448 141.976 903.448 142.5V142.5" fill="#F43F5E"/>
<path d="M112.812 76C112.812 76.7865 113.451 77.425 114.237 77.425C115.023 77.425 115.662 76.7865 115.662 76C115.662 75.2135 115.023 74.575 114.237 74.575C113.451 74.575 112.812 75.2135 112.812 76V76" fill="#F43F5E"/>
<path d="M836.332 76C836.332 76.7865 836.971 77.425 837.757 77.425C838.544 77.425 839.182 76.7865 839.182 76C839.182 75.2135 838.544 74.575 837.757 74.575C836.971 74.575 836.332 75.2135 836.332 76V76" fill="#F43F5E"/>
<path d="M207.536 114C207.536 115.049 208.387 115.9 209.436 115.9C210.485 115.9 211.336 115.049 211.336 114C211.336 112.951 210.485 112.1 209.436 112.1C208.387 112.1 207.536 112.951 207.536 114V114" fill="#F43F5E"/>
<path d="M740.656 114C740.656 115.049 741.507 115.9 742.556 115.9C743.605 115.9 744.456 115.049 744.456 114C744.456 112.951 743.605 112.1 742.556 112.1C741.507 112.1 740.656 112.951 740.656 114V114" fill="#F43F5E"/>
<path d="M303.688 85.5C303.688 86.0243 304.114 86.45 304.638 86.45C305.162 86.45 305.588 86.0243 305.588 85.5C305.588 84.9757 305.162 84.55 304.638 84.55C304.114 84.55 303.688 84.9757 303.688 85.5V85.5" fill="#F43F5E"/>
<path d="M646.408 85.5C646.408 86.0243 646.834 86.45 647.358 86.45C647.882 86.45 648.308 86.0243 648.308 85.5C648.308 84.9757 647.882 84.55 647.358 84.55C646.834 84.55 646.408 84.9757 646.408 85.5V85.5" fill="#F43F5E"/>
<path d="M397.46 171C397.46 172.311 398.524 173.375 399.835 173.375C401.146 173.375 402.21 172.311 402.21 171C402.21 169.689 401.146 168.625 399.835 168.625C398.524 168.625 397.46 169.689 397.46 171V171" fill="#F43F5E"/>
<path d="M549.78 171C549.78 172.311 550.844 173.375 552.155 173.375C553.466 173.375 554.53 172.311 554.53 171C554.53 169.689 553.466 168.625 552.155 168.625C550.844 168.625 549.78 169.689 549.78 171V171" fill="#F43F5E"/>
<path d="M455.532 133C455.532 133.786 456.171 134.425 456.957 134.425C457.743 134.425 458.382 133.786 458.382 133C458.382 132.214 457.743 131.575 456.957 131.575C456.171 131.575 455.532 132.214 455.532 133V133" fill="#F43F5E"/>
<path d="M493.612 133C493.612 133.786 494.251 134.425 495.037 134.425C495.823 134.425 496.462 133.786 496.462 133C496.462 132.214 495.823 131.575 495.037 131.575C494.251 131.575 493.612 132.214 493.612 133V133" fill="#F43F5E"/>
<path d="M331.296 237.5C331.296 238.549 332.147 239.4 333.196 239.4C334.245 239.4 335.096 238.549 335.096 237.5C335.096 236.451 334.245 235.6 333.196 235.6C332.147 235.6 331.296 236.451 331.296 237.5V237.5" fill="#F43F5E"/>
<path d="M616.896 237.5C616.896 238.549 617.747 239.4 618.796 239.4C619.845 239.4 620.696 238.549 620.696 237.5C620.696 236.451 619.845 235.6 618.796 235.6C617.747 235.6 616.896 236.451 616.896 237.5V237.5" fill="#F43F5E"/>
<path d="M236.572 266C236.572 266.786 237.211 267.425 237.997 267.425C238.783 267.425 239.422 266.786 239.422 266C239.422 265.214 238.783 264.575 237.997 264.575C237.211 264.575 236.572 265.214 236.572 266V266" fill="#F43F5E"/>
<path d="M712.572 266C712.572 266.786 713.21 267.425 713.997 267.425C714.783 267.425 715.422 266.786 715.422 266C715.422 265.214 714.783 264.575 713.997 264.575C713.21 264.575 712.572 265.214 712.572 266V266" fill="#F43F5E"/>
<path d="M141.848 332.5C141.848 333.024 142.274 333.45 142.798 333.45C143.322 333.45 143.748 333.024 143.748 332.5C143.748 331.976 143.322 331.55 142.798 331.55C142.274 331.55 141.848 331.976 141.848 332.5V332.5" fill="#F43F5E"/>
<path d="M808.248 332.5C808.248 333.024 808.674 333.45 809.198 333.45C809.722 333.45 810.148 333.024 810.148 332.5C810.148 331.976 809.722 331.55 809.198 331.55C808.674 331.55 808.248 331.976 808.248 332.5V332.5" fill="#F43F5E"/>
<path d="M264.656 361C264.656 362.049 265.507 362.9 266.556 362.9C267.605 362.9 268.456 362.049 268.456 361C268.456 359.951 267.605 359.1 266.556 359.1C265.507 359.1 264.656 359.951 264.656 361V361" fill="#F43F5E"/>
<path d="M683.536 361C683.536 362.049 684.387 362.9 685.436 362.9C686.485 362.9 687.336 362.049 687.336 361C687.336 359.951 686.485 359.1 685.436 359.1C684.387 359.1 683.536 359.951 683.536 361V361" fill="#F43F5E"/>
<path d="M360.332 304C360.332 304.786 360.97 305.425 361.757 305.425C362.543 305.425 363.182 304.786 363.182 304C363.182 303.214 362.543 302.575 361.757 302.575C360.97 302.575 360.332 303.214 360.332 304V304" fill="#F43F5E"/>
<path d="M588.812 304C588.812 304.786 589.45 305.425 590.237 305.425C591.023 305.425 591.662 304.786 591.662 304C591.662 303.214 591.023 302.575 590.237 302.575C589.45 302.575 588.812 303.214 588.812 304V304" fill="#F43F5E"/>
<path d="M426.496 237.5C426.496 238.549 427.347 239.4 428.396 239.4C429.445 239.4 430.296 238.549 430.296 237.5C430.296 236.451 429.445 235.6 428.396 235.6C427.347 235.6 426.496 236.451 426.496 237.5V237.5" fill="#F43F5E"/>
<path d="M521.696 237.5C521.696 238.549 522.547 239.4 523.596 239.4C524.645 239.4 525.496 238.549 525.496 237.5C525.496 236.451 524.645 235.6 523.596 235.6C522.547 235.6 521.696 236.451 521.696 237.5V237.5" fill="#F43F5E"/>
<path d="M398.412 332.5C398.412 333.286 399.051 333.925 399.837 333.925C400.623 333.925 401.262 333.286 401.262 332.5C401.262 331.714 400.623 331.075 399.837 331.075C399.051 331.075 398.412 331.714 398.412 332.5V332.5" fill="#F43F5E"/>
<path d="M550.732 332.5C550.732 333.286 551.371 333.925 552.157 333.925C552.943 333.925 553.582 333.286 553.582 332.5C553.582 331.714 552.943 331.075 552.157 331.075C551.371 331.075 550.732 331.714 550.732 332.5V332.5" fill="#F43F5E"/>
<path d="M456.008 285C456.008 285.524 456.434 285.95 456.958 285.95C457.482 285.95 457.908 285.524 457.908 285C457.908 284.476 457.482 284.05 456.958 284.05C456.434 284.05 456.008 284.476 456.008 285V285" fill="#F43F5E"/>
<path d="M494.088 285C494.088 285.524 494.514 285.95 495.038 285.95C495.562 285.95 495.988 285.524 495.988 285C495.988 284.476 495.562 284.05 495.038 284.05C494.514 284.05 494.088 284.476 494.088 285V285" fill="#F43F5E"/>
<path d="M283.696 427.5C283.696 428.549 284.547 429.4 285.596 429.4C286.645 429.4 287.496 428.549 287.496 427.5C287.496 426.451 286.645 425.6 285.596 425.6C284.547 425.6 283.696 426.451 283.696 427.5V427.5" fill="#F43F5E"/>
<path d="M664.496 427.5C664.496 428.549 665.347 429.4 666.396 429.4C667.445 429.4 668.296 428.549 668.296 427.5C668.296 426.451 667.445 425.6 666.396 425.6C665.347 425.6 664.496 426.451 664.496 427.5V427.5" fill="#F43F5E"/>
<path d="M188.972 475C188.972 475.786 189.611 476.425 190.397 476.425C191.183 476.425 191.822 475.786 191.822 475C191.822 474.214 191.183 473.575 190.397 473.575C189.611 473.575 188.972 474.214 188.972 475V475" fill="#F43F5E"/>
<path d="M760.172 475C760.172 475.786 760.81 476.425 761.597 476.425C762.383 476.425 763.022 475.786 763.022 475C763.022 474.214 762.383 473.575 761.597 473.575C760.81 473.575 760.172 474.214 760.172 475V475" fill="#F43F5E"/>
<path d="M330.82 456C330.82 457.311 331.884 458.375 333.195 458.375C334.506 458.375 335.57 457.311 335.57 456C335.57 454.689 334.506 453.625 333.195 453.625C331.884 453.625 330.82 454.689 330.82 456V456" fill="#F43F5E"/>
<path d="M616.42 456C616.42 457.311 617.484 458.375 618.795 458.375C620.106 458.375 621.17 457.311 621.17 456C621.17 454.689 620.106 453.625 618.795 453.625C617.484 453.625 616.42 454.689 616.42 456V456" fill="#F43F5E"/>
<path d="M379.372 399C379.372 399.786 380.011 400.425 380.797 400.425C381.583 400.425 382.222 399.786 382.222 399C382.222 398.214 381.583 397.575 380.797 397.575C380.011 397.575 379.372 398.214 379.372 399V399" fill="#F43F5E"/>
<path d="M569.772 399C569.772 399.786 570.411 400.425 571.197 400.425C571.984 400.425 572.622 399.786 572.622 399C572.622 398.214 571.984 397.575 571.197 397.575C570.411 397.575 569.772 398.214 569.772 399V399" fill="#F43F5E"/>
<path d="M426.496 437C426.496 438.049 427.347 438.9 428.396 438.9C429.445 438.9 430.296 438.049 430.296 437C430.296 435.951 429.445 435.1 428.396 435.1C427.347 435.1 426.496 435.951 426.496 437V437" fill="#F43F5E"/>
<path d="M521.696 437C521.696 438.049 522.547 438.9 523.596 438.9C524.645 438.9 525.496 438.049 525.496 437C525.496 435.951 524.645 435.1 523.596 435.1C522.547 435.1 521.696 435.951 521.696 437V437" fill="#F43F5E"/>
<path d="M398.888 494C398.888 494.524 399.314 494.95 399.838 494.95C400.362 494.95 400.788 494.524 400.788 494C400.788 493.476 400.362 493.05 399.838 493.05C399.314 493.05 398.888 493.476 398.888 494V494" fill="#F43F5E"/>
<path d="M551.208 494C551.208 494.524 551.634 494.95 552.158 494.95C552.682 494.95 553.108 494.524 553.108 494C553.108 493.476 552.682 493.05 552.158 493.05C551.634 493.05 551.208 493.476 551.208 494V494" fill="#F43F5E"/>
<path d="M455.532 456C455.532 456.786 456.171 457.425 456.957 457.425C457.743 457.425 458.382 456.786 458.382 456C458.382 455.214 457.743 454.575 456.957 454.575C456.171 454.575 455.532 455.214 455.532 456V456" fill="#F43F5E"/>
<path d="M493.612 456C493.612 456.786 494.251 457.425 495.037 457.425C495.823 457.425 496.462 456.786 496.462 456C496.462 455.214 495.823 454.575 495.037 454.575C494.251 454.575 493.612 455.214 493.612 456V456" fill="#F43F5E"/>
<path d="M359.856 522.5C359.856 523.549 360.707 524.4 361.756 524.4C362.805 524.4 363.656 523.549 363.656 522.5C363.656 521.451 362.805 520.6 361.756 520.6C360.707 520.6 359.856 521.451 359.856 522.5V522.5" fill="#F43F5E"/>
<path d="M588.336 522.5C588.336 523.549 589.187 524.4 590.236 524.4C591.285 524.4 592.136 523.549 592.136 522.5C592.136 521.451 591.285 520.6 590.236 520.6C589.187 520.6 588.336 521.451 588.336 522.5V522.5" fill="#F43F5E"/>
<path d="M417.452 522.5C417.452 523.286 418.091 523.925 418.877 523.925C419.664 523.925 420.302 523.286 420.302 522.5C420.302 521.714 419.664 521.075 418.877 521.075C418.091 521.075 417.452 521.714 417.452 522.5V522.5" fill="#F43F5E"/>
<path d="M531.692 522.5C531.692 523.286 532.33 523.925 533.117 523.925C533.903 523.925 534.542 523.286 534.542 522.5C534.542 521.714 533.903 521.075 533.117 521.075C532.33 521.075 531.692 521.714 531.692 522.5V522.5" fill="#F43F5E"/>
<path d="M445.06 494C445.06 495.311 446.124 496.375 447.435 496.375C448.746 496.375 449.81 495.311 449.81 494C449.81 492.689 448.746 491.625 447.435 491.625C446.124 491.625 445.06 492.689 445.06 494V494" fill="#F43F5E"/>
<path d="M502.18 494C502.18 495.311 503.244 496.375 504.555 496.375C505.866 496.375 506.93 495.311 506.93 494C506.93 492.689 505.866 491.625 504.555 491.625C503.244 491.625 502.18 492.689 502.18 494V494" fill="#F43F5E"/>
<path d="M436.492 570C436.492 570.786 437.131 571.425 437.917 571.425C438.703 571.425 439.342 570.786 439.342 570C439.342 569.214 438.703 568.575 437.917 568.575C437.131 568.575 436.492 569.214 436.492 570V570" fill="#F43F5E"/>
<path d="M512.652 570C512.652 570.786 513.29 571.425 514.077 571.425C514.863 571.425 515.502 570.786 515.502 570C515.502 569.214 514.863 568.575 514.077 568.575C513.29 568.575 512.652 569.214 512.652 570V570" fill="#F43F5E"/>
<path d="M455.056 551C455.056 552.049 455.907 552.9 456.956 552.9C458.005 552.9 458.856 552.049 458.856 551C458.856 549.951 458.005 549.1 456.956 549.1C455.907 549.1 455.056 549.951 455.056 551V551" fill="#F43F5E"/>
<path d="M493.136 551C493.136 552.049 493.987 552.9 495.036 552.9C496.085 552.9 496.936 552.049 496.936 551C496.936 549.951 496.085 549.1 495.036 549.1C493.987 549.1 493.136 549.951 493.136 551V551" fill="#F43F5E"/>
<path d="M465.528 589C465.528 589.524 465.954 589.95 466.478 589.95C467.002 589.95 467.428 589.524 467.428 589C467.428 588.476 467.002 588.05 466.478 588.05C465.954 588.05 465.528 588.476 465.528 589V589" fill="#F43F5E"/>
<path d="M484.568 589C484.568 589.524 484.994 589.95 485.518 589.95C486.042 589.95 486.468 589.524 486.468 589C486.468 588.476 486.042 588.05 485.518 588.05C484.994 588.05 484.568 588.476 484.568 589V589" fill="#F43F5E"/>
<path d="M426.972 617.5C426.972 618.286 427.611 618.925 428.397 618.925C429.183 618.925 429.822 618.286 429.822 617.5C429.822 616.714 429.183 616.075 428.397 616.075C427.611 616.075 426.972 616.714 426.972 617.5V617.5" fill="#F43F5E"/>
<path d="M522.172 617.5C522.172 618.286 522.81 618.925 523.597 618.925C524.383 618.925 525.022 618.286 525.022 617.5C525.022 616.714 524.383 616.075 523.597 616.075C522.81 616.075 522.172 616.714 522.172 617.5V617.5" fill="#F43F5E"/>
<path d="M450.296 627C450.296 628.049 451.147 628.9 452.196 628.9C453.245 628.9 454.096 628.049 454.096 627C454.096 625.951 453.245 625.1 452.196 625.1C451.147 625.1 450.296 625.951 450.296 627V627" fill="#F43F5E"/>
<path d="M497.896 627C497.896 628.049 498.747 628.9 499.796 628.9C500.845 628.9 501.696 628.049 501.696 627C501.696 625.951 500.845 625.1 499.796 625.1C498.747 625.1 497.896 625.951 497.896 627V627" fill="#F43F5E"/>
<path d="M465.052 646C465.052 646.786 465.691 647.425 466.477 647.425C467.263 647.425 467.902 646.786 467.902 646C467.902 645.214 467.263 644.575 466.477 644.575C465.691 644.575 465.052 645.214 465.052 646V646" fill="#F43F5E"/>
<path d="M484.092 646C484.092 646.786 484.731 647.425 485.517 647.425C486.303 647.425 486.942 646.786 486.942 646C486.942 645.214 486.303 644.575 485.517 644.575C484.731 644.575 484.092 645.214 484.092 646V646" fill="#F43F5E"/>
<path d="M8.092 190C8.092 190.786 8.73052 191.425 9.517 191.425C10.3035 191.425 10.942 190.786 10.942 190C10.942 189.214 10.3035 188.575 9.517 188.575C8.73052 188.575 8.092 189.214 8.092 190V190" fill="#F43F5E"/>
<path d="M941.052 190C941.052 190.786 941.691 191.425 942.477 191.425C943.263 191.425 943.902 190.786 943.902 190C943.902 189.214 943.263 188.575 942.477 188.575C941.691 188.575 941.052 189.214 941.052 190V190" fill="#F43F5E"/>
<path d="M74.256 380C74.256 381.049 75.1073 381.9 76.156 381.9C77.2046 381.9 78.056 381.049 78.056 380C78.056 378.951 77.2046 378.1 76.156 378.1C75.1073 378.1 74.256 378.951 74.256 380V380" fill="#F43F5E"/>
<path d="M873.936 380C873.936 381.049 874.787 381.9 875.836 381.9C876.885 381.9 877.736 381.049 877.736 380C877.736 378.951 876.885 378.1 875.836 378.1C874.787 378.1 873.936 378.951 873.936 380V380" fill="#F43F5E"/>
<path d="M470.288 665C470.288 668.146 472.842 670.7 475.988 670.7C479.134 670.7 481.688 668.146 481.688 665C481.688 661.854 479.134 659.3 475.988 659.3C472.842 659.3 470.288 661.854 470.288 665V665" fill="#A855F7"/>
<path d="M473.144 665C473.144 666.573 474.421 667.85 475.994 667.85C477.567 667.85 478.844 666.573 478.844 665C478.844 663.427 477.567 662.15 475.994 662.15C474.421 662.15 473.144 663.427 473.144 665V665" fill="white"/>
<path d="M466.478 655.5C485.478 646 494.978 674.5 475.978 684C456.978 674.5 466.478 646 485.478 655.5" stroke="#D946EF" stroke-width="1.425"/>
<path d="M471.216 650.75C490.216 660.25 480.716 679.25 461.716 669.75C452.216 650.75 480.716 641.25 471.216 650.75" stroke="#A855F7" stroke-width="0.95"/>
<path opacity="0.8" d="M476 665V1330" stroke="url(#paint98_linear_3_10)" stroke-width="2.85"/>
<path opacity="0.5" d="M472.192 674.5V1330" stroke="url(#paint99_linear_3_10)" stroke-width="0.95"/>
<path opacity="0.5" d="M479.808 674.5V1330" stroke="url(#paint100_linear_3_10)" stroke-width="0.95"/>
<g opacity="0.7">
<path d="M475.1 665L465.6 674.5V712.5L427.6 750.5H285.1L266.1 769.5V997.5L142.6 1121V1282.5H47.6" stroke="url(#paint101_linear_3_10)" stroke-width="1.14"/>
<path d="M465.7 712.5L399.2 779V902.5H190.2L171.2 921.5V1187.5H95.2" stroke="url(#paint102_linear_3_10)" stroke-width="1.14"/>
<path d="M475.24 665L470.49 693.5L437.24 726.75H332.74L313.74 745.75V855H237.74L218.74 874V1045H114.24" stroke="url(#paint103_linear_3_10)" stroke-width="1.14"/>
<path d="M437.4 726.75V807.5H361.4L342.4 826.5V969H209.4L190.4 988V1092.5" stroke="url(#paint104_linear_3_10)" stroke-width="1.14"/>
<path d="M475.52 665L466.02 741L447.02 760V874H380.52L361.52 893V1064H266.52L247.52 1083V1235" stroke="url(#paint105_linear_3_10)" stroke-width="1.14"/>
<path d="M446.86 874V1026H332.86L313.86 1045V1159H171.36" stroke="url(#paint106_linear_3_10)" stroke-width="1.14"/>
<path d="M475.7 665L466.2 779L428.2 817V950L399.7 978.5V1140L333.2 1206.5V1330" stroke="url(#paint107_linear_3_10)" stroke-width="1.14"/>
<path d="M428.04 950H371.04L352.04 969V1121H276.04L257.04 1140V1311" stroke="url(#paint108_linear_3_10)" stroke-width="1.14"/>
<path d="M475.76 665L471.01 855L452.01 874V1092.5L418.76 1125.75V1254H361.76" stroke="url(#paint109_linear_3_10)" stroke-width="1.14"/>
<path d="M475.6 665L468 997.5L437.6 1027.9V1216L380.6 1273H285.6" stroke="url(#paint110_linear_3_10)" stroke-width="1.14"/>
<path d="M475.84 665L473.94 1140L456.84 1157.1V1311H399.84" stroke="url(#paint111_linear_3_10)" stroke-width="1.14"/>
</g>
<g opacity="0.7">
<path d="M476 665L485.5 674.5V712.5L523.5 750.5H666L685 769.5V997.5L808.5 1121V1282.5H903.5" stroke="url(#paint112_linear_3_10)" stroke-width="1.14"/>
<path d="M485.52 712.5L552.02 779V902.5H761.02L780.02 921.5V1187.5H856.02" stroke="url(#paint113_linear_3_10)" stroke-width="1.14"/>
<path d="M476 665L480.75 693.5L514 726.75H618.5L637.5 745.75V855H713.5L732.5 874V1045H837" stroke="url(#paint114_linear_3_10)" stroke-width="1.14"/>
<path d="M514.08 726.75V807.5H590.08L609.08 826.5V969H742.08L761.08 988V1092.5" stroke="url(#paint115_linear_3_10)" stroke-width="1.14"/>
<path d="M476 665L485.5 741L504.5 760V874H571L590 893V1064H685L704 1083V1235" stroke="url(#paint116_linear_3_10)" stroke-width="1.14"/>
<path d="M504.56 874V1026H618.56L637.56 1045V1159H780.06" stroke="url(#paint117_linear_3_10)" stroke-width="1.14"/>
<path d="M476 665L485.5 779L523.5 817V950L552 978.5V1140L618.5 1206.5V1330" stroke="url(#paint118_linear_3_10)" stroke-width="1.14"/>
<path d="M523.6 950H580.6L599.6 969V1121H675.6L694.6 1140V1311" stroke="url(#paint119_linear_3_10)" stroke-width="1.14"/>
<path d="M476 665L480.75 855L499.75 874V1092.5L533 1125.75V1254H590" stroke="url(#paint120_linear_3_10)" stroke-width="1.14"/>
<path d="M476 665L483.6 997.5L514 1027.9V1216L571 1273H666" stroke="url(#paint121_linear_3_10)" stroke-width="1.14"/>
<path d="M476 665L477.9 1140L495 1157.1V1311H552" stroke="url(#paint122_linear_3_10)" stroke-width="1.14"/>
</g>
<g opacity="0.5">
<path d="M471.11 703L447.36 726.75V779H409.36" stroke="url(#paint123_linear_3_10)" stroke-width="0.475"/>
<path d="M480.76 703L504.51 726.75V779H542.51" stroke="url(#paint124_linear_3_10)" stroke-width="0.475"/>
<path d="M466.14 836L418.64 883.5V931H304.64" stroke="url(#paint125_linear_3_10)" stroke-width="0.475"/>
<path d="M485.52 836L533.02 883.5V931H647.02" stroke="url(#paint126_linear_3_10)" stroke-width="0.475"/>
<path d="M461.51 950L442.51 969V1045H361.76" stroke="url(#paint127_linear_3_10)" stroke-width="0.475"/>
<path d="M490.28 950L509.28 969V1045H590.03" stroke="url(#paint128_linear_3_10)" stroke-width="0.475"/>
<path d="M466 1092.5L428 1130.5V1187.5H238" stroke="url(#paint129_linear_3_10)" stroke-width="0.475"/>
<path d="M485.52 1092.5L523.52 1130.5V1187.5H713.52" stroke="url(#paint130_linear_3_10)" stroke-width="0.475"/>
</g>
<path d="M45.22 1282.5C45.22 1283.81 46.2842 1284.88 47.595 1284.88C48.9058 1284.88 49.97 1283.81 49.97 1282.5C49.97 1281.19 48.9058 1280.12 47.595 1280.12C46.2842 1280.12 45.22 1281.19 45.22 1282.5V1282.5" fill="#06B6D4"/>
<path d="M92.82 1187.5C92.82 1188.81 93.8842 1189.88 95.195 1189.88C96.5058 1189.88 97.57 1188.81 97.57 1187.5C97.57 1186.19 96.5058 1185.13 95.195 1185.13C93.8842 1185.13 92.82 1186.19 92.82 1187.5V1187.5" fill="#06B6D4"/>
<path d="M111.86 1045C111.86 1046.31 112.924 1047.38 114.235 1047.38C115.546 1047.38 116.61 1046.31 116.61 1045C116.61 1043.69 115.546 1042.63 114.235 1042.63C112.924 1042.63 111.86 1043.69 111.86 1045V1045" fill="#06B6D4"/>
<path d="M188.02 1092.5C188.02 1093.81 189.084 1094.88 190.395 1094.88C191.706 1094.88 192.77 1093.81 192.77 1092.5C192.77 1091.19 191.706 1090.12 190.395 1090.12C189.084 1090.12 188.02 1091.19 188.02 1092.5V1092.5" fill="#06B6D4"/>
<path d="M245.14 1235C245.14 1236.31 246.204 1237.38 247.515 1237.38C248.826 1237.38 249.89 1236.31 249.89 1235C249.89 1233.69 248.826 1232.62 247.515 1232.62C246.204 1232.62 245.14 1233.69 245.14 1235V1235" fill="#06B6D4"/>
<path d="M168.98 1159C168.98 1160.31 170.044 1161.38 171.355 1161.38C172.666 1161.38 173.73 1160.31 173.73 1159C173.73 1157.69 172.666 1156.62 171.355 1156.62C170.044 1156.62 168.98 1157.69 168.98 1159V1159" fill="#06B6D4"/>
<path d="M330.82 1330C330.82 1331.31 331.884 1332.38 333.195 1332.38C334.506 1332.38 335.57 1331.31 335.57 1330C335.57 1328.69 334.506 1327.63 333.195 1327.63C331.884 1327.63 330.82 1328.69 330.82 1330V1330" fill="#06B6D4"/>
<path d="M254.66 1311C254.66 1312.31 255.724 1313.38 257.035 1313.38C258.346 1313.38 259.41 1312.31 259.41 1311C259.41 1309.69 258.346 1308.62 257.035 1308.62C255.724 1308.62 254.66 1309.69 254.66 1311V1311" fill="#06B6D4"/>
<path d="M359.38 1254C359.38 1255.31 360.444 1256.38 361.755 1256.38C363.066 1256.38 364.13 1255.31 364.13 1254C364.13 1252.69 363.066 1251.62 361.755 1251.62C360.444 1251.62 359.38 1252.69 359.38 1254V1254" fill="#06B6D4"/>
<path d="M283.22 1273C283.22 1274.31 284.284 1275.38 285.595 1275.38C286.906 1275.38 287.97 1274.31 287.97 1273C287.97 1271.69 286.906 1270.62 285.595 1270.62C284.284 1270.62 283.22 1271.69 283.22 1273V1273" fill="#06B6D4"/>
<path d="M397.46 1311C397.46 1312.31 398.524 1313.38 399.835 1313.38C401.146 1313.38 402.21 1312.31 402.21 1311C402.21 1309.69 401.146 1308.62 399.835 1308.62C398.524 1308.62 397.46 1309.69 397.46 1311V1311" fill="#06B6D4"/>
<path d="M407.932 779C407.932 779.786 408.571 780.425 409.357 780.425C410.143 780.425 410.782 779.786 410.782 779C410.782 778.214 410.143 777.575 409.357 777.575C408.571 777.575 407.932 778.214 407.932 779V779" fill="#06B6D4"/>
<path d="M303.212 931C303.212 931.786 303.85 932.425 304.637 932.425C305.423 932.425 306.062 931.786 306.062 931C306.062 930.214 305.423 929.575 304.637 929.575C303.85 929.575 303.212 930.214 303.212 931V931" fill="#06B6D4"/>
<path d="M360.332 1045C360.332 1045.79 360.97 1046.42 361.757 1046.42C362.543 1046.42 363.182 1045.79 363.182 1045C363.182 1044.21 362.543 1043.57 361.757 1043.57C360.97 1043.57 360.332 1044.21 360.332 1045V1045" fill="#06B6D4"/>
<path d="M236.572 1187.5C236.572 1188.29 237.211 1188.92 237.997 1188.92C238.783 1188.92 239.422 1188.29 239.422 1187.5C239.422 1186.71 238.783 1186.07 237.997 1186.07C237.211 1186.07 236.572 1186.71 236.572 1187.5V1187.5" fill="#06B6D4"/>
<path d="M902.02 1282.5C902.02 1283.81 903.084 1284.88 904.395 1284.88C905.706 1284.88 906.77 1283.81 906.77 1282.5C906.77 1281.19 905.706 1280.12 904.395 1280.12C903.084 1280.12 902.02 1281.19 902.02 1282.5V1282.5" fill="#06B6D4"/>
<path d="M854.42 1187.5C854.42 1188.81 855.484 1189.88 856.795 1189.88C858.106 1189.88 859.17 1188.81 859.17 1187.5C859.17 1186.19 858.106 1185.13 856.795 1185.13C855.484 1185.13 854.42 1186.19 854.42 1187.5V1187.5" fill="#06B6D4"/>
<path d="M835.38 1045C835.38 1046.31 836.444 1047.38 837.755 1047.38C839.066 1047.38 840.13 1046.31 840.13 1045C840.13 1043.69 839.066 1042.63 837.755 1042.63C836.444 1042.63 835.38 1043.69 835.38 1045V1045" fill="#06B6D4"/>
<path d="M759.22 1092.5C759.22 1093.81 760.284 1094.88 761.595 1094.88C762.906 1094.88 763.97 1093.81 763.97 1092.5C763.97 1091.19 762.906 1090.12 761.595 1090.12C760.284 1090.12 759.22 1091.19 759.22 1092.5V1092.5" fill="#06B6D4"/>
<path d="M702.1 1235C702.1 1236.31 703.164 1237.38 704.475 1237.38C705.786 1237.38 706.85 1236.31 706.85 1235C706.85 1233.69 705.786 1232.62 704.475 1232.62C703.164 1232.62 702.1 1233.69 702.1 1235V1235" fill="#06B6D4"/>
<path d="M778.26 1159C778.26 1160.31 779.324 1161.38 780.635 1161.38C781.946 1161.38 783.01 1160.31 783.01 1159C783.01 1157.69 781.946 1156.62 780.635 1156.62C779.324 1156.62 778.26 1157.69 778.26 1159V1159" fill="#06B6D4"/>
<path d="M616.42 1330C616.42 1331.31 617.484 1332.38 618.795 1332.38C620.106 1332.38 621.17 1331.31 621.17 1330C621.17 1328.69 620.106 1327.63 618.795 1327.63C617.484 1327.63 616.42 1328.69 616.42 1330V1330" fill="#06B6D4"/>
<path d="M692.58 1311C692.58 1312.31 693.644 1313.38 694.955 1313.38C696.266 1313.38 697.33 1312.31 697.33 1311C697.33 1309.69 696.266 1308.62 694.955 1308.62C693.644 1308.62 692.58 1309.69 692.58 1311V1311" fill="#06B6D4"/>
<path d="M587.86 1254C587.86 1255.31 588.924 1256.38 590.235 1256.38C591.546 1256.38 592.61 1255.31 592.61 1254C592.61 1252.69 591.546 1251.62 590.235 1251.62C588.924 1251.62 587.86 1252.69 587.86 1254V1254" fill="#06B6D4"/>
<path d="M664.02 1273C664.02 1274.31 665.084 1275.38 666.395 1275.38C667.706 1275.38 668.77 1274.31 668.77 1273C668.77 1271.69 667.706 1270.62 666.395 1270.62C665.084 1270.62 664.02 1271.69 664.02 1273V1273" fill="#06B6D4"/>
<path d="M549.78 1311C549.78 1312.31 550.844 1313.38 552.155 1313.38C553.466 1313.38 554.53 1312.31 554.53 1311C554.53 1309.69 553.466 1308.62 552.155 1308.62C550.844 1308.62 549.78 1309.69 549.78 1311V1311" fill="#06B6D4"/>
<path d="M541.212 779C541.212 779.786 541.851 780.425 542.637 780.425C543.424 780.425 544.062 779.786 544.062 779C544.062 778.214 543.424 777.575 542.637 777.575C541.851 777.575 541.212 778.214 541.212 779V779" fill="#06B6D4"/>
<path d="M645.932 931C645.932 931.786 646.571 932.425 647.357 932.425C648.143 932.425 648.782 931.786 648.782 931C648.782 930.214 648.143 929.575 647.357 929.575C646.571 929.575 645.932 930.214 645.932 931V931" fill="#06B6D4"/>
<path d="M588.812 1045C588.812 1045.79 589.451 1046.42 590.237 1046.42C591.023 1046.42 591.662 1045.79 591.662 1045C591.662 1044.21 591.023 1043.57 590.237 1043.57C589.451 1043.57 588.812 1044.21 588.812 1045V1045" fill="#06B6D4"/>
<path d="M712.572 1187.5C712.572 1188.29 713.211 1188.92 713.997 1188.92C714.784 1188.92 715.422 1188.29 715.422 1187.5C715.422 1186.71 714.784 1186.07 713.997 1186.07C713.211 1186.07 712.572 1186.71 712.572 1187.5V1187.5" fill="#06B6D4"/>
</g>
<defs>
<linearGradient id="paint0_linear_3_10" x1="0" y1="-3.38174e-06" x2="0" y2="1330" gradientUnits="userSpaceOnUse">
<stop stop-color="#F43F5E"/>
<stop offset="0.3" stop-color="#D946EF"/>
<stop offset="0.5" stop-color="#A855F7"/>
<stop offset="0.7" stop-color="#3B82F6"/>
<stop offset="1" stop-color="#06B6D4"/>
</linearGradient>
<linearGradient id="paint1_linear_3_10" x1="1.04547e-05" y1="-3.38174e-06" x2="1.04547e-05" y2="1330" gradientUnits="userSpaceOnUse">
<stop stop-color="#F43F5E"/>
<stop offset="0.3" stop-color="#D946EF"/>
<stop offset="0.5" stop-color="#A855F7"/>
<stop offset="0.7" stop-color="#3B82F6"/>
<stop offset="1" stop-color="#06B6D4"/>
</linearGradient>
<linearGradient id="paint2_linear_3_10" x1="-2.80592e-05" y1="-1.17293e-05" x2="-2.80592e-05" y2="1330" gradientUnits="userSpaceOnUse">
<stop stop-color="#F43F5E"/>
<stop offset="0.3" stop-color="#D946EF"/>
<stop offset="0.5" stop-color="#A855F7"/>
<stop offset="0.7" stop-color="#3B82F6"/>
<stop offset="1" stop-color="#06B6D4"/>
</linearGradient>
<linearGradient id="paint3_linear_3_10" x1="2.10444e-05" y1="-1.17293e-05" x2="2.10444e-05" y2="1330" gradientUnits="userSpaceOnUse">
<stop stop-color="#F43F5E"/>
<stop offset="0.3" stop-color="#D946EF"/>
<stop offset="0.5" stop-color="#A855F7"/>
<stop offset="0.7" stop-color="#3B82F6"/>
<stop offset="1" stop-color="#06B6D4"/>
</linearGradient>
<linearGradient id="paint4_linear_3_10" x1="2.51889e-05" y1="0" x2="2.51889e-05" y2="1330" gradientUnits="userSpaceOnUse">
<stop stop-color="#F43F5E"/>
<stop offset="0.3" stop-color="#D946EF"/>
<stop offset="0.5" stop-color="#A855F7"/>
<stop offset="0.7" stop-color="#3B82F6"/>
<stop offset="1" stop-color="#06B6D4"/>
</linearGradient>
<linearGradient id="paint5_linear_3_10" x1="4.50492e-05" y1="0" x2="4.50492e-05" y2="1330" gradientUnits="userSpaceOnUse">
<stop stop-color="#F43F5E"/>
<stop offset="0.3" stop-color="#D946EF"/>
<stop offset="0.5" stop-color="#A855F7"/>
<stop offset="0.7" stop-color="#3B82F6"/>
<stop offset="1" stop-color="#06B6D4"/>
</linearGradient>
<linearGradient id="paint6_linear_3_10" x1="3.12937e-05" y1="-6.5502e-06" x2="3.12937e-05" y2="1330" gradientUnits="userSpaceOnUse">
<stop stop-color="#F43F5E"/>
<stop offset="0.3" stop-color="#D946EF"/>
<stop offset="0.5" stop-color="#A855F7"/>
<stop offset="0.7" stop-color="#3B82F6"/>
<stop offset="1" stop-color="#06B6D4"/>
</linearGradient>
<linearGradient id="paint7_linear_3_10" x1="1.78559e-05" y1="-6.5502e-06" x2="1.78559e-05" y2="1330" gradientUnits="userSpaceOnUse">
<stop stop-color="#F43F5E"/>
<stop offset="0.3" stop-color="#D946EF"/>
<stop offset="0.5" stop-color="#A855F7"/>
<stop offset="0.7" stop-color="#3B82F6"/>
<stop offset="1" stop-color="#06B6D4"/>
</linearGradient>
<linearGradient id="paint8_linear_3_10" x1="0" y1="0" x2="0" y2="1330" gradientUnits="userSpaceOnUse">
<stop stop-color="#F43F5E"/>
<stop offset="0.3" stop-color="#D946EF"/>
<stop offset="0.5" stop-color="#A855F7"/>
<stop offset="0.7" stop-color="#3B82F6"/>
<stop offset="1" stop-color="#06B6D4"/>
</linearGradient>
<linearGradient id="paint9_linear_3_10" x1="-2.2471e-05" y1="0" x2="-2.2471e-05" y2="1330" gradientUnits="userSpaceOnUse">
<stop stop-color="#F43F5E"/>
<stop offset="0.3" stop-color="#D946EF"/>
<stop offset="0.5" stop-color="#A855F7"/>
<stop offset="0.7" stop-color="#3B82F6"/>
<stop offset="1" stop-color="#06B6D4"/>
</linearGradient>
<linearGradient id="paint10_linear_3_10" x1="-1.36639e-05" y1="3.6334e-06" x2="-1.36639e-05" y2="1330" gradientUnits="userSpaceOnUse">
<stop stop-color="#F43F5E"/>
<stop offset="0.3" stop-color="#D946EF"/>
<stop offset="0.5" stop-color="#A855F7"/>
<stop offset="0.7" stop-color="#3B82F6"/>
<stop offset="1" stop-color="#06B6D4"/>
</linearGradient>
<linearGradient id="paint11_linear_3_10" x1="5.8212e-05" y1="3.6334e-06" x2="5.8212e-05" y2="1330" gradientUnits="userSpaceOnUse">
<stop stop-color="#F43F5E"/>
<stop offset="0.3" stop-color="#D946EF"/>
<stop offset="0.5" stop-color="#A855F7"/>
<stop offset="0.7" stop-color="#3B82F6"/>
<stop offset="1" stop-color="#06B6D4"/>
</linearGradient>
<linearGradient id="paint12_linear_3_10" x1="-2.88113e-05" y1="-5.18074e-06" x2="-2.88113e-05" y2="1330" gradientUnits="userSpaceOnUse">
<stop stop-color="#F43F5E"/>
<stop offset="0.3" stop-color="#D946EF"/>
<stop offset="0.5" stop-color="#A855F7"/>
<stop offset="0.7" stop-color="#3B82F6"/>
<stop offset="1" stop-color="#06B6D4"/>
</linearGradient>
<linearGradient id="paint13_linear_3_10" x1="-9.06302e-06" y1="-5.18074e-06" x2="-9.06302e-06" y2="1330" gradientUnits="userSpaceOnUse">
<stop stop-color="#F43F5E"/>
<stop offset="0.3" stop-color="#D946EF"/>
<stop offset="0.5" stop-color="#A855F7"/>
<stop offset="0.7" stop-color="#3B82F6"/>
<stop offset="1" stop-color="#06B6D4"/>
</linearGradient>
<linearGradient id="paint14_linear_3_10" x1="-9.74411e-06" y1="1.14739e-05" x2="-9.74411e-06" y2="1330" gradientUnits="userSpaceOnUse">
<stop stop-color="#F43F5E"/>
<stop offset="0.3" stop-color="#D946EF"/>
<stop offset="0.5" stop-color="#A855F7"/>
<stop offset="0.7" stop-color="#3B82F6"/>
<stop offset="1" stop-color="#06B6D4"/>
</linearGradient>
<linearGradient id="paint15_linear_3_10" x1="6.09337e-05" y1="1.14739e-05" x2="6.09337e-05" y2="1330" gradientUnits="userSpaceOnUse">
<stop stop-color="#F43F5E"/>
<stop offset="0.3" stop-color="#D946EF"/>
<stop offset="0.5" stop-color="#A855F7"/>
<stop offset="0.7" stop-color="#3B82F6"/>
<stop offset="1" stop-color="#06B6D4"/>
</linearGradient>
<linearGradient id="paint16_linear_3_10" x1="1.6417e-05" y1="0" x2="1.6417e-05" y2="1330" gradientUnits="userSpaceOnUse">
<stop stop-color="#F43F5E"/>
<stop offset="0.3" stop-color="#D946EF"/>
<stop offset="0.5" stop-color="#A855F7"/>
<stop offset="0.7" stop-color="#3B82F6"/>
<stop offset="1" stop-color="#06B6D4"/>
</linearGradient>
<linearGradient id="paint17_linear_3_10" x1="5.58912e-05" y1="0" x2="5.58912e-05" y2="1330" gradientUnits="userSpaceOnUse">
<stop stop-color="#F43F5E"/>
<stop offset="0.3" stop-color="#D946EF"/>
<stop offset="0.5" stop-color="#A855F7"/>
<stop offset="0.7" stop-color="#3B82F6"/>
<stop offset="1" stop-color="#06B6D4"/>
</linearGradient>
<linearGradient id="paint18_linear_3_10" x1="8.39631e-06" y1="-3.43013e-06" x2="8.39631e-06" y2="1330" gradientUnits="userSpaceOnUse">
<stop stop-color="#F43F5E"/>
<stop offset="0.3" stop-color="#D946EF"/>
<stop offset="0.5" stop-color="#A855F7"/>
<stop offset="0.7" stop-color="#3B82F6"/>
<stop offset="1" stop-color="#06B6D4"/>
</linearGradient>
<linearGradient id="paint19_linear_3_10" x1="3.06765e-06" y1="-3.43013e-06" x2="3.06765e-06" y2="1330" gradientUnits="userSpaceOnUse">
<stop stop-color="#F43F5E"/>
<stop offset="0.3" stop-color="#D946EF"/>
<stop offset="0.5" stop-color="#A855F7"/>
<stop offset="0.7" stop-color="#3B82F6"/>
<stop offset="1" stop-color="#06B6D4"/>
</linearGradient>
<linearGradient id="paint20_linear_3_10" x1="-5.1076e-06" y1="1.11324e-06" x2="-5.1076e-06" y2="1330" gradientUnits="userSpaceOnUse">
<stop stop-color="#F43F5E"/>
<stop offset="0.3" stop-color="#D946EF"/>
<stop offset="0.5" stop-color="#A855F7"/>
<stop offset="0.7" stop-color="#3B82F6"/>
<stop offset="1" stop-color="#06B6D4"/>
</linearGradient>
<linearGradient id="paint21_linear_3_10" x1="3.14018e-05" y1="1.11324e-06" x2="3.14018e-05" y2="1330" gradientUnits="userSpaceOnUse">
<stop stop-color="#F43F5E"/>
<stop offset="0.3" stop-color="#D946EF"/>
<stop offset="0.5" stop-color="#A855F7"/>
<stop offset="0.7" stop-color="#3B82F6"/>
<stop offset="1" stop-color="#06B6D4"/>
</linearGradient>
<linearGradient id="paint22_linear_3_10" x1="5.05397e-07" y1="-8.80824e-06" x2="5.05397e-07" y2="1330" gradientUnits="userSpaceOnUse">
<stop stop-color="#F43F5E"/>
<stop offset="0.3" stop-color="#D946EF"/>
<stop offset="0.5" stop-color="#A855F7"/>
<stop offset="0.7" stop-color="#3B82F6"/>
<stop offset="1" stop-color="#06B6D4"/>
</linearGradient>
<linearGradient id="paint23_linear_3_10" x1="1.31717e-06" y1="-8.80824e-06" x2="1.31717e-06" y2="1330" gradientUnits="userSpaceOnUse">
<stop stop-color="#F43F5E"/>
<stop offset="0.3" stop-color="#D946EF"/>
<stop offset="0.5" stop-color="#A855F7"/>
<stop offset="0.7" stop-color="#3B82F6"/>
<stop offset="1" stop-color="#06B6D4"/>
</linearGradient>
<linearGradient id="paint24_linear_3_10" x1="-2.52629e-05" y1="-3.43013e-06" x2="-2.52629e-05" y2="1330" gradientUnits="userSpaceOnUse">
<stop stop-color="#F43F5E"/>
<stop offset="0.3" stop-color="#D946EF"/>
<stop offset="0.5" stop-color="#A855F7"/>
<stop offset="0.7" stop-color="#3B82F6"/>
<stop offset="1" stop-color="#06B6D4"/>
</linearGradient>
<linearGradient id="paint25_linear_3_10" x1="-2.37031e-05" y1="-3.43013e-06" x2="-2.37031e-05" y2="1330" gradientUnits="userSpaceOnUse">
<stop stop-color="#F43F5E"/>
<stop offset="0.3" stop-color="#D946EF"/>
<stop offset="0.5" stop-color="#A855F7"/>
<stop offset="0.7" stop-color="#3B82F6"/>
<stop offset="1" stop-color="#06B6D4"/>
</linearGradient>
<linearGradient id="paint26_linear_3_10" x1="-3.05718e-05" y1="0" x2="-3.05718e-05" y2="1330" gradientUnits="userSpaceOnUse">
<stop stop-color="#F43F5E"/>
<stop offset="0.3" stop-color="#D946EF"/>
<stop offset="0.5" stop-color="#A855F7"/>
<stop offset="0.7" stop-color="#3B82F6"/>
<stop offset="1" stop-color="#06B6D4"/>
</linearGradient>
<linearGradient id="paint27_linear_3_10" x1="3.62152e-05" y1="0" x2="3.62152e-05" y2="1330" gradientUnits="userSpaceOnUse">
<stop stop-color="#F43F5E"/>
<stop offset="0.3" stop-color="#D946EF"/>
<stop offset="0.5" stop-color="#A855F7"/>
<stop offset="0.7" stop-color="#3B82F6"/>
<stop offset="1" stop-color="#06B6D4"/>
</linearGradient>
<linearGradient id="paint28_linear_3_10" x1="-2.52113e-05" y1="3.94796e-06" x2="-2.52113e-05" y2="1330" gradientUnits="userSpaceOnUse">
<stop stop-color="#F43F5E"/>
<stop offset="0.3" stop-color="#D946EF"/>
<stop offset="0.5" stop-color="#A855F7"/>
<stop offset="0.7" stop-color="#3B82F6"/>
<stop offset="1" stop-color="#06B6D4"/>
</linearGradient>
<linearGradient id="paint29_linear_3_10" x1="5.108e-05" y1="3.94796e-06" x2="5.108e-05" y2="1330" gradientUnits="userSpaceOnUse">
<stop stop-color="#F43F5E"/>
<stop offset="0.3" stop-color="#D946EF"/>
<stop offset="0.5" stop-color="#A855F7"/>
<stop offset="0.7" stop-color="#3B82F6"/>
<stop offset="1" stop-color="#06B6D4"/>
</linearGradient>
<linearGradient id="paint30_linear_3_10" x1="3.09038e-06" y1="3.6334e-06" x2="3.09038e-06" y2="1330" gradientUnits="userSpaceOnUse">
<stop stop-color="#F43F5E"/>
<stop offset="0.3" stop-color="#D946EF"/>
<stop offset="0.5" stop-color="#A855F7"/>
<stop offset="0.7" stop-color="#3B82F6"/>
<stop offset="1" stop-color="#06B6D4"/>
</linearGradient>
<linearGradient id="paint31_linear_3_10" x1="2.29506e-05" y1="3.6334e-06" x2="2.29506e-05" y2="1330" gradientUnits="userSpaceOnUse">
<stop stop-color="#F43F5E"/>
<stop offset="0.3" stop-color="#D946EF"/>
<stop offset="0.5" stop-color="#A855F7"/>
<stop offset="0.7" stop-color="#3B82F6"/>
<stop offset="1" stop-color="#06B6D4"/>
</linearGradient>
<linearGradient id="paint32_linear_3_10" x1="-1.16528e-05" y1="-1.51008e-05" x2="-1.16528e-05" y2="1330" gradientUnits="userSpaceOnUse">
<stop stop-color="#F43F5E"/>
<stop offset="0.3" stop-color="#D946EF"/>
<stop offset="0.5" stop-color="#A855F7"/>
<stop offset="0.7" stop-color="#3B82F6"/>
<stop offset="1" stop-color="#06B6D4"/>
</linearGradient>
<linearGradient id="paint33_linear_3_10" x1="-3.63669e-05" y1="-1.51008e-05" x2="-3.63669e-05" y2="1330" gradientUnits="userSpaceOnUse">
<stop stop-color="#F43F5E"/>
<stop offset="0.3" stop-color="#D946EF"/>
<stop offset="0.5" stop-color="#A855F7"/>
<stop offset="0.7" stop-color="#3B82F6"/>
<stop offset="1" stop-color="#06B6D4"/>
</linearGradient>
<linearGradient id="paint34_linear_3_10" x1="1.30046e-05" y1="-9.63401e-07" x2="1.30046e-05" y2="1330" gradientUnits="userSpaceOnUse">
<stop stop-color="#F43F5E"/>
<stop offset="0.3" stop-color="#D946EF"/>
<stop offset="0.5" stop-color="#A855F7"/>
<stop offset="0.7" stop-color="#3B82F6"/>
<stop offset="1" stop-color="#06B6D4"/>
</linearGradient>
<linearGradient id="paint35_linear_3_10" x1="4.42119e-05" y1="-9.63401e-07" x2="4.42119e-05" y2="1330" gradientUnits="userSpaceOnUse">
<stop stop-color="#F43F5E"/>
<stop offset="0.3" stop-color="#D946EF"/>
<stop offset="0.5" stop-color="#A855F7"/>
<stop offset="0.7" stop-color="#3B82F6"/>
<stop offset="1" stop-color="#06B6D4"/>
</linearGradient>
<linearGradient id="paint36_linear_3_10" x1="1.90338e-05" y1="-5.21541e-06" x2="1.90338e-05" y2="1330" gradientUnits="userSpaceOnUse">
<stop stop-color="#F43F5E"/>
<stop offset="0.3" stop-color="#D946EF"/>
<stop offset="0.5" stop-color="#A855F7"/>
<stop offset="0.7" stop-color="#3B82F6"/>
<stop offset="1" stop-color="#06B6D4"/>
</linearGradient>
<linearGradient id="paint37_linear_3_10" x1="-2.49621e-05" y1="-5.21541e-06" x2="-2.49621e-05" y2="1330" gradientUnits="userSpaceOnUse">
<stop stop-color="#F43F5E"/>
<stop offset="0.3" stop-color="#D946EF"/>
<stop offset="0.5" stop-color="#A855F7"/>
<stop offset="0.7" stop-color="#3B82F6"/>
<stop offset="1" stop-color="#06B6D4"/>
</linearGradient>
<linearGradient id="paint38_linear_3_10" x1="-8.30985e-06" y1="-3.30309e-06" x2="-8.30985e-06" y2="1330" gradientUnits="userSpaceOnUse">
<stop stop-color="#F43F5E"/>
<stop offset="0.3" stop-color="#D946EF"/>
<stop offset="0.5" stop-color="#A855F7"/>
<stop offset="0.7" stop-color="#3B82F6"/>
<stop offset="1" stop-color="#06B6D4"/>
</linearGradient>
<linearGradient id="paint39_linear_3_10" x1="-2.81701e-05" y1="-3.30309e-06" x2="-2.81701e-05" y2="1330" gradientUnits="userSpaceOnUse">
<stop stop-color="#F43F5E"/>
<stop offset="0.3" stop-color="#D946EF"/>
<stop offset="0.5" stop-color="#A855F7"/>
<stop offset="0.7" stop-color="#3B82F6"/>
<stop offset="1" stop-color="#06B6D4"/>
</linearGradient>
<linearGradient id="paint40_linear_3_10" x1="-3.53131e-05" y1="-3.43013e-06" x2="-3.53131e-05" y2="1330" gradientUnits="userSpaceOnUse">
<stop stop-color="#F43F5E"/>
<stop offset="0.3" stop-color="#D946EF"/>
<stop offset="0.5" stop-color="#A855F7"/>
<stop offset="0.7" stop-color="#3B82F6"/>
<stop offset="1" stop-color="#06B6D4"/>
</linearGradient>
<linearGradient id="paint41_linear_3_10" x1="6.49942e-05" y1="-3.43013e-06" x2="6.49942e-05" y2="1330" gradientUnits="userSpaceOnUse">
<stop stop-color="#F43F5E"/>
<stop offset="0.3" stop-color="#D946EF"/>
<stop offset="0.5" stop-color="#A855F7"/>
<stop offset="0.7" stop-color="#3B82F6"/>
<stop offset="1" stop-color="#06B6D4"/>
</linearGradient>
<linearGradient id="paint42_linear_3_10" x1="0" y1="-1.28701e-05" x2="0" y2="1330" gradientUnits="userSpaceOnUse">
<stop stop-color="#F43F5E"/>
<stop offset="0.3" stop-color="#D946EF"/>
<stop offset="0.5" stop-color="#A855F7"/>
<stop offset="0.7" stop-color="#3B82F6"/>
<stop offset="1" stop-color="#06B6D4"/>
</linearGradient>
<linearGradient id="paint43_linear_3_10" x1="-6.97602e-05" y1="-1.28701e-05" x2="-6.97602e-05" y2="1330" gradientUnits="userSpaceOnUse">
<stop stop-color="#F43F5E"/>
<stop offset="0.3" stop-color="#D946EF"/>
<stop offset="0.5" stop-color="#A855F7"/>
<stop offset="0.7" stop-color="#3B82F6"/>
<stop offset="1" stop-color="#06B6D4"/>
</linearGradient>
<linearGradient id="paint44_linear_3_10" x1="3.76925e-05" y1="0" x2="3.76925e-05" y2="1330" gradientUnits="userSpaceOnUse">
<stop stop-color="#F43F5E"/>
<stop offset="0.3" stop-color="#D946EF"/>
<stop offset="0.5" stop-color="#A855F7"/>
<stop offset="0.7" stop-color="#3B82F6"/>
<stop offset="1" stop-color="#06B6D4"/>
</linearGradient>
<linearGradient id="paint45_linear_3_10" x1="-7.64127e-05" y1="0" x2="-7.64127e-05" y2="1330" gradientUnits="userSpaceOnUse">
<stop stop-color="#F43F5E"/>
<stop offset="0.3" stop-color="#D946EF"/>
<stop offset="0.5" stop-color="#A855F7"/>
<stop offset="0.7" stop-color="#3B82F6"/>
<stop offset="1" stop-color="#06B6D4"/>
</linearGradient>
<linearGradient id="paint46_linear_3_10" x1="-3.12764e-05" y1="0" x2="-3.12764e-05" y2="1330" gradientUnits="userSpaceOnUse">
<stop stop-color="#F43F5E"/>
<stop offset="0.3" stop-color="#D946EF"/>
<stop offset="0.5" stop-color="#A855F7"/>
<stop offset="0.7" stop-color="#3B82F6"/>
<stop offset="1" stop-color="#06B6D4"/>
</linearGradient>
<linearGradient id="paint47_linear_3_10" x1="-3.39482e-05" y1="0" x2="-3.39482e-05" y2="1330" gradientUnits="userSpaceOnUse">
<stop stop-color="#F43F5E"/>
<stop offset="0.3" stop-color="#D946EF"/>
<stop offset="0.5" stop-color="#A855F7"/>
<stop offset="0.7" stop-color="#3B82F6"/>
<stop offset="1" stop-color="#06B6D4"/>
</linearGradient>
<linearGradient id="paint48_linear_3_10" x1="-8.32801e-06" y1="-3.30309e-06" x2="-8.32801e-06" y2="1330" gradientUnits="userSpaceOnUse">
<stop stop-color="#F43F5E"/>
<stop offset="0.3" stop-color="#D946EF"/>
<stop offset="0.5" stop-color="#A855F7"/>
<stop offset="0.7" stop-color="#3B82F6"/>
<stop offset="1" stop-color="#06B6D4"/>
</linearGradient>
<linearGradient id="paint49_linear_3_10" x1="-4.93609e-05" y1="-3.30309e-06" x2="-4.93609e-05" y2="1330" gradientUnits="userSpaceOnUse">
<stop stop-color="#F43F5E"/>
<stop offset="0.3" stop-color="#D946EF"/>
<stop offset="0.5" stop-color="#A855F7"/>
<stop offset="0.7" stop-color="#3B82F6"/>
<stop offset="1" stop-color="#06B6D4"/>
</linearGradient>
<linearGradient id="paint50_linear_3_10" x1="-1.22116e-05" y1="-2.50226e-05" x2="-1.22116e-05" y2="1330" gradientUnits="userSpaceOnUse">
<stop stop-color="#F43F5E"/>
<stop offset="0.3" stop-color="#D946EF"/>
<stop offset="0.5" stop-color="#A855F7"/>
<stop offset="0.7" stop-color="#3B82F6"/>
<stop offset="1" stop-color="#06B6D4"/>
</linearGradient>
<linearGradient id="paint51_linear_3_10" x1="-1.67747e-05" y1="-2.50226e-05" x2="-1.67747e-05" y2="1330" gradientUnits="userSpaceOnUse">
<stop stop-color="#F43F5E"/>
<stop offset="0.3" stop-color="#D946EF"/>
<stop offset="0.5" stop-color="#A855F7"/>
<stop offset="0.7" stop-color="#3B82F6"/>
<stop offset="1" stop-color="#06B6D4"/>
</linearGradient>
<linearGradient id="paint52_linear_3_10" x1="6.29723e-05" y1="-3.30309e-06" x2="6.29723e-05" y2="1330" gradientUnits="userSpaceOnUse">
<stop stop-color="#F43F5E"/>
<stop offset="0.3" stop-color="#D946EF"/>
<stop offset="0.5" stop-color="#A855F7"/>
<stop offset="0.7" stop-color="#3B82F6"/>
<stop offset="1" stop-color="#06B6D4"/>
</linearGradient>
<linearGradient id="paint53_linear_3_10" x1="4.50492e-05" y1="-3.30309e-06" x2="4.50492e-05" y2="1330" gradientUnits="userSpaceOnUse">
<stop stop-color="#F43F5E"/>
<stop offset="0.3" stop-color="#D946EF"/>
<stop offset="0.5" stop-color="#A855F7"/>
<stop offset="0.7" stop-color="#3B82F6"/>
<stop offset="1" stop-color="#06B6D4"/>
</linearGradient>
<linearGradient id="paint54_linear_3_10" x1="7.26369e-05" y1="-3.96371e-06" x2="7.26369e-05" y2="1330" gradientUnits="userSpaceOnUse">
<stop stop-color="#F43F5E"/>
<stop offset="0.3" stop-color="#D946EF"/>
<stop offset="0.5" stop-color="#A855F7"/>
<stop offset="0.7" stop-color="#3B82F6"/>
<stop offset="1" stop-color="#06B6D4"/>
</linearGradient>
<linearGradient id="paint55_linear_3_10" x1="8.00693e-05" y1="-3.96371e-06" x2="8.00693e-05" y2="1330" gradientUnits="userSpaceOnUse">
<stop stop-color="#F43F5E"/>
<stop offset="0.3" stop-color="#D946EF"/>
<stop offset="0.5" stop-color="#A855F7"/>
<stop offset="0.7" stop-color="#3B82F6"/>
<stop offset="1" stop-color="#06B6D4"/>
</linearGradient>
<linearGradient id="paint56_linear_3_10" x1="-2.04836e-05" y1="-3.30309e-06" x2="-2.04836e-05" y2="1330" gradientUnits="userSpaceOnUse">
<stop stop-color="#F43F5E"/>
<stop offset="0.3" stop-color="#D946EF"/>
<stop offset="0.5" stop-color="#A855F7"/>
<stop offset="0.7" stop-color="#3B82F6"/>
<stop offset="1" stop-color="#06B6D4"/>
</linearGradient>
<linearGradient id="paint57_linear_3_10" x1="1.99641e-05" y1="-3.30309e-06" x2="1.99641e-05" y2="1330" gradientUnits="userSpaceOnUse">
<stop stop-color="#F43F5E"/>
<stop offset="0.3" stop-color="#D946EF"/>
<stop offset="0.5" stop-color="#A855F7"/>
<stop offset="0.7" stop-color="#3B82F6"/>
<stop offset="1" stop-color="#06B6D4"/>
</linearGradient>
<linearGradient id="paint58_linear_3_10" x1="-4.19574e-05" y1="-3.96371e-06" x2="-4.19574e-05" y2="1330" gradientUnits="userSpaceOnUse">
<stop stop-color="#F43F5E"/>
<stop offset="0.3" stop-color="#D946EF"/>
<stop offset="0.5" stop-color="#A855F7"/>
<stop offset="0.7" stop-color="#3B82F6"/>
<stop offset="1" stop-color="#06B6D4"/>
</linearGradient>
<linearGradient id="paint59_linear_3_10" x1="-5.58054e-06" y1="-3.96371e-06" x2="-5.58054e-06" y2="1330" gradientUnits="userSpaceOnUse">
<stop stop-color="#F43F5E"/>
<stop offset="0.3" stop-color="#D946EF"/>
<stop offset="0.5" stop-color="#A855F7"/>
<stop offset="0.7" stop-color="#3B82F6"/>
<stop offset="1" stop-color="#06B6D4"/>
</linearGradient>
<linearGradient id="paint60_linear_3_10" x1="-4.32276e-05" y1="-4.50421e-06" x2="-4.32276e-05" y2="1330" gradientUnits="userSpaceOnUse">
<stop stop-color="#F43F5E"/>
<stop offset="0.3" stop-color="#D946EF"/>
<stop offset="0.5" stop-color="#A855F7"/>
<stop offset="0.7" stop-color="#3B82F6"/>
<stop offset="1" stop-color="#06B6D4"/>
</linearGradient>
<linearGradient id="paint61_linear_3_10" x1="2.71096e-05" y1="-4.50421e-06" x2="2.71096e-05" y2="1330" gradientUnits="userSpaceOnUse">
<stop stop-color="#F43F5E"/>
<stop offset="0.3" stop-color="#D946EF"/>
<stop offset="0.5" stop-color="#A855F7"/>
<stop offset="0.7" stop-color="#3B82F6"/>
<stop offset="1" stop-color="#06B6D4"/>
</linearGradient>
<linearGradient id="paint62_linear_3_10" x1="1.45316e-05" y1="-3.68553e-05" x2="1.45316e-05" y2="1330" gradientUnits="userSpaceOnUse">
<stop stop-color="#F43F5E"/>
<stop offset="0.3" stop-color="#D946EF"/>
<stop offset="0.5" stop-color="#A855F7"/>
<stop offset="0.7" stop-color="#3B82F6"/>
<stop offset="1" stop-color="#06B6D4"/>
</linearGradient>
<linearGradient id="paint63_linear_3_10" x1="4.50492e-05" y1="-3.68553e-05" x2="4.50492e-05" y2="1330" gradientUnits="userSpaceOnUse">
<stop stop-color="#F43F5E"/>
<stop offset="0.3" stop-color="#D946EF"/>
<stop offset="0.5" stop-color="#A855F7"/>
<stop offset="0.7" stop-color="#3B82F6"/>
<stop offset="1" stop-color="#06B6D4"/>
</linearGradient>
<linearGradient id="paint64_linear_3_10" x1="1.46836e-05" y1="1.34766e-05" x2="1.46836e-05" y2="1330" gradientUnits="userSpaceOnUse">
<stop stop-color="#F43F5E"/>
<stop offset="0.3" stop-color="#D946EF"/>
<stop offset="0.5" stop-color="#A855F7"/>
<stop offset="0.7" stop-color="#3B82F6"/>
<stop offset="1" stop-color="#06B6D4"/>
</linearGradient>
<linearGradient id="paint65_linear_3_10" x1="9.68575e-07" y1="1.34766e-05" x2="9.68576e-07" y2="1330" gradientUnits="userSpaceOnUse">
<stop stop-color="#F43F5E"/>
<stop offset="0.3" stop-color="#D946EF"/>
<stop offset="0.5" stop-color="#A855F7"/>
<stop offset="0.7" stop-color="#3B82F6"/>
<stop offset="1" stop-color="#06B6D4"/>
</linearGradient>
<linearGradient id="paint66_linear_3_10" x1="2.51889e-05" y1="2.09592e-06" x2="2.51889e-05" y2="1330" gradientUnits="userSpaceOnUse">
<stop stop-color="#F43F5E"/>
<stop offset="0.3" stop-color="#D946EF"/>
<stop offset="0.5" stop-color="#A855F7"/>
<stop offset="0.7" stop-color="#3B82F6"/>
<stop offset="1" stop-color="#06B6D4"/>
</linearGradient>
<linearGradient id="paint67_linear_3_10" x1="-1.08719e-05" y1="7.77822e-05" x2="-1.08719e-05" y2="1330" gradientUnits="userSpaceOnUse">
<stop stop-color="#F43F5E"/>
<stop offset="0.3" stop-color="#D946EF"/>
<stop offset="0.5" stop-color="#A855F7"/>
<stop offset="0.7" stop-color="#3B82F6"/>
<stop offset="1" stop-color="#06B6D4"/>
</linearGradient>
<linearGradient id="paint68_linear_3_10" x1="3.06765e-06" y1="1.11572e-06" x2="3.06765e-06" y2="1330" gradientUnits="userSpaceOnUse">
<stop stop-color="#F43F5E"/>
<stop offset="0.3" stop-color="#D946EF"/>
<stop offset="0.5" stop-color="#A855F7"/>
<stop offset="0.7" stop-color="#3B82F6"/>
<stop offset="1" stop-color="#06B6D4"/>
</linearGradient>
<linearGradient id="paint69_linear_3_10" x1="2.3364e-06" y1="-3.6334e-06" x2="2.3364e-06" y2="1330" gradientUnits="userSpaceOnUse">
<stop stop-color="#F43F5E"/>
<stop offset="0.3" stop-color="#D946EF"/>
<stop offset="0.5" stop-color="#A855F7"/>
<stop offset="0.7" stop-color="#3B82F6"/>
<stop offset="1" stop-color="#06B6D4"/>
</linearGradient>
<linearGradient id="paint70_linear_3_10" x1="9.37666e-06" y1="-2.97278e-06" x2="9.37666e-06" y2="1330" gradientUnits="userSpaceOnUse">
<stop stop-color="#F43F5E"/>
<stop offset="0.3" stop-color="#D946EF"/>
<stop offset="0.5" stop-color="#A855F7"/>
<stop offset="0.7" stop-color="#3B82F6"/>
<stop offset="1" stop-color="#06B6D4"/>
</linearGradient>
<linearGradient id="paint71_linear_3_10" x1="5.79919e-05" y1="-1.10103e-05" x2="5.79919e-05" y2="1330" gradientUnits="userSpaceOnUse">
<stop stop-color="#F43F5E"/>
<stop offset="0.3" stop-color="#D946EF"/>
<stop offset="0.5" stop-color="#A855F7"/>
<stop offset="0.7" stop-color="#3B82F6"/>
<stop offset="1" stop-color="#06B6D4"/>
</linearGradient>
<linearGradient id="paint72_linear_3_10" x1="0" y1="3.30309e-06" x2="0" y2="1330" gradientUnits="userSpaceOnUse">
<stop stop-color="#F43F5E"/>
<stop offset="0.3" stop-color="#D946EF"/>
<stop offset="0.5" stop-color="#A855F7"/>
<stop offset="0.7" stop-color="#3B82F6"/>
<stop offset="1" stop-color="#06B6D4"/>
</linearGradient>
<linearGradient id="paint73_linear_3_10" x1="1.45316e-05" y1="2.98418e-06" x2="1.45316e-05" y2="1330" gradientUnits="userSpaceOnUse">
<stop stop-color="#F43F5E"/>
<stop offset="0.3" stop-color="#D946EF"/>
<stop offset="0.5" stop-color="#A855F7"/>
<stop offset="0.7" stop-color="#3B82F6"/>
<stop offset="1" stop-color="#06B6D4"/>
</linearGradient>
<linearGradient id="paint74_linear_3_10" x1="-1.11323e-05" y1="-1.32124e-05" x2="-1.11323e-05" y2="1330" gradientUnits="userSpaceOnUse">
<stop stop-color="#F43F5E"/>
<stop offset="0.3" stop-color="#D946EF"/>
<stop offset="0.5" stop-color="#A855F7"/>
<stop offset="0.7" stop-color="#3B82F6"/>
<stop offset="1" stop-color="#06B6D4"/>
</linearGradient>
<linearGradient id="paint75_linear_3_10" x1="1.10351e-05" y1="-1.26118e-05" x2="1.10351e-05" y2="1330" gradientUnits="userSpaceOnUse">
<stop stop-color="#F43F5E"/>
<stop offset="0.3" stop-color="#D946EF"/>
<stop offset="0.5" stop-color="#A855F7"/>
<stop offset="0.7" stop-color="#3B82F6"/>
<stop offset="1" stop-color="#06B6D4"/>
</linearGradient>
<linearGradient id="paint76_linear_3_10" x1="-2.94412e-05" y1="0" x2="-2.94412e-05" y2="1330" gradientUnits="userSpaceOnUse">
<stop stop-color="#F43F5E"/>
<stop offset="0.3" stop-color="#D946EF"/>
<stop offset="0.5" stop-color="#A855F7"/>
<stop offset="0.7" stop-color="#3B82F6"/>
<stop offset="1" stop-color="#06B6D4"/>
</linearGradient>
<linearGradient id="paint77_linear_3_10" x1="-2.29306e-05" y1="0" x2="-2.29306e-05" y2="1330" gradientUnits="userSpaceOnUse">
<stop stop-color="#F43F5E"/>
<stop offset="0.3" stop-color="#D946EF"/>
<stop offset="0.5" stop-color="#A855F7"/>
<stop offset="0.7" stop-color="#3B82F6"/>
<stop offset="1" stop-color="#06B6D4"/>
</linearGradient>
<linearGradient id="paint78_linear_3_10" x1="1.07753e-05" y1="-3.43013e-06" x2="1.07753e-05" y2="1330" gradientUnits="userSpaceOnUse">
<stop stop-color="#F43F5E"/>
<stop offset="0.3" stop-color="#D946EF"/>
<stop offset="0.5" stop-color="#A855F7"/>
<stop offset="0.7" stop-color="#3B82F6"/>
<stop offset="1" stop-color="#06B6D4"/>
</linearGradient>
<linearGradient id="paint79_linear_3_10" x1="1.50074e-05" y1="-3.43013e-06" x2="1.50074e-05" y2="1330" gradientUnits="userSpaceOnUse">
<stop stop-color="#F43F5E"/>
<stop offset="0.3" stop-color="#D946EF"/>
<stop offset="0.5" stop-color="#A855F7"/>
<stop offset="0.7" stop-color="#3B82F6"/>
<stop offset="1" stop-color="#06B6D4"/>
</linearGradient>
<linearGradient id="paint80_linear_3_10" x1="-5.44798e-06" y1="-3.30309e-06" x2="-5.44798e-06" y2="1330" gradientUnits="userSpaceOnUse">
<stop stop-color="#F43F5E"/>
<stop offset="0.3" stop-color="#D946EF"/>
<stop offset="0.5" stop-color="#A855F7"/>
<stop offset="0.7" stop-color="#3B82F6"/>
<stop offset="1" stop-color="#06B6D4"/>
</linearGradient>
<linearGradient id="paint81_linear_3_10" x1="-3.27833e-05" y1="-3.30309e-06" x2="-3.27833e-05" y2="1330" gradientUnits="userSpaceOnUse">
<stop stop-color="#F43F5E"/>
<stop offset="0.3" stop-color="#D946EF"/>
<stop offset="0.5" stop-color="#A855F7"/>
<stop offset="0.7" stop-color="#3B82F6"/>
<stop offset="1" stop-color="#06B6D4"/>
</linearGradient>
<linearGradient id="paint82_linear_3_10" x1="2.67177e-06" y1="5.96835e-06" x2="2.67177e-06" y2="1330" gradientUnits="userSpaceOnUse">
<stop stop-color="#F43F5E"/>
<stop offset="0.3" stop-color="#D946EF"/>
<stop offset="0.5" stop-color="#A855F7"/>
<stop offset="0.7" stop-color="#3B82F6"/>
<stop offset="1" stop-color="#06B6D4"/>
</linearGradient>
<linearGradient id="paint83_linear_3_10" x1="3.27144e-05" y1="5.96835e-06" x2="3.27144e-05" y2="1330" gradientUnits="userSpaceOnUse">
<stop stop-color="#F43F5E"/>
<stop offset="0.3" stop-color="#D946EF"/>
<stop offset="0.5" stop-color="#A855F7"/>
<stop offset="0.7" stop-color="#3B82F6"/>
<stop offset="1" stop-color="#06B6D4"/>
</linearGradient>
<linearGradient id="paint84_linear_3_10" x1="-2.80952e-05" y1="1.48416e-06" x2="-2.80952e-05" y2="1330" gradientUnits="userSpaceOnUse">
<stop stop-color="#F43F5E"/>
<stop offset="0.3" stop-color="#D946EF"/>
<stop offset="0.5" stop-color="#A855F7"/>
<stop offset="0.7" stop-color="#3B82F6"/>
<stop offset="1" stop-color="#06B6D4"/>
</linearGradient>
<linearGradient id="paint85_linear_3_10" x1="-5.0052e-06" y1="1.48416e-06" x2="-5.0052e-06" y2="1330" gradientUnits="userSpaceOnUse">
<stop stop-color="#F43F5E"/>
<stop offset="0.3" stop-color="#D946EF"/>
<stop offset="0.5" stop-color="#A855F7"/>
<stop offset="0.7" stop-color="#3B82F6"/>
<stop offset="1" stop-color="#06B6D4"/>
</linearGradient>
<linearGradient id="paint86_linear_3_10" x1="-8.45643e-06" y1="1.21855e-05" x2="-8.45643e-06" y2="1330" gradientUnits="userSpaceOnUse">
<stop stop-color="#F43F5E"/>
<stop offset="0.3" stop-color="#D946EF"/>
<stop offset="0.5" stop-color="#A855F7"/>
<stop offset="0.7" stop-color="#3B82F6"/>
<stop offset="1" stop-color="#06B6D4"/>
</linearGradient>
<linearGradient id="paint87_linear_3_10" x1="-3.34749e-05" y1="1.21855e-05" x2="-3.34749e-05" y2="1330" gradientUnits="userSpaceOnUse">
<stop stop-color="#F43F5E"/>
<stop offset="0.3" stop-color="#D946EF"/>
<stop offset="0.5" stop-color="#A855F7"/>
<stop offset="0.7" stop-color="#3B82F6"/>
<stop offset="1" stop-color="#06B6D4"/>
</linearGradient>
<linearGradient id="paint88_linear_3_10" x1="1.94029e-05" y1="-3.96371e-06" x2="1.94029e-05" y2="1330" gradientUnits="userSpaceOnUse">
<stop stop-color="#F43F5E"/>
<stop offset="0.3" stop-color="#D946EF"/>
<stop offset="0.5" stop-color="#A855F7"/>
<stop offset="0.7" stop-color="#3B82F6"/>
<stop offset="1" stop-color="#06B6D4"/>
</linearGradient>
<linearGradient id="paint89_linear_3_10" x1="5.45611e-05" y1="-3.96371e-06" x2="5.45611e-05" y2="1330" gradientUnits="userSpaceOnUse">
<stop stop-color="#F43F5E"/>
<stop offset="0.3" stop-color="#D946EF"/>
<stop offset="0.5" stop-color="#A855F7"/>
<stop offset="0.7" stop-color="#3B82F6"/>
<stop offset="1" stop-color="#06B6D4"/>
</linearGradient>
<linearGradient id="paint90_linear_3_10" x1="-4.23582e-05" y1="-3.30309e-06" x2="-4.23582e-05" y2="1330" gradientUnits="userSpaceOnUse">
<stop stop-color="#F43F5E"/>
<stop offset="0.3" stop-color="#D946EF"/>
<stop offset="0.5" stop-color="#A855F7"/>
<stop offset="0.7" stop-color="#3B82F6"/>
<stop offset="1" stop-color="#06B6D4"/>
</linearGradient>
<linearGradient id="paint91_linear_3_10" x1="-8.14031e-05" y1="-3.30309e-06" x2="-8.14031e-05" y2="1330" gradientUnits="userSpaceOnUse">
<stop stop-color="#F43F5E"/>
<stop offset="0.3" stop-color="#D946EF"/>
<stop offset="0.5" stop-color="#A855F7"/>
<stop offset="0.7" stop-color="#3B82F6"/>
<stop offset="1" stop-color="#06B6D4"/>
</linearGradient>
<linearGradient id="paint92_linear_3_10" x1="-1.21646e-05" y1="-3.30309e-06" x2="-1.21646e-05" y2="1330" gradientUnits="userSpaceOnUse">
<stop stop-color="#F43F5E"/>
<stop offset="0.3" stop-color="#D946EF"/>
<stop offset="0.5" stop-color="#A855F7"/>
<stop offset="0.7" stop-color="#3B82F6"/>
<stop offset="1" stop-color="#06B6D4"/>
</linearGradient>
<linearGradient id="paint93_linear_3_10" x1="3.36117e-05" y1="-3.30309e-06" x2="3.36117e-05" y2="1330" gradientUnits="userSpaceOnUse">
<stop stop-color="#F43F5E"/>
<stop offset="0.3" stop-color="#D946EF"/>
<stop offset="0.5" stop-color="#A855F7"/>
<stop offset="0.7" stop-color="#3B82F6"/>
<stop offset="1" stop-color="#06B6D4"/>
</linearGradient>
<linearGradient id="paint94_linear_3_10" x1="-1.2845e-05" y1="-3.96371e-06" x2="-1.2845e-05" y2="1330" gradientUnits="userSpaceOnUse">
<stop stop-color="#F43F5E"/>
<stop offset="0.3" stop-color="#D946EF"/>
<stop offset="0.5" stop-color="#A855F7"/>
<stop offset="0.7" stop-color="#3B82F6"/>
<stop offset="1" stop-color="#06B6D4"/>
</linearGradient>
<linearGradient id="paint95_linear_3_10" x1="3.75328e-05" y1="-3.96371e-06" x2="3.75328e-05" y2="1330" gradientUnits="userSpaceOnUse">
<stop stop-color="#F43F5E"/>
<stop offset="0.3" stop-color="#D946EF"/>
<stop offset="0.5" stop-color="#A855F7"/>
<stop offset="0.7" stop-color="#3B82F6"/>
<stop offset="1" stop-color="#06B6D4"/>
</linearGradient>
<linearGradient id="paint96_linear_3_10" x1="-2.07197e-05" y1="-4.50421e-06" x2="-2.07197e-05" y2="1330" gradientUnits="userSpaceOnUse">
<stop stop-color="#F43F5E"/>
<stop offset="0.3" stop-color="#D946EF"/>
<stop offset="0.5" stop-color="#A855F7"/>
<stop offset="0.7" stop-color="#3B82F6"/>
<stop offset="1" stop-color="#06B6D4"/>
</linearGradient>
<linearGradient id="paint97_linear_3_10" x1="1.97281e-05" y1="-4.50421e-06" x2="1.97281e-05" y2="1330" gradientUnits="userSpaceOnUse">
<stop stop-color="#F43F5E"/>
<stop offset="0.3" stop-color="#D946EF"/>
<stop offset="0.5" stop-color="#A855F7"/>
<stop offset="0.7" stop-color="#3B82F6"/>
<stop offset="1" stop-color="#06B6D4"/>
</linearGradient>
<linearGradient id="paint98_linear_3_10" x1="476.75" y1="760" x2="476.75" y2="760" gradientUnits="userSpaceOnUse">
<stop stop-color="#F43F5E"/>
<stop offset="0.3" stop-color="#D946EF"/>
<stop offset="0.5" stop-color="#A855F7"/>
<stop offset="0.7" stop-color="#3B82F6"/>
<stop offset="1" stop-color="#06B6D4"/>
</linearGradient>
<linearGradient id="paint99_linear_3_10" x1="472.946" y1="770.016" x2="472.946" y2="770.016" gradientUnits="userSpaceOnUse">
<stop stop-color="#F43F5E"/>
<stop offset="0.3" stop-color="#D946EF"/>
<stop offset="0.5" stop-color="#A855F7"/>
<stop offset="0.7" stop-color="#3B82F6"/>
<stop offset="1" stop-color="#06B6D4"/>
</linearGradient>
<linearGradient id="paint100_linear_3_10" x1="480.562" y1="766.27" x2="480.562" y2="766.27" gradientUnits="userSpaceOnUse">
<stop stop-color="#F43F5E"/>
<stop offset="0.3" stop-color="#D946EF"/>
<stop offset="0.5" stop-color="#A855F7"/>
<stop offset="0.7" stop-color="#3B82F6"/>
<stop offset="1" stop-color="#06B6D4"/>
</linearGradient>
<linearGradient id="paint101_linear_3_10" x1="-1.08719e-05" y1="-1.8294e-05" x2="-1.08719e-05" y2="1330" gradientUnits="userSpaceOnUse">
<stop stop-color="#F43F5E"/>
<stop offset="0.3" stop-color="#D946EF"/>
<stop offset="0.5" stop-color="#A855F7"/>
<stop offset="0.7" stop-color="#3B82F6"/>
<stop offset="1" stop-color="#06B6D4"/>
</linearGradient>
<linearGradient id="paint102_linear_3_10" x1="1.76124e-05" y1="3.96371e-05" x2="1.76124e-05" y2="1330" gradientUnits="userSpaceOnUse">
<stop stop-color="#F43F5E"/>
<stop offset="0.3" stop-color="#D946EF"/>
<stop offset="0.5" stop-color="#A855F7"/>
<stop offset="0.7" stop-color="#3B82F6"/>
<stop offset="1" stop-color="#06B6D4"/>
</linearGradient>
<linearGradient id="paint103_linear_3_10" x1="-3.0618e-07" y1="2.97278e-05" x2="-3.0618e-07" y2="1330" gradientUnits="userSpaceOnUse">
<stop stop-color="#F43F5E"/>
<stop offset="0.3" stop-color="#D946EF"/>
<stop offset="0.5" stop-color="#A855F7"/>
<stop offset="0.7" stop-color="#3B82F6"/>
<stop offset="1" stop-color="#06B6D4"/>
</linearGradient>
<linearGradient id="paint104_linear_3_10" x1="5.8871e-06" y1="2.93417e-05" x2="5.8871e-06" y2="1330" gradientUnits="userSpaceOnUse">
<stop stop-color="#F43F5E"/>
<stop offset="0.3" stop-color="#D946EF"/>
<stop offset="0.5" stop-color="#A855F7"/>
<stop offset="0.7" stop-color="#3B82F6"/>
<stop offset="1" stop-color="#06B6D4"/>
</linearGradient>
<linearGradient id="paint105_linear_3_10" x1="4.5675e-05" y1="6.60618e-06" x2="4.5675e-05" y2="1330" gradientUnits="userSpaceOnUse">
<stop stop-color="#F43F5E"/>
<stop offset="0.3" stop-color="#D946EF"/>
<stop offset="0.5" stop-color="#A855F7"/>
<stop offset="0.7" stop-color="#3B82F6"/>
<stop offset="1" stop-color="#06B6D4"/>
</linearGradient>
<linearGradient id="paint106_linear_3_10" x1="6.01308e-06" y1="-1.84973e-05" x2="6.01308e-06" y2="1330" gradientUnits="userSpaceOnUse">
<stop stop-color="#F43F5E"/>
<stop offset="0.3" stop-color="#D946EF"/>
<stop offset="0.5" stop-color="#A855F7"/>
<stop offset="0.7" stop-color="#3B82F6"/>
<stop offset="1" stop-color="#06B6D4"/>
</linearGradient>
<linearGradient id="paint107_linear_3_10" x1="8.39631e-06" y1="0" x2="8.39631e-06" y2="1330" gradientUnits="userSpaceOnUse">
<stop stop-color="#F43F5E"/>
<stop offset="0.3" stop-color="#D946EF"/>
<stop offset="0.5" stop-color="#A855F7"/>
<stop offset="0.7" stop-color="#3B82F6"/>
<stop offset="1" stop-color="#06B6D4"/>
</linearGradient>
<linearGradient id="paint108_linear_3_10" x1="-1.29581e-05" y1="2.50339e-05" x2="-1.29581e-05" y2="1330" gradientUnits="userSpaceOnUse">
<stop stop-color="#F43F5E"/>
<stop offset="0.3" stop-color="#D946EF"/>
<stop offset="0.5" stop-color="#A855F7"/>
<stop offset="0.7" stop-color="#3B82F6"/>
<stop offset="1" stop-color="#06B6D4"/>
</linearGradient>
<linearGradient id="paint109_linear_3_10" x1="2.81155e-05" y1="5.11446e-06" x2="2.81155e-05" y2="1330" gradientUnits="userSpaceOnUse">
<stop stop-color="#F43F5E"/>
<stop offset="0.3" stop-color="#D946EF"/>
<stop offset="0.5" stop-color="#A855F7"/>
<stop offset="0.7" stop-color="#3B82F6"/>
<stop offset="1" stop-color="#06B6D4"/>
</linearGradient>
<linearGradient id="paint110_linear_3_10" x1="1.45316e-05" y1="3.71598e-06" x2="1.45316e-05" y2="1330" gradientUnits="userSpaceOnUse">
<stop stop-color="#F43F5E"/>
<stop offset="0.3" stop-color="#D946EF"/>
<stop offset="0.5" stop-color="#A855F7"/>
<stop offset="0.7" stop-color="#3B82F6"/>
<stop offset="1" stop-color="#06B6D4"/>
</linearGradient>
<linearGradient id="paint111_linear_3_10" x1="-4.71994e-05" y1="1.1658e-06" x2="-4.71994e-05" y2="1330" gradientUnits="userSpaceOnUse">
<stop stop-color="#F43F5E"/>
<stop offset="0.3" stop-color="#D946EF"/>
<stop offset="0.5" stop-color="#A855F7"/>
<stop offset="0.7" stop-color="#3B82F6"/>
<stop offset="1" stop-color="#06B6D4"/>
</linearGradient>
<linearGradient id="paint112_linear_3_10" x1="8.98838e-06" y1="-1.8294e-05" x2="8.98838e-06" y2="1330" gradientUnits="userSpaceOnUse">
<stop stop-color="#F43F5E"/>
<stop offset="0.3" stop-color="#D946EF"/>
<stop offset="0.5" stop-color="#A855F7"/>
<stop offset="0.7" stop-color="#3B82F6"/>
<stop offset="1" stop-color="#06B6D4"/>
</linearGradient>
<linearGradient id="paint113_linear_3_10" x1="2.72384e-05" y1="3.96371e-05" x2="2.72384e-05" y2="1330" gradientUnits="userSpaceOnUse">
<stop stop-color="#F43F5E"/>
<stop offset="0.3" stop-color="#D946EF"/>
<stop offset="0.5" stop-color="#A855F7"/>
<stop offset="0.7" stop-color="#3B82F6"/>
<stop offset="1" stop-color="#06B6D4"/>
</linearGradient>
<linearGradient id="paint114_linear_3_10" x1="1.95541e-05" y1="2.97278e-05" x2="1.95541e-05" y2="1330" gradientUnits="userSpaceOnUse">
<stop stop-color="#F43F5E"/>
<stop offset="0.3" stop-color="#D946EF"/>
<stop offset="0.5" stop-color="#A855F7"/>
<stop offset="0.7" stop-color="#3B82F6"/>
<stop offset="1" stop-color="#06B6D4"/>
</linearGradient>
<linearGradient id="paint115_linear_3_10" x1="1.96741e-05" y1="2.93417e-05" x2="1.96741e-05" y2="1330" gradientUnits="userSpaceOnUse">
<stop stop-color="#F43F5E"/>
<stop offset="0.3" stop-color="#D946EF"/>
<stop offset="0.5" stop-color="#A855F7"/>
<stop offset="0.7" stop-color="#3B82F6"/>
<stop offset="1" stop-color="#06B6D4"/>
</linearGradient>
<linearGradient id="paint116_linear_3_10" x1="3.04162e-05" y1="6.60618e-06" x2="3.04162e-05" y2="1330" gradientUnits="userSpaceOnUse">
<stop stop-color="#F43F5E"/>
<stop offset="0.3" stop-color="#D946EF"/>
<stop offset="0.5" stop-color="#A855F7"/>
<stop offset="0.7" stop-color="#3B82F6"/>
<stop offset="1" stop-color="#06B6D4"/>
</linearGradient>
<linearGradient id="paint117_linear_3_10" x1="2.86049e-05" y1="-1.84973e-05" x2="2.86049e-05" y2="1330" gradientUnits="userSpaceOnUse">
<stop stop-color="#F43F5E"/>
<stop offset="0.3" stop-color="#D946EF"/>
<stop offset="0.5" stop-color="#A855F7"/>
<stop offset="0.7" stop-color="#3B82F6"/>
<stop offset="1" stop-color="#06B6D4"/>
</linearGradient>
<linearGradient id="paint118_linear_3_10" x1="3.06765e-06" y1="0" x2="3.06765e-06" y2="1330" gradientUnits="userSpaceOnUse">
<stop stop-color="#F43F5E"/>
<stop offset="0.3" stop-color="#D946EF"/>
<stop offset="0.5" stop-color="#A855F7"/>
<stop offset="0.7" stop-color="#3B82F6"/>
<stop offset="1" stop-color="#06B6D4"/>
</linearGradient>
<linearGradient id="paint119_linear_3_10" x1="4.61472e-06" y1="2.50339e-05" x2="4.61472e-06" y2="1330" gradientUnits="userSpaceOnUse">
<stop stop-color="#F43F5E"/>
<stop offset="0.3" stop-color="#D946EF"/>
<stop offset="0.5" stop-color="#A855F7"/>
<stop offset="0.7" stop-color="#3B82F6"/>
<stop offset="1" stop-color="#06B6D4"/>
</linearGradient>
<linearGradient id="paint120_linear_3_10" x1="3.04162e-05" y1="5.11446e-06" x2="3.04162e-05" y2="1330" gradientUnits="userSpaceOnUse">
<stop stop-color="#F43F5E"/>
<stop offset="0.3" stop-color="#D946EF"/>
<stop offset="0.5" stop-color="#A855F7"/>
<stop offset="0.7" stop-color="#3B82F6"/>
<stop offset="1" stop-color="#06B6D4"/>
</linearGradient>
<linearGradient id="paint121_linear_3_10" x1="4.50492e-05" y1="3.71598e-06" x2="4.50492e-05" y2="1330" gradientUnits="userSpaceOnUse">
<stop stop-color="#F43F5E"/>
<stop offset="0.3" stop-color="#D946EF"/>
<stop offset="0.5" stop-color="#A855F7"/>
<stop offset="0.7" stop-color="#3B82F6"/>
<stop offset="1" stop-color="#06B6D4"/>
</linearGradient>
<linearGradient id="paint122_linear_3_10" x1="-1.17168e-05" y1="1.1658e-06" x2="-1.17168e-05" y2="1330" gradientUnits="userSpaceOnUse">
<stop stop-color="#F43F5E"/>
<stop offset="0.3" stop-color="#D946EF"/>
<stop offset="0.5" stop-color="#A855F7"/>
<stop offset="0.7" stop-color="#3B82F6"/>
<stop offset="1" stop-color="#06B6D4"/>
</linearGradient>
<linearGradient id="paint123_linear_3_10" x1="-8.72887e-06" y1="6.1933e-06" x2="-8.72887e-06" y2="1330" gradientUnits="userSpaceOnUse">
<stop stop-color="#F43F5E"/>
<stop offset="0.3" stop-color="#D946EF"/>
<stop offset="0.5" stop-color="#A855F7"/>
<stop offset="0.7" stop-color="#3B82F6"/>
<stop offset="1" stop-color="#06B6D4"/>
</linearGradient>
<linearGradient id="paint124_linear_3_10" x1="1.02515e-05" y1="6.1933e-06" x2="1.02515e-05" y2="1330" gradientUnits="userSpaceOnUse">
<stop stop-color="#F43F5E"/>
<stop offset="0.3" stop-color="#D946EF"/>
<stop offset="0.5" stop-color="#A855F7"/>
<stop offset="0.7" stop-color="#3B82F6"/>
<stop offset="1" stop-color="#06B6D4"/>
</linearGradient>
<linearGradient id="paint125_linear_3_10" x1="4.02338e-05" y1="7.92742e-06" x2="4.02338e-05" y2="1330" gradientUnits="userSpaceOnUse">
<stop stop-color="#F43F5E"/>
<stop offset="0.3" stop-color="#D946EF"/>
<stop offset="0.5" stop-color="#A855F7"/>
<stop offset="0.7" stop-color="#3B82F6"/>
<stop offset="1" stop-color="#06B6D4"/>
</linearGradient>
<linearGradient id="paint126_linear_3_10" x1="4.04477e-05" y1="7.92742e-06" x2="4.04477e-05" y2="1330" gradientUnits="userSpaceOnUse">
<stop stop-color="#F43F5E"/>
<stop offset="0.3" stop-color="#D946EF"/>
<stop offset="0.5" stop-color="#A855F7"/>
<stop offset="0.7" stop-color="#3B82F6"/>
<stop offset="1" stop-color="#06B6D4"/>
</linearGradient>
<linearGradient id="paint127_linear_3_10" x1="2.91563e-05" y1="1.98185e-05" x2="2.91563e-05" y2="1330" gradientUnits="userSpaceOnUse">
<stop stop-color="#F43F5E"/>
<stop offset="0.3" stop-color="#D946EF"/>
<stop offset="0.5" stop-color="#A855F7"/>
<stop offset="0.7" stop-color="#3B82F6"/>
<stop offset="1" stop-color="#06B6D4"/>
</linearGradient>
<linearGradient id="paint128_linear_3_10" x1="5.27019e-05" y1="1.98185e-05" x2="5.27019e-05" y2="1330" gradientUnits="userSpaceOnUse">
<stop stop-color="#F43F5E"/>
<stop offset="0.3" stop-color="#D946EF"/>
<stop offset="0.5" stop-color="#A855F7"/>
<stop offset="0.7" stop-color="#3B82F6"/>
<stop offset="1" stop-color="#06B6D4"/>
</linearGradient>
<linearGradient id="paint129_linear_3_10" x1="5.27799e-06" y1="1.48639e-05" x2="5.27799e-06" y2="1330" gradientUnits="userSpaceOnUse">
<stop stop-color="#F43F5E"/>
<stop offset="0.3" stop-color="#D946EF"/>
<stop offset="0.5" stop-color="#A855F7"/>
<stop offset="0.7" stop-color="#3B82F6"/>
<stop offset="1" stop-color="#06B6D4"/>
</linearGradient>
<linearGradient id="paint130_linear_3_10" x1="5.0953e-05" y1="1.48639e-05" x2="5.0953e-05" y2="1330" gradientUnits="userSpaceOnUse">
<stop stop-color="#F43F5E"/>
<stop offset="0.3" stop-color="#D946EF"/>
<stop offset="0.5" stop-color="#A855F7"/>
<stop offset="0.7" stop-color="#3B82F6"/>
<stop offset="1" stop-color="#06B6D4"/>
</linearGradient>
<clipPath id="clip0_3_10">
<rect width="952" height="1330" fill="white"/>
</clipPath>
</defs>
</svg>
