<svg viewBox="0 0 330 350" fill="none" xmlns="http://www.w3.org/2000/svg">
  <g id="logo_1">
<defs>
  <linearGradient id="ldsChaos" x1="0" y1="0" x2="165" y2="350" gradientUnits="userSpaceOnUse">
    <stop offset="0" stop-color="#f0abfc"/>
    <stop offset="0.55" stop-color="#c084fc"/>
    <stop offset="1" stop-color="#6d28d9"/>
  </linearGradient>
  <linearGradient id="ldsStructure" x1="165" y1="0" x2="330" y2="350" gradientUnits="userSpaceOnUse">
    <stop offset="0" stop-color="#7dd3fc"/>
    <stop offset="0.45" stop-color="#38bdf8"/>
    <stop offset="1" stop-color="#06b6d4"/>
  </linearGradient>
</defs>
    <g id="rechterhelft_1">
      <path id="Vector" d="M225.25 17.29C216.48 17.14 215.64 30.97 224.13 32.14C234.57 33.8 235.51 17.29 225.48 17.29H225.25Z" fill="url(#ldsStructure)"/>
      <path id="Vector_2" d="M225.11 17.83C221.06 17.83 219 21.01 218.75 24.2C218.51 27.38 220.11 31.06 224.2 31.62C226.89 32.04 229.14 31.2 230.56 29.26C232.2 27.01 232.44 23.68 231.16 21.15C230.07 19.01 228.06 17.83 225.49 17.83H225.12M225.56 32.79C225.07 32.79 224.56 32.75 224.05 32.67C219.29 32.02 217.42 27.78 217.7 24.12C217.97 20.56 220.41 16.77 225.12 16.77H225.49C228.48 16.77 230.83 18.15 232.11 20.67C233.57 23.53 233.29 27.32 231.43 29.89C230.05 31.8 228 32.8 225.57 32.8M180.69 3.07C171.92 2.92 171.08 16.75 179.57 17.92C190.01 19.58 190.95 3.07 180.92 3.07H180.69Z" fill="url(#ldsStructure)"/>
      <path id="Vector_3" d="M180.55 3.61C176.5 3.61 174.44 6.79 174.19 9.98C173.95 13.16 175.55 16.84 179.64 17.4C182.33 17.82 184.59 16.98 186 15.04C187.64 12.79 187.88 9.45 186.6 6.93C185.51 4.79 183.5 3.61 180.93 3.61H180.56M181 18.57C180.51 18.57 180.01 18.53 179.49 18.45C174.73 17.8 172.86 13.56 173.14 9.9C173.41 6.34 175.85 2.55 180.56 2.55H180.93C183.91 2.55 186.27 3.93 187.55 6.45C189.01 9.31 188.73 13.1 186.87 15.67C185.49 17.58 183.44 18.58 181.01 18.58M256.54 38.15C247.77 38 246.93 51.83 255.42 53C265.86 54.66 266.8 38.15 256.77 38.15H256.54Z" fill="url(#ldsStructure)"/>
      <path id="Vector_4" d="M256.4 38.68C252.35 38.68 250.29 41.86 250.04 45.05C249.8 48.23 251.4 51.91 255.49 52.47C258.18 52.89 260.44 52.05 261.85 50.11C263.49 47.86 263.73 44.52 262.45 42C261.36 39.86 259.35 38.68 256.78 38.68H256.41M256.85 53.65C256.36 53.65 255.86 53.61 255.34 53.53C250.58 52.88 248.71 48.64 248.99 44.98C249.26 41.42 251.7 37.63 256.41 37.63H256.78C259.76 37.63 262.12 39.01 263.4 41.53C264.86 44.39 264.58 48.18 262.72 50.75C261.34 52.66 259.29 53.66 256.86 53.66M264.36 61.38C255.59 61.23 254.75 75.06 263.24 76.23C273.68 77.89 274.62 61.38 264.59 61.38H264.36Z" fill="url(#ldsStructure)"/>
      <path id="Vector_5" d="M264.22 61.91C260.17 61.91 258.11 65.09 257.86 68.28C257.62 71.46 259.22 75.14 263.31 75.7C266 76.12 268.26 75.28 269.67 73.34C271.31 71.09 271.55 67.75 270.27 65.23C269.18 63.09 267.17 61.91 264.6 61.91H264.23M264.67 76.87C264.18 76.87 263.68 76.83 263.16 76.75C258.4 76.1 256.53 71.86 256.81 68.2C257.08 64.64 259.52 60.85 264.23 60.85H264.6C267.58 60.85 269.94 62.23 271.22 64.75C272.68 67.61 272.4 71.4 270.54 73.97C269.16 75.88 267.11 76.88 264.68 76.88M290.67 70.39C281.9 70.24 281.06 84.07 289.55 85.24C299.99 86.9 300.93 70.39 290.9 70.39H290.67Z" fill="url(#ldsStructure)"/>
      <path id="Vector_6" d="M290.53 70.92C286.48 70.92 284.42 74.1 284.17 77.29C283.93 80.47 285.53 84.15 289.62 84.71C292.3 85.13 294.57 84.29 295.98 82.35C297.62 80.1 297.86 76.77 296.58 74.24C295.49 72.1 293.48 70.92 290.91 70.92H290.54M290.98 85.88C290.49 85.88 289.99 85.84 289.47 85.76C284.71 85.11 282.84 80.87 283.12 77.21C283.39 73.65 285.83 69.86 290.54 69.86H290.91C293.9 69.86 296.25 71.24 297.53 73.76C298.99 76.62 298.71 80.41 296.85 82.98C295.47 84.89 293.42 85.89 290.99 85.89M302.09 147.57C301.04 147.6 299.99 148.01 299.27 148.78C298.44 149.53 298.27 151.1 297.8 151.05C297.47 150.99 297.27 150.76 297.01 150.54C294.86 148.45 291.27 148.02 288.48 149.18C279.93 153.16 284.46 167.58 294.53 164.11C297.68 163.02 299.42 159.83 299.43 156.64C299.44 156.1 299.48 155.7 299.67 155.58C299.84 155.46 300.13 155.54 300.55 155.68C306.79 157.91 308.65 147.99 302.3 147.57H302.08H302.09Z" fill="url(#ldsStructure)"/>
      <path id="Vector_7" d="M291.71 149.08C290.69 149.08 289.65 149.27 288.69 149.67C284.53 151.61 283.75 156.11 285.14 159.56C286.32 162.48 289.44 165.3 294.36 163.61C297.48 162.53 298.89 159.33 298.9 156.64C298.92 156.06 298.93 155.43 299.38 155.14C299.77 154.86 300.27 155.03 300.72 155.18C302.27 155.73 303.64 155.5 304.6 154.53C305.64 153.47 306 151.67 305.46 150.26C304.97 148.98 303.84 148.22 302.27 148.11H302.09C301.14 148.13 300.25 148.52 299.65 149.15C299.29 149.48 299.07 149.99 298.88 150.44C298.63 151.04 298.35 151.65 297.74 151.59C297.28 151.5 297.02 151.27 296.79 151.06L296.67 150.95C295.42 149.74 293.58 149.09 291.71 149.09M291.54 165.17C287.92 165.17 285.3 162.8 284.15 159.95C282.61 156.13 283.52 150.89 288.26 148.68C291.42 147.37 295.16 147.97 297.39 150.14L297.51 150.25C297.59 150.33 297.66 150.39 297.72 150.43C297.78 150.31 297.85 150.14 297.91 150.01C298.13 149.49 298.41 148.84 298.91 148.38C299.67 147.56 300.84 147.06 302.07 147.03H302.3C304.31 147.16 305.82 148.19 306.45 149.86C307.14 151.67 306.69 153.89 305.36 155.25C304.63 156 303.01 157.11 300.37 156.17C300.31 156.15 300.13 156.09 300.01 156.06C299.98 156.24 299.97 156.53 299.97 156.64C299.95 160.32 297.84 163.52 294.71 164.6C293.58 164.99 292.52 165.16 291.54 165.16M313.82 167.03C302.89 166.98 295.51 179.26 300.8 188.88C306.52 199.99 322.98 199.09 327.75 187.64C332.16 178.16 324.32 166.83 314.03 167.03H313.82Z" fill="url(#ldsStructure)"/>
      <path id="Vector_8" d="M313.77 167.57C308.82 167.57 304.3 170.21 301.67 174.65C299.05 179.07 298.9 184.3 301.28 188.63C303.8 193.53 308.85 196.43 314.48 196.2C320.21 195.97 325.11 192.61 327.27 187.44C329.22 183.25 328.78 178.32 326.11 174.21C323.34 169.96 318.84 167.46 314.05 167.57H313.77ZM313.86 197.28C308.08 197.28 302.95 194.2 300.33 189.13C297.77 184.48 297.93 178.86 300.75 174.11C303.58 169.34 308.44 166.51 313.76 166.51H314.03C319.17 166.4 324.02 169.07 327 173.64C329.87 178.05 330.34 183.37 328.24 187.88C325.93 193.42 320.67 197.03 314.51 197.28C314.29 197.28 314.07 197.29 313.85 197.29M306.58 220.11C301.07 220.35 297.91 227.46 301.2 231.91C303.93 236.1 310.11 236.05 312.76 231.79C316.03 227.14 312.47 219.87 306.7 220.11H306.58Z" fill="url(#ldsStructure)"/>
      <path id="Vector_9" d="M306.97 220.63H306.6C304.29 220.74 302.25 222.18 301.14 224.5C299.99 226.91 300.17 229.63 301.62 231.59C302.82 233.44 304.82 234.51 307 234.49C308.063 234.481 309.107 234.203 310.033 233.682C310.96 233.161 311.74 232.414 312.3 231.51C313.76 229.44 313.84 226.56 312.53 224.15C311.32 221.94 309.25 220.63 306.97 220.63ZM306.94 235.55C304.43 235.55 302.12 234.3 300.75 232.2C299.08 229.94 298.86 226.81 300.18 224.04C301.46 221.36 303.84 219.69 306.56 219.57H306.67C309.47 219.45 312.02 220.97 313.47 223.63C315 226.43 314.9 229.67 313.19 232.09C312.537 233.14 311.628 234.008 310.549 234.613C309.471 235.218 308.257 235.54 307.02 235.55H306.94ZM256.54 210.7C247.77 210.55 246.93 224.38 255.42 225.55C265.86 227.21 266.8 210.7 256.77 210.7H256.54Z" fill="url(#ldsStructure)"/>
      <path id="Vector_10" d="M256.4 211.23C252.35 211.23 250.29 214.41 250.04 217.6C249.8 220.78 251.4 224.46 255.49 225.02C258.17 225.44 260.44 224.6 261.85 222.66C263.49 220.41 263.73 217.08 262.45 214.55C261.36 212.41 259.35 211.23 256.78 211.23H256.41M256.85 226.19C256.36 226.19 255.86 226.15 255.34 226.07C250.58 225.42 248.71 221.18 248.99 217.52C249.26 213.93 251.76 210.08 256.55 210.17H256.78C259.77 210.17 262.12 211.55 263.4 214.07C264.86 216.93 264.58 220.72 262.72 223.29C261.34 225.2 259.29 226.2 256.86 226.2M278.58 219.23C269.81 219.08 268.97 232.91 277.46 234.08C287.9 235.74 288.84 219.23 278.81 219.23H278.58Z" fill="url(#ldsStructure)"/>
      <path id="Vector_11" d="M278.44 219.77C274.39 219.77 272.33 222.95 272.08 226.14C271.84 229.32 273.44 233 277.53 233.56C280.22 233.98 282.48 233.14 283.89 231.2C285.53 228.95 285.77 225.61 284.49 223.09C283.4 220.95 281.39 219.77 278.82 219.77H278.45M278.89 234.73C278.4 234.73 277.9 234.69 277.38 234.61C272.62 233.96 270.75 229.72 271.03 226.06C271.3 222.5 273.74 218.71 278.45 218.71H278.82C281.8 218.71 284.16 220.09 285.44 222.61C286.9 225.47 286.62 229.26 284.76 231.83C283.38 233.74 281.33 234.74 278.9 234.74M291.55 238.09C286.9 238.34 283.61 243.96 285.43 248.29C286.89 252.52 292.38 254.53 295.97 251.69C301.72 247.65 298.9 237.87 291.75 238.08H291.56L291.55 238.09Z" fill="url(#ldsStructure)"/>
      <path id="Vector_12" d="M291.97 238.61H291.58C289.64 238.73 287.78 239.91 286.61 241.78C285.36 243.78 285.11 246.13 285.92 248.08C286.61 250.07 288.25 251.6 290.33 252.21C292.24 252.77 294.17 252.42 295.63 251.26C298.52 249.23 298.96 245.76 298.12 243.22C297.37 240.96 295.37 238.59 291.97 238.59M292.13 253.55C291.44 253.55 290.74 253.45 290.04 253.25C287.63 252.54 285.72 250.76 284.93 248.47C283.99 246.24 284.27 243.52 285.71 241.23C287.07 239.06 289.24 237.69 291.53 237.56H291.72C295.11 237.45 298.02 239.55 299.13 242.9C300.1 245.81 299.59 249.79 296.27 252.13C295.087 253.058 293.624 253.559 292.12 253.55M288.62 269.42C279.36 270.26 279.67 284.04 289.02 284.37C298.41 283.83 298.28 269.79 288.81 269.41H288.62V269.42Z" fill="url(#ldsStructure)"/>
      <path id="Vector_13" d="M288.65 269.95C284.21 270.36 282.28 273.94 282.37 277.09C282.46 280.33 284.56 283.68 289.04 283.84C293.47 283.59 295.48 280.04 295.45 276.86C295.42 273.65 293.32 270.12 288.78 269.94H288.65V269.95ZM289.05 284.9C283.86 284.72 281.41 280.73 281.3 277.11C281.2 273.47 283.43 269.35 288.57 268.88H288.79C294.07 269.08 296.48 273.15 296.52 276.85C296.55 280.52 294.23 284.6 289.05 284.9ZM264.1 284.8C255.62 284.76 249.76 293.73 253.31 301.62C257.49 311.61 270.44 312.19 274.98 302.15C278.32 294.73 272.48 284.8 264.22 284.8H264.1Z" fill="url(#ldsStructure)"/>
      <path id="Vector_14" d="M264.05 285.33C260.27 285.33 256.76 287.26 254.66 290.5C253.61 292.099 252.979 293.937 252.827 295.844C252.675 297.751 253.006 299.665 253.79 301.41C255.7 305.95 259.69 308.81 264.22 308.87H264.38C268.75 308.87 272.53 306.29 274.5 301.93C276.04 298.51 275.59 294.19 273.31 290.67C271.15 287.33 267.76 285.34 264.22 285.33H264.05ZM264.37 309.93H264.19C259.24 309.86 254.87 306.75 252.8 301.82C251.07 297.95 251.42 293.5 253.75 289.9C256.05 286.36 259.89 284.25 264.04 284.25H264.22C268.11 284.25 271.84 286.44 274.19 290.08C276.66 293.9 277.14 298.61 275.45 302.36C273.3 307.11 269.17 309.93 264.36 309.93M230.94 277.36C221.79 277.06 219.18 290.46 226.78 294.5C240.55 300.71 245.49 278.15 231.17 277.36H230.94Z" fill="url(#ldsStructure)"/>
      <path id="Vector_15" d="M230.63 277.89C226.35 277.89 223.99 281.03 223.19 284.01C222.3 287.38 223.11 291.95 227.02 294.03C230.62 295.65 233.94 295.33 236.34 293.11C238.96 290.69 239.96 286.45 238.73 283.03C237.61 279.92 234.91 278.1 231.13 277.89H230.62M231.36 296.12C229.98 296.12 228.38 295.81 226.55 294.98C222.09 292.62 221.15 287.5 222.15 283.74C223.3 279.41 226.76 276.69 230.94 276.83H231.16C235.36 277.06 238.47 279.19 239.73 282.67C241.1 286.48 239.98 291.2 237.07 293.89C235.521 295.335 233.478 296.133 231.36 296.12ZM232.84 226.82C224.07 226.67 223.23 240.5 231.72 241.67C242.16 243.33 243.1 226.82 233.07 226.82H232.84Z" fill="url(#ldsStructure)"/>
      <path id="Vector_16" d="M232.7 227.35C228.65 227.35 226.59 230.53 226.34 233.72C226.1 236.9 227.7 240.58 231.79 241.14C234.47 241.56 236.73 240.72 238.15 238.78C239.79 236.53 240.03 233.2 238.75 230.67C237.66 228.53 235.65 227.35 233.08 227.35H232.71M233.15 242.31C232.66 242.31 232.16 242.27 231.64 242.19C226.88 241.54 225.01 237.3 225.28 233.64C225.56 230.08 227.99 226.29 232.7 226.29H233.07C236.06 226.29 238.41 227.67 239.69 230.19C241.15 233.05 240.87 236.84 239.01 239.41C237.63 241.32 235.58 242.32 233.15 242.32M257.84 238.32C246.53 238.77 245.23 254.24 255.55 257.8C260.71 259.61 266.87 255.37 267.44 249.86C268.22 244.32 263.79 238.31 258.04 238.33H257.84V238.32Z" fill="url(#ldsStructure)"/>
      <path id="Vector_17" d="M257.85 238.85C252.24 239.08 249.67 243.12 249.17 246.51C248.6 250.42 250.4 255.45 255.72 257.29C257.92 258.06 260.46 257.69 262.68 256.28C265.06 254.77 266.64 252.35 266.91 249.8C267.29 247.08 266.37 244.15 264.45 241.94C262.71 239.94 260.46 238.87 258.05 238.85H257.86H257.85ZM258.07 258.75C257.14 258.75 256.23 258.6 255.37 258.3C249.47 256.27 247.48 250.69 248.11 246.36C248.84 241.36 252.65 237.99 257.81 237.79H258.06C260.75 237.79 263.3 239.01 265.24 241.24C267.37 243.68 268.38 246.93 267.96 249.93C267.66 252.78 265.9 255.5 263.25 257.18C261.61 258.22 259.82 258.75 258.07 258.75ZM230.94 314.93C218.48 314.58 214.99 332.47 225.21 338.08C243.86 346.61 250.64 315.95 231.17 314.93H230.93H230.94Z" fill="url(#ldsStructure)"/>
      <path id="Vector_18" d="M230.57 315.46C224.63 315.46 221.34 319.74 220.23 323.81C218.99 328.39 220.09 334.67 225.47 337.62C230.42 339.89 235 339.46 238.33 336.4C241.94 333.08 243.33 327.26 241.63 322.55C240.09 318.26 236.37 315.75 231.15 315.47H230.57M231.47 340.12C229.61 340.12 227.45 339.69 224.98 338.57C219.07 335.33 217.84 328.5 219.2 323.53C220.43 319 224.19 314.21 230.94 314.4H231.17C238.86 314.81 241.65 319.45 242.63 322.18C244.46 327.27 242.96 333.58 239.05 337.18C237.64 338.47 235.13 340.12 231.48 340.12M202.5 289.04C191.64 288.74 188.63 304.43 197.64 309.23C213.86 316.44 219.54 289.91 202.74 289.04H202.5Z" fill="url(#ldsStructure)"/>
      <path id="Vector_19" d="M202.18 289.57C197.02 289.57 194.19 293.31 193.25 296.86C192.2 300.84 193.2 306.27 197.88 308.76C202.16 310.67 206.1 310.26 208.94 307.61C212.03 304.73 213.19 299.7 211.72 295.65C210.38 291.96 207.18 289.81 202.7 289.58H202.18M202.98 311.01C201.38 311.01 199.53 310.65 197.42 309.71C192.19 306.93 191.07 300.96 192.22 296.58C193.55 291.54 197.57 288.38 202.5 288.5H202.73C209.41 288.85 211.86 292.89 212.73 295.27C214.35 299.7 213.06 305.21 209.68 308.37C207.868 310.075 205.468 311.017 202.98 311M216.72 169.34C206.51 169.04 201.58 180.92 206.19 188.96C208.28 192.92 212.81 195.18 217.34 194.92C233.69 194.32 232.61 169.1 216.95 169.33H216.71L216.72 169.34Z" fill="url(#ldsStructure)"/>
      <path id="Vector_20" d="M216.35 169.87C212.4 169.87 208.96 171.84 206.88 175.32C204.42 179.42 204.33 184.67 206.64 188.71C208.57 192.38 212.86 194.67 217.3 194.41C225.29 194.12 228.75 187.72 228.61 181.9C228.46 176.09 224.81 169.88 217.16 169.88H216.34M216.63 195.49C212.05 195.49 207.72 193.03 205.72 189.22C203.23 184.87 203.33 179.2 205.98 174.78C208.33 170.86 212.23 168.68 216.73 168.82H217.18C225.17 168.82 229.52 175.36 229.69 181.88C229.85 188.21 226.06 195.17 217.37 195.48C217.13 195.5 216.88 195.5 216.64 195.5M253.69 146.82C242.83 146.52 239.82 162.21 248.83 167.01C265.05 174.22 270.73 147.69 253.93 146.82H253.69Z" fill="url(#ldsStructure)"/>
      <path id="Vector_21" d="M253.38 147.35C248.22 147.35 245.39 151.09 244.45 154.64C243.4 158.62 244.4 164.05 249.08 166.54C253.36 168.44 257.3 168.04 260.14 165.39C263.23 162.51 264.39 157.48 262.92 153.43C261.58 149.75 258.38 147.59 253.9 147.36H253.38M254.17 168.8C252.57 168.8 250.72 168.44 248.61 167.5C243.38 164.72 242.26 158.75 243.41 154.37C244.72 149.43 248.62 146.29 253.4 146.29H253.92C260.6 146.64 263.05 150.68 263.92 153.06C265.54 157.49 264.25 163 260.87 166.16C259.058 167.865 256.658 168.807 254.17 168.79M227.15 60.25C218 59.95 215.39 73.35 222.99 77.39C236.76 83.6 241.7 61.04 227.38 60.25H227.15Z" fill="url(#ldsStructure)"/>
      <path id="Vector_22" d="M226.84 60.78C222.56 60.78 220.2 63.92 219.4 66.9C218.51 70.27 219.32 74.84 223.23 76.92C226.83 78.54 230.15 78.22 232.55 76C235.17 73.58 236.17 69.35 234.94 65.92C233.82 62.82 231.12 60.99 227.34 60.78H226.83M227.57 79.01C226.19 79.01 224.59 78.7 222.76 77.88C218.3 75.51 217.36 70.39 218.36 66.63C219.51 62.3 222.97 59.59 227.14 59.72H227.37C231.57 59.95 234.68 62.08 235.94 65.56C237.31 69.37 236.19 74.08 233.28 76.78C232.22 77.75 230.33 79.01 227.57 79.01ZM233.78 90.83C224.63 90.53 222.02 103.93 229.62 107.97C243.39 114.18 248.33 91.62 234.01 90.83H233.78Z" fill="url(#ldsStructure)"/>
      <path id="Vector_23" d="M233.48 91.36C229.2 91.36 226.84 94.5 226.04 97.48C225.15 100.85 225.96 105.42 229.87 107.5C233.47 109.12 236.79 108.8 239.19 106.58C241.81 104.16 242.81 99.93 241.58 96.5C240.46 93.4 237.76 91.57 233.98 91.36H233.47M234.21 109.59C232.83 109.59 231.23 109.28 229.4 108.46C224.94 106.09 224 100.97 225 97.21C226.15 92.88 229.6 90.17 233.78 90.3H234.01C238.21 90.53 241.32 92.66 242.58 96.14C243.95 99.95 242.83 104.66 239.92 107.36C238.86 108.33 236.97 109.59 234.21 109.59ZM199.42 29.91C190.27 29.61 187.66 43.01 195.26 47.05C209.03 53.26 213.97 30.7 199.65 29.91H199.42Z" fill="url(#ldsStructure)"/>
      <path id="Vector_24" d="M199.11 30.44C194.83 30.44 192.47 33.58 191.67 36.56C190.78 39.93 191.59 44.5 195.5 46.58C199.1 48.2 202.42 47.88 204.82 45.66C207.44 43.24 208.44 39.01 207.21 35.58C206.09 32.48 203.39 30.65 199.61 30.44H199.1M199.84 48.67C198.46 48.67 196.86 48.36 195.03 47.54C190.57 45.17 189.63 40.05 190.63 36.29C191.78 31.96 195.24 29.24 199.42 29.38H199.64C203.84 29.61 206.95 31.74 208.21 35.22C209.58 39.03 208.46 43.74 205.55 46.43C204.001 47.875 201.958 48.673 199.84 48.66M180.69 51.84C171.25 51.68 170.39 66.6 179.56 67.76C190.7 69.37 191.69 51.94 180.92 51.84H180.69Z" fill="url(#ldsStructure)"/>
      <path id="Vector_25" d="M180.54 52.37C176.15 52.37 173.93 55.82 173.69 59.27C173.44 62.71 175.2 66.66 179.63 67.22C182.53 67.64 184.95 66.71 186.47 64.6C188.19 62.21 188.44 58.67 187.09 56.01C185.91 53.69 183.72 52.39 180.92 52.37H180.54ZM180.98 68.39C180.5 68.39 180 68.35 179.49 68.28C174.38 67.63 172.34 63.12 172.63 59.19C172.91 55.33 175.54 51.22 180.7 51.3H180.93C184.15 51.33 186.68 52.83 188.04 55.52C189.57 58.53 189.28 62.52 187.34 65.22C185.85 67.29 183.64 68.38 180.99 68.38M180.69 74.59C171.25 74.43 170.39 89.35 179.56 90.51C190.7 92.12 191.69 74.69 180.92 74.59H180.69Z" fill="url(#ldsStructure)"/>
      <path id="Vector_26" d="M180.54 75.13C176.15 75.13 173.93 78.58 173.69 82.03C173.44 85.47 175.2 89.42 179.63 89.98C182.53 90.4 184.95 89.47 186.47 87.36C188.19 84.97 188.44 81.43 187.09 78.77C185.91 76.45 183.72 75.15 180.92 75.13H180.54ZM180.98 91.15C180.5 91.15 180 91.11 179.49 91.04C174.38 90.39 172.34 85.88 172.63 81.95C172.91 78.09 175.54 73.98 180.7 74.06H180.93C184.15 74.09 186.68 75.59 188.04 78.28C189.57 81.29 189.28 85.28 187.34 87.98C185.85 90.05 183.64 91.14 180.99 91.14M180.69 154.23C171.25 154.07 170.39 168.99 179.56 170.15C190.7 171.76 191.69 154.33 180.92 154.23H180.69Z" fill="url(#ldsStructure)"/>
      <path id="Vector_27" d="M180.54 154.76C176.15 154.76 173.93 158.21 173.69 161.66C173.44 165.1 175.2 169.05 179.63 169.61C182.53 170.03 184.95 169.1 186.47 166.99C188.19 164.59 188.44 161.06 187.09 158.39C185.91 156.07 183.72 154.77 180.92 154.75H180.54M180.98 170.79C180.5 170.79 180 170.75 179.49 170.68C174.38 170.03 172.34 165.52 172.63 161.59C172.91 157.73 175.54 153.6 180.7 153.7H180.93C184.15 153.73 186.68 155.23 188.04 157.92C189.57 160.93 189.28 164.92 187.34 167.62C185.85 169.69 183.64 170.78 180.99 170.78M180.69 220.6C171.25 220.44 170.39 235.36 179.56 236.52C190.7 238.13 191.69 220.7 180.92 220.6H180.69Z" fill="url(#ldsStructure)"/>
      <path id="Vector_28" d="M180.54 221.13C176.15 221.13 173.93 224.58 173.69 228.03C173.44 231.47 175.2 235.42 179.64 235.99C182.54 236.41 184.96 235.48 186.47 233.37C188.19 230.98 188.44 227.44 187.09 224.78C185.91 222.46 183.72 221.16 180.92 221.14H180.54M180.98 237.15C180.5 237.15 180 237.11 179.49 237.04C174.38 236.39 172.34 231.88 172.63 227.95C172.91 224.09 175.55 219.96 180.71 220.06H180.93C184.15 220.09 186.68 221.59 188.04 224.28C189.57 227.29 189.28 231.28 187.34 233.98C185.85 236.05 183.64 237.14 180.99 237.14M206.29 243.35C196.85 243.19 195.99 258.11 205.16 259.27C216.3 260.88 217.29 243.45 206.52 243.35H206.29Z" fill="url(#ldsStructure)"/>
      <path id="Vector_29" d="M206.14 243.88C201.75 243.88 199.53 247.33 199.29 250.78C199.04 254.22 200.8 258.17 205.24 258.74C208.14 259.16 210.56 258.23 212.07 256.12C213.79 253.73 214.04 250.19 212.69 247.53C211.51 245.21 209.32 243.91 206.52 243.89H206.14M206.58 259.9C206.1 259.9 205.6 259.86 205.09 259.79C199.98 259.14 197.94 254.63 198.23 250.7C198.51 246.84 201.14 242.73 206.31 242.81H206.53C209.75 242.84 212.28 244.34 213.64 247.03C215.17 250.04 214.88 254.03 212.94 256.73C211.45 258.8 209.24 259.89 206.59 259.89M273.62 108.67C268.27 108.67 268.33 117.35 273.72 117.2C279.31 117.18 279.05 108.67 273.82 108.67H273.62Z" fill="url(#ldsStructure)"/>
      <path id="Vector_30" d="M273.61 109.2C271.97 109.2 271.12 110.09 270.7 110.84C269.98 112.11 270 113.87 270.75 115.12C271.19 115.85 272.06 116.72 273.71 116.67C276.2 116.67 277.3 114.81 277.3 112.97C277.3 111.16 276.21 109.21 273.83 109.21H273.62L273.61 109.2ZM273.57 117.73C271.96 117.73 270.63 117 269.83 115.66C268.88 114.07 268.85 111.92 269.77 110.3C270.57 108.89 271.93 108.12 273.61 108.12H273.82C276.8 108.12 278.35 110.55 278.36 112.95C278.36 115.24 276.91 117.71 273.72 117.72H273.58M276.46 136.16C271.11 136.16 271.17 144.84 276.56 144.69C282.15 144.67 281.89 136.16 276.66 136.16H276.46Z" fill="url(#ldsStructure)"/>
      <path id="Vector_31" d="M276.46 136.69C274.82 136.69 273.97 137.58 273.55 138.33C272.83 139.6 272.85 141.36 273.6 142.61C274.04 143.34 274.92 144.2 276.56 144.16C279.05 144.16 280.15 142.3 280.15 140.46C280.15 138.65 279.06 136.7 276.68 136.7H276.47L276.46 136.69ZM276.42 145.23C274.81 145.23 273.48 144.5 272.68 143.16C271.73 141.57 271.7 139.42 272.62 137.8C273.42 136.39 274.78 135.62 276.46 135.62H276.67C279.65 135.62 281.2 138.05 281.21 140.45C281.21 142.74 279.76 145.21 276.57 145.22H276.43M201.56 10.6C196.74 10.65 197.03 18.48 201.91 18.06C206.56 17.78 206.21 10.61 201.76 10.6H201.56Z" fill="url(#ldsStructure)"/>
      <path id="Vector_32" d="M201.57 11.13C200.12 11.15 199.39 11.94 199.04 12.61C198.44 13.74 198.51 15.27 199.21 16.32C199.62 16.94 200.41 17.66 201.87 17.52C203.91 17.4 204.77 15.79 204.73 14.26C204.68 12.76 203.74 11.13 201.77 11.13H201.57ZM201.53 18.61C200.18 18.61 199.04 18.01 198.31 16.91C197.39 15.52 197.3 13.59 198.09 12.1C198.78 10.8 200.01 10.07 201.55 10.06H201.76C204.32 10.06 205.72 12.16 205.78 14.23C205.84 16.21 204.66 18.42 201.94 18.59C201.8 18.6 201.66 18.61 201.52 18.61M196.81 197.96C188.58 197.84 187.92 210.86 195.93 211.77C205.55 213.09 206.22 197.94 197.03 197.96H196.8H196.81Z" fill="url(#ldsStructure)"/>
      <path id="Vector_33" d="M196.7 198.5C192.9 198.5 191.01 201.48 190.82 204.47C190.63 207.43 192.17 210.81 195.99 211.24C198.45 211.58 200.51 210.77 201.77 208.97C203.24 206.88 203.43 203.82 202.23 201.52C201.22 199.57 199.37 198.5 197.04 198.5H196.68M197.09 212.38C196.69 212.38 196.28 212.35 195.86 212.29C191.36 211.78 189.54 207.84 189.76 204.39C189.97 201.02 192.24 197.42 196.7 197.42H197.04C199.83 197.4 201.98 198.69 203.19 201.01C204.56 203.65 204.34 207.17 202.65 209.57C201.36 211.4 199.42 212.37 197.09 212.37M178.81 201.16C173.99 201.21 174.28 209.04 179.16 208.62C183.81 208.34 183.46 201.17 179.01 201.16H178.81Z" fill="url(#ldsStructure)"/>
      <path id="Vector_34" d="M178.81 201.69C177.36 201.71 176.63 202.5 176.28 203.17C175.68 204.3 175.74 205.83 176.45 206.89C176.86 207.51 177.65 208.22 179.11 208.09C181.15 207.97 182.01 206.36 181.97 204.83C181.93 203.33 180.98 201.7 179.01 201.7H178.81V201.69ZM178.77 209.17C177.42 209.17 176.28 208.57 175.55 207.47C174.63 206.08 174.54 204.15 175.33 202.66C176.02 201.36 177.25 200.63 178.79 200.62H179C181.56 200.62 182.96 202.72 183.02 204.79C183.08 206.77 181.9 208.98 179.18 209.15C179.04 209.16 178.9 209.17 178.76 209.17M181.88 318.96C172.44 318.8 171.58 333.72 180.75 334.88C191.89 336.49 192.88 319.06 182.11 318.96H181.88Z" fill="url(#ldsStructure)"/>
      <path id="Vector_35" d="M181.72 319.49C177.33 319.49 175.11 322.94 174.87 326.39C174.62 329.83 176.38 333.78 180.81 334.35C183.71 334.77 186.13 333.84 187.65 331.73C189.37 329.34 189.62 325.8 188.27 323.14C187.09 320.82 184.9 319.53 182.1 319.5H181.72M182.17 335.51C181.69 335.51 181.19 335.47 180.68 335.4C175.57 334.75 173.53 330.24 173.82 326.31C174.09 322.49 176.69 318.42 181.74 318.42H182.12C185.34 318.45 187.87 319.95 189.23 322.64C190.76 325.65 190.47 329.64 188.53 332.34C187.04 334.41 184.83 335.5 182.18 335.5M181.65 340.71C176.3 340.71 176.36 349.39 181.75 349.24C187.34 349.22 187.08 340.71 181.85 340.71H181.65Z" fill="url(#ldsStructure)"/>
      <path id="Vector_36" d="M181.65 341.24C180.01 341.24 179.16 342.13 178.74 342.88C178.02 344.15 178.04 345.91 178.79 347.16C179.23 347.89 180.12 348.76 181.75 348.71C184.24 348.71 185.34 346.85 185.33 345.01C185.33 343.2 184.24 341.24 181.86 341.24H181.65ZM181.61 349.77C180 349.77 178.67 349.04 177.87 347.7C176.92 346.11 176.89 343.96 177.81 342.34C178.61 340.93 179.97 340.16 181.65 340.16H181.86C184.84 340.16 186.39 342.59 186.4 344.99C186.4 347.28 184.95 349.75 181.76 349.76H181.62M201.56 339.05C196.21 339.05 196.27 347.73 201.66 347.58C207.25 347.56 206.99 339.05 201.76 339.05H201.56Z" fill="url(#ldsStructure)"/>
      <path id="Vector_37" d="M201.56 339.58C199.92 339.58 199.07 340.47 198.65 341.22C197.93 342.49 197.95 344.25 198.7 345.5C199.14 346.23 200.02 347.1 201.66 347.05C204.15 347.05 205.25 345.19 205.24 343.35C205.24 341.54 204.15 339.59 201.77 339.59H201.56V339.58ZM201.52 348.12C199.91 348.12 198.58 347.39 197.78 346.05C196.83 344.46 196.8 342.31 197.72 340.69C198.52 339.28 199.88 338.51 201.56 338.51H201.77C204.75 338.51 206.3 340.94 206.31 343.34C206.31 345.63 204.86 348.1 201.67 348.11H201.53M201.56 321.03C196.21 321.03 196.27 329.71 201.66 329.56C207.25 329.54 206.99 321.03 201.76 321.03H201.56Z" fill="url(#ldsStructure)"/>
      <path id="Vector_38" d="M201.56 321.57C199.92 321.57 199.07 322.46 198.65 323.21C197.93 324.48 197.95 326.24 198.7 327.49C199.14 328.22 200 329.09 201.66 329.04C204.15 329.04 205.25 327.18 205.25 325.34C205.25 323.53 204.16 321.57 201.78 321.57H201.57H201.56ZM201.52 330.1C199.91 330.1 198.58 329.37 197.78 328.03C196.83 326.44 196.8 324.29 197.72 322.67C198.51 321.27 199.88 320.49 201.56 320.49H201.77C204.75 320.49 206.3 322.92 206.31 325.32C206.31 327.61 204.86 330.08 201.67 330.09H201.52M257.5 266.05C252.15 266.05 252.21 274.73 257.6 274.58C263.19 274.56 262.93 266.05 257.7 266.05H257.5Z" fill="url(#ldsStructure)"/>
      <path id="Vector_39" d="M257.49 266.58C255.85 266.58 255 267.47 254.58 268.22C253.86 269.49 253.87 271.25 254.63 272.5C255.07 273.23 255.95 274.1 257.59 274.05C260.08 274.05 261.18 272.19 261.17 270.35C261.17 268.54 260.08 266.59 257.7 266.59H257.49V266.58ZM257.46 275.11C255.85 275.11 254.52 274.38 253.72 273.04C252.77 271.45 252.74 269.3 253.66 267.68C254.46 266.27 255.82 265.5 257.5 265.5H257.71C260.69 265.5 262.24 267.93 262.25 270.33C262.25 272.62 260.8 275.09 257.61 275.1H257.47M278.36 191.15C273.01 191.15 273.07 199.83 278.46 199.68C284.05 199.66 283.79 191.15 278.56 191.15H278.36Z" fill="url(#ldsStructure)"/>
      <path id="Vector_40" d="M278.35 191.68C276.71 191.68 275.86 192.57 275.44 193.32C274.72 194.59 274.74 196.35 275.49 197.6C275.93 198.33 276.79 199.2 278.45 199.15C280.94 199.15 282.04 197.29 282.03 195.45C282.03 193.64 280.94 191.69 278.56 191.69H278.35V191.68ZM278.31 200.22C276.7 200.22 275.37 199.49 274.57 198.15C273.62 196.56 273.59 194.41 274.51 192.79C275.31 191.38 276.67 190.61 278.35 190.61H278.56C281.54 190.61 283.09 193.04 283.1 195.44C283.1 197.73 281.65 200.2 278.46 200.21H278.32M305.76 202.5C300.5 203.04 300.69 210.96 306.09 211.03C311.43 210.6 311.3 202.69 305.87 202.5H305.75H305.76Z" fill="url(#ldsStructure)"/>
      <path id="Vector_41" d="M305.8 203.03C303.39 203.28 302.38 205.24 302.46 206.97C302.54 208.7 303.69 210.46 306.1 210.49C308.48 210.3 309.53 208.43 309.49 206.67C309.45 204.92 308.31 203.11 305.86 203.03H305.81H305.8ZM306.13 211.56C303 211.52 301.49 209.18 301.39 207.02C301.29 204.81 302.6 202.29 305.7 201.97H305.84C309.01 202.08 310.49 204.47 310.55 206.65C310.6 208.84 309.24 211.3 306.13 211.56ZM232.85 256.57C227.5 256.57 227.56 265.25 232.95 265.1C238.54 265.08 238.28 256.57 233.05 256.57H232.85Z" fill="url(#ldsStructure)"/>
      <path id="Vector_42" d="M232.84 257.1C231.2 257.1 230.35 257.99 229.92 258.74C229.2 260.01 229.22 261.77 229.97 263.02C230.41 263.75 231.3 264.62 232.93 264.57C235.42 264.57 236.52 262.71 236.51 260.87C236.51 259.06 235.42 257.11 233.04 257.11H232.83L232.84 257.1ZM232.81 265.63C231.2 265.63 229.87 264.9 229.07 263.56C228.12 261.97 228.09 259.82 229.01 258.2C229.81 256.79 231.17 256.02 232.85 256.02H233.06C236.04 256.02 237.59 258.45 237.6 260.85C237.6 263.14 236.15 265.61 232.96 265.62H232.82M202.51 271.73C197.16 271.73 197.22 280.41 202.61 280.26C208.2 280.24 207.94 271.73 202.71 271.73H202.51Z" fill="url(#ldsStructure)"/>
      <path id="Vector_43" d="M202.5 272.27C200.86 272.27 200.01 273.16 199.59 273.91C198.87 275.18 198.89 276.94 199.64 278.19C200.08 278.92 200.96 279.79 202.6 279.74C205.09 279.74 206.19 277.88 206.19 276.04C206.19 274.23 205.1 272.27 202.72 272.27H202.51H202.5ZM202.47 280.8C200.86 280.8 199.53 280.07 198.73 278.73C197.78 277.14 197.75 274.99 198.67 273.37C199.46 271.97 200.83 271.19 202.51 271.19H202.72C205.7 271.19 207.25 273.62 207.26 276.02C207.26 278.31 205.81 280.78 202.62 280.79H202.48M176.91 244.24C171.56 244.24 171.62 252.92 177.01 252.77C182.6 252.75 182.34 244.24 177.11 244.24H176.91Z" fill="url(#ldsStructure)"/>
      <path id="Vector_44" d="M176.91 244.77C175.27 244.77 174.42 245.66 174 246.41C173.28 247.68 173.3 249.44 174.05 250.69C174.49 251.42 175.35 252.29 177.01 252.24C179.5 252.24 180.6 250.38 180.59 248.54C180.59 246.73 179.5 244.78 177.12 244.78H176.91V244.77ZM176.87 253.31C175.26 253.31 173.93 252.58 173.13 251.24C172.18 249.65 172.15 247.5 173.07 245.88C173.87 244.47 175.23 243.7 176.91 243.7H177.12C180.1 243.7 181.65 246.13 181.66 248.53C181.66 250.82 180.21 253.29 177.02 253.3H176.88M180.7 34.71C175.35 34.71 175.41 43.39 180.8 43.24C186.39 43.22 186.13 34.71 180.9 34.71H180.7Z" fill="url(#ldsStructure)"/>
      <path id="Vector_45" d="M180.7 35.25C179.06 35.25 178.21 36.14 177.79 36.89C177.07 38.16 177.09 39.92 177.84 41.17C178.28 41.9 179.14 42.77 180.8 42.72C183.29 42.72 184.39 40.86 184.39 39.02C184.39 37.21 183.3 35.26 180.92 35.26H180.71L180.7 35.25ZM180.66 43.78C179.05 43.78 177.72 43.05 176.92 41.71C175.97 40.12 175.94 37.97 176.86 36.35C177.66 34.94 179.02 34.17 180.7 34.17H180.91C183.89 34.17 185.44 36.6 185.45 39C185.45 41.29 184 43.76 180.81 43.77H180.67M191.13 105.82C185.78 105.82 185.84 114.5 191.23 114.35C196.82 114.33 196.56 105.82 191.33 105.82H191.13Z" fill="url(#ldsStructure)"/>
      <path id="Vector_46" d="M191.13 106.35C189.49 106.35 188.64 107.24 188.22 107.99C187.5 109.26 187.52 111.02 188.27 112.27C188.71 113 189.57 113.86 191.23 113.82C193.72 113.82 194.82 111.96 194.82 110.12C194.82 108.31 193.73 106.36 191.35 106.36H191.14L191.13 106.35ZM191.09 114.89C189.48 114.89 188.15 114.16 187.35 112.82C186.4 111.23 186.37 109.08 187.29 107.46C188.09 106.05 189.45 105.28 191.13 105.28H191.34C194.32 105.28 195.87 107.71 195.88 110.11C195.88 112.4 194.43 114.87 191.24 114.88H191.1M209.38 118.86C204.03 118.86 204.09 127.54 209.48 127.39C215.07 127.37 214.81 118.86 209.58 118.86H209.38Z" fill="url(#ldsStructure)"/>
      <path id="Vector_47" d="M209.38 119.39C207.74 119.39 206.89 120.28 206.47 121.03C205.75 122.3 205.77 124.06 206.52 125.31C206.96 126.04 207.84 126.91 209.48 126.86C211.97 126.86 213.07 125 213.07 123.16C213.07 121.35 211.98 119.39 209.6 119.39H209.39H209.38ZM209.34 127.92C207.73 127.92 206.4 127.19 205.6 125.85C204.65 124.26 204.62 122.11 205.54 120.49C206.34 119.08 207.7 118.31 209.38 118.31H209.59C212.57 118.31 214.12 120.74 214.13 123.14C214.13 125.43 212.68 127.9 209.49 127.91H209.35M227.16 123.83C221.81 123.83 221.87 132.51 227.26 132.36C232.85 132.34 232.59 123.83 227.36 123.83H227.16Z" fill="url(#ldsStructure)"/>
      <path id="Vector_48" d="M227.16 124.37C225.52 124.37 224.67 125.26 224.25 126.01C223.53 127.28 223.55 129.04 224.3 130.29C224.74 131.02 225.6 131.89 227.26 131.84C229.75 131.84 230.85 129.98 230.85 128.14C230.85 126.33 229.76 124.38 227.38 124.38H227.17L227.16 124.37ZM227.12 132.9C225.51 132.9 224.18 132.17 223.38 130.83C222.43 129.24 222.4 127.09 223.32 125.47C224.12 124.06 225.48 123.29 227.16 123.29H227.37C230.35 123.29 231.9 125.72 231.91 128.12C231.91 130.41 230.46 132.88 227.27 132.89H227.13M194.93 157.97C189.58 157.97 189.64 166.65 195.03 166.5C200.62 166.48 200.36 157.97 195.13 157.97H194.93Z" fill="url(#ldsStructure)"/>
      <path id="Vector_49" d="M194.92 158.5C193.28 158.5 192.43 159.39 192.01 160.14C191.29 161.41 191.3 163.17 192.06 164.42C192.5 165.15 193.36 166.02 195.02 165.97C197.51 165.97 198.61 164.11 198.6 162.27C198.6 160.46 197.51 158.5 195.13 158.5H194.92ZM194.88 167.03C193.27 167.03 191.94 166.3 191.14 164.96C190.19 163.37 190.16 161.22 191.08 159.6C191.88 158.19 193.24 157.42 194.92 157.42H195.13C198.11 157.42 199.66 159.85 199.67 162.25C199.67 164.54 198.22 167.01 195.03 167.02H194.89M246.12 114.35C240.77 114.35 240.83 123.03 246.22 122.88C251.81 122.86 251.55 114.35 246.32 114.35H246.12Z" fill="url(#ldsStructure)"/>
      <path id="Vector_50" d="M246.12 114.89C244.48 114.89 243.63 115.78 243.21 116.53C242.49 117.8 242.51 119.56 243.26 120.81C243.7 121.54 244.55 122.4 246.22 122.36C248.71 122.36 249.81 120.5 249.8 118.66C249.8 116.85 248.71 114.89 246.33 114.89H246.12ZM246.08 123.42C244.47 123.42 243.14 122.69 242.34 121.35C241.39 119.76 241.36 117.61 242.28 115.99C243.08 114.58 244.44 113.81 246.12 113.81H246.33C249.31 113.81 250.86 116.24 250.87 118.64C250.87 120.93 249.42 123.4 246.23 123.41H246.09M273.62 87.81C268.27 87.81 268.33 96.49 273.72 96.34C279.31 96.32 279.05 87.81 273.82 87.81H273.62Z" fill="url(#ldsStructure)"/>
      <path id="Vector_51" d="M273.61 88.34C271.97 88.34 271.12 89.23 270.7 89.98C269.98 91.25 270 93.01 270.75 94.26C271.19 94.99 272.06 95.86 273.71 95.81C276.2 95.81 277.3 93.95 277.3 92.11C277.3 90.3 276.21 88.34 273.83 88.34H273.62H273.61ZM273.57 96.88C271.96 96.88 270.63 96.15 269.83 94.81C268.88 93.22 268.85 91.07 269.77 89.45C270.57 88.04 271.93 87.27 273.61 87.27H273.82C276.8 87.27 278.35 89.7 278.36 92.1C278.36 94.39 276.91 96.86 273.72 96.87H273.58M291.62 96.75C285.4 96.8 285.77 106.8 291.98 106.35C298.05 106.06 297.6 96.73 291.84 96.75H291.63H291.62Z" fill="url(#ldsStructure)"/>
      <path id="Vector_52" d="M291.63 97.29C290.11 97.3 288.9 98 288.23 99.25C287.43 100.74 287.51 102.76 288.42 104.16C288.96 104.99 290.01 105.96 291.94 105.82C294.69 105.69 295.87 103.55 295.82 101.48C295.76 99.46 294.51 97.29 291.87 97.29H291.63ZM291.56 106.9C289.85 106.9 288.43 106.14 287.52 104.75C286.39 103 286.29 100.59 287.28 98.75C288.15 97.14 289.69 96.25 291.62 96.23H291.86C295.06 96.23 296.81 98.85 296.87 101.46C296.93 103.96 295.44 106.73 291.99 106.89C291.84 106.9 291.69 106.91 291.55 106.91M164.59 321.57C159.77 321.62 160.06 329.45 164.94 329.03C169.59 328.75 169.24 321.58 164.79 321.57H164.59Z" fill="url(#ldsStructure)"/>
      <path id="Vector_53" d="M164.59 322.1C163.14 322.12 162.41 322.91 162.06 323.58C161.46 324.71 161.53 326.24 162.23 327.3C162.64 327.92 163.43 328.63 164.89 328.5C166.93 328.38 167.79 326.77 167.75 325.23C167.7 323.73 166.76 322.1 164.79 322.1H164.59ZM164.55 329.58C163.2 329.58 162.06 328.99 161.33 327.88C160.41 326.49 160.32 324.56 161.11 323.07C161.8 321.77 163.03 321.04 164.57 321.03H164.78C167.34 321.03 168.74 323.13 168.8 325.2C168.86 327.18 167.68 329.4 164.96 329.56C164.82 329.57 164.68 329.58 164.54 329.58M177.25 248.98C177.25 248.98 201.4 274.31 201.43 274.34L177.25 248.98Z" fill="url(#ldsStructure)"/>
      <path id="Vector_54" d="M199.89 275.82L175.7 250.44L178.8 247.51C178.96 247.68 202.83 272.72 202.97 272.86L199.89 275.81V275.82Z" fill="url(#ldsStructure)"/>
      <path id="Vector_55" d="M210.76 180.25C210.14 179.4 208.63 179.16 207.48 179.14C200.61 179.01 185 179.16 174.27 179.13C168.71 179.23 166.54 178.22 166.9 172.07C166.88 157.22 166.9 142.02 166.9 123.29V73.14C166.85 52.92 167.01 34.71 166.84 26.04C166.77 25.42 166.54 24.84 166.16 24.44C165.01 23.25 162.87 23.54 162.55 24.66C162.42 42.79 162.47 303.93 162.53 322.5C162.61 323.21 163.49 323.77 164.36 323.54C166.72 322.81 166.92 319.49 166.9 317.3V189.49C166.9 186.34 166.68 183.12 170.57 183.43C177.85 183.41 197.47 183.43 205.89 183.43C207.94 183.61 212.3 182.91 210.79 180.3L210.76 180.26V180.25Z" fill="url(#ldsStructure)"/>
      <path id="Vector_56" d="M163.08 24.74C162.96 42.56 162.99 301.28 163.06 322.49C163.07 322.59 163.19 322.75 163.36 322.87C163.6 323.04 163.93 323.09 164.22 323.02C165.7 322.56 166.4 320.69 166.37 317.3V189.01C166.37 186.97 166.36 184.86 167.6 183.7C168.3 183.05 169.29 182.79 170.62 182.89H205.9C207.44 183.02 209.87 182.65 210.46 181.72C210.58 181.53 210.7 181.2 210.36 180.59V180.57C209.96 180.04 208.89 179.7 207.49 179.68C203.34 179.6 196.09 179.62 188.42 179.65C183.55 179.66 178.52 179.68 174.29 179.67C171.34 179.73 169.09 179.48 167.75 178.08C166.63 176.92 166.21 175.05 166.39 172.05V73.15C166.37 64.91 166.39 56.95 166.39 49.93C166.41 39.87 166.42 31.19 166.33 26.06C166.27 25.58 166.08 25.11 165.8 24.82C165.23 24.24 164.39 24.12 163.8 24.27C163.44 24.36 163.19 24.54 163.1 24.75M163.95 324.12C163.53 324.12 163.12 324 162.77 323.76C162.34 323.46 162.05 323.03 162 322.57C161.92 301.26 161.89 41.71 162.01 24.66L162.03 24.52C162.21 23.9 162.75 23.44 163.52 23.24C164.6 22.97 165.79 23.3 166.55 24.08C166.99 24.53 167.28 25.21 167.38 25.99C167.48 31.18 167.47 39.87 167.45 49.93C167.44 56.95 167.42 64.9 167.45 73.14V172.07C167.29 174.79 167.62 176.41 168.51 177.34C169.58 178.45 171.59 178.65 174.28 178.6C178.52 178.61 183.55 178.6 188.42 178.58C196.1 178.56 203.35 178.53 207.51 178.61C208.54 178.63 210.39 178.83 211.21 179.93L211.27 180.03C211.87 181.07 211.65 181.84 211.36 182.3C210.38 183.84 207.23 184.09 205.86 183.96H170.58C169.52 183.88 168.8 184.05 168.33 184.49C167.43 185.32 167.44 187.11 167.44 189.01V317.3C167.46 318.73 167.51 323.12 164.52 324.05C164.33 324.1 164.14 324.12 163.95 324.12ZM177.78 16.84C177.62 21.31 177.78 26.36 177.72 31.25V40.65C177.71 41.18 177.9 41.72 178.24 42.15C179.2 43.51 181.42 43 181.86 41.44C182.21 38.29 181.88 20.75 181.99 17.49C182.09 14.91 178.62 14.14 177.82 16.72L177.79 16.83L177.78 16.84Z" fill="url(#ldsStructure)"/>
      <path id="Vector_57" d="M178.31 16.92C178.21 19.58 178.23 22.4 178.25 25.38C178.25 27.31 178.27 29.31 178.25 31.26V40.65C178.24 41.06 178.38 41.48 178.65 41.82C178.97 42.28 179.5 42.48 180.08 42.37C180.68 42.27 181.16 41.86 181.33 41.34C181.54 39.32 181.49 31.71 181.45 25.59C181.43 21.89 181.41 18.7 181.45 17.48C181.49 16.41 180.79 15.81 180.08 15.69C179.44 15.58 178.64 15.84 178.32 16.89V16.93L178.31 16.92ZM179.8 43.46C179 43.46 178.26 43.1 177.8 42.45C177.39 41.93 177.17 41.27 177.19 40.63V31.25C177.21 29.3 177.19 27.31 177.19 25.39C177.17 22.37 177.15 19.52 177.25 16.82L177.3 16.58C177.8 14.97 179.15 14.43 180.27 14.63C181.4 14.82 182.6 15.81 182.53 17.51C182.49 18.7 182.51 21.89 182.53 25.57C182.57 31.77 182.62 39.48 182.4 41.49L182.38 41.57C182.12 42.51 181.29 43.24 180.28 43.41C180.12 43.44 179.97 43.45 179.81 43.45M197.73 47.97C197.47 61.52 197.73 87.88 197.64 101.58C197.71 103.18 199.94 104.41 201.22 102.99C201.62 102.6 201.93 101.97 201.91 101.48V48.49C201.79 46.33 198.74 45.47 197.77 47.87L197.73 47.97Z" fill="url(#ldsStructure)"/>
      <path id="Vector_58" d="M198.26 48.07C198.1 56.38 198.14 69.72 198.17 81.5C198.19 89.1 198.21 96.29 198.17 101.58C198.2 102.15 198.69 102.75 199.34 102.98C199.67 103.1 200.3 103.21 200.82 102.63C201.16 102.31 201.39 101.82 201.37 101.49V48.49C201.32 47.61 200.61 47.08 199.98 46.98C199.23 46.86 198.59 47.27 198.26 48.07ZM199.86 104.15C199.57 104.15 199.27 104.1 198.98 103.99C197.92 103.61 197.15 102.63 197.11 101.6C197.14 96.29 197.12 89.1 197.11 81.5C197.08 69.68 197.05 56.28 197.2 47.96L197.23 47.78L197.27 47.68C197.78 46.4 198.91 45.72 200.15 45.92C201.42 46.13 202.36 47.17 202.43 48.45V101.47C202.45 102.09 202.11 102.85 201.58 103.37C201.13 103.87 200.51 104.15 199.85 104.15M178.76 64.07C178.5 86.96 178.76 127.55 178.67 152.01V156.62C178.7 156.98 178.77 157.19 179.14 157.74C179.65 158.49 180.82 158.88 181.68 158.41C182.34 158.09 182.92 157.26 182.94 156.59C182.86 152.64 183.11 67.93 182.85 64.09C182.29 62.33 179.72 61.8 178.8 63.98L178.76 64.08V64.07Z" fill="url(#ldsStructure)"/>
      <path id="Vector_59" d="M179.3 64.17C179.14 77.99 179.18 98.05 179.2 117.46C179.22 130.24 179.24 142.32 179.2 152.01V156.61C179.21 156.81 179.24 156.93 179.57 157.43C179.93 157.95 180.79 158.27 181.41 157.93C181.91 157.69 182.38 157.03 182.39 156.56C182.36 155.13 182.37 142.83 182.39 127.27C182.42 101.85 182.46 67.11 182.3 64.18C182.07 63.54 181.48 63.1 180.81 63.07C180.15 63.04 179.59 63.44 179.28 64.17M180.86 159.15C180 159.15 179.15 158.68 178.71 158.03C178.3 157.44 178.18 157.14 178.15 156.65V152C178.19 142.31 178.17 130.24 178.15 117.46C178.12 98.01 178.09 77.89 178.25 64.06V63.96L178.32 63.77C178.81 62.61 179.75 61.94 180.89 62C182.02 62.05 183.02 62.82 183.37 63.91L183.39 64.04C183.56 66.48 183.51 100.19 183.48 127.27C183.46 142.83 183.45 155.11 183.48 156.56C183.45 157.46 182.76 158.47 181.92 158.88C181.59 159.06 181.23 159.14 180.87 159.14M223.31 29.09C223.1 37.97 223.31 53.51 223.24 62.64C223.4 64.99 226.59 65.6 227.4 63.19C227.68 60.27 227.42 32.25 227.5 29.55C227.33 27.18 224.16 26.61 223.34 28.99L223.31 29.1V29.09Z" fill="url(#ldsStructure)"/>
      <path id="Vector_60" d="M223.84 29.18C223.71 34.65 223.74 42.49 223.76 50.07C223.78 54.74 223.79 59.15 223.76 62.65C223.82 63.58 224.52 64.1 225.19 64.19C225.79 64.26 226.52 64.01 226.86 63.09C227.04 61.05 226.99 48.8 226.96 39.84C226.94 34.63 226.93 30.52 226.96 29.54C226.89 28.62 226.19 28.1 225.53 28.01C224.93 27.94 224.17 28.19 223.84 29.16V29.18ZM225.42 65.26C225.3 65.26 225.18 65.26 225.06 65.24C223.76 65.07 222.79 64.02 222.7 62.68C222.72 59.15 222.7 54.74 222.7 50.07C222.68 42.45 222.65 34.57 222.78 29.08L222.8 28.93L222.84 28.82C223.29 27.51 224.4 26.78 225.68 26.95C226.97 27.12 227.94 28.17 228.03 29.51C228 30.52 228.02 34.83 228.03 39.82C228.06 49.41 228.1 61.34 227.92 63.24L227.89 63.36C227.5 64.55 226.54 65.26 225.41 65.26M291.64 80.45C290.02 80.58 289.43 82.18 289.6 83.72V90.18C289.69 94.21 289.42 96.56 289.73 98.33C290.06 99.73 292.12 100.47 293.17 99.28C293.7 98.68 293.83 98.18 293.87 97.64V82.8C293.95 81.85 292.96 80.42 291.83 80.45H291.65H291.64Z" fill="url(#ldsStructure)"/>
      <path id="Vector_61" d="M291.66 80.99C291.23 81.03 290.88 81.21 290.62 81.52C290.22 82 290.04 82.8 290.13 83.67V90.19C290.17 91.81 290.14 93.15 290.13 94.33C290.1 96.02 290.08 97.25 290.25 98.25C290.36 98.72 290.83 99.16 291.42 99.31C291.67 99.37 292.31 99.47 292.77 98.95C293.2 98.46 293.31 98.07 293.33 97.64V82.82C293.36 82.4 293.13 81.87 292.77 81.49C292.59 81.31 292.24 81.01 291.83 81.01H291.66V80.99ZM291.82 100.41C291.6 100.41 291.38 100.38 291.16 100.33C290.18 100.08 289.42 99.35 289.21 98.46C289.01 97.32 289.03 96.06 289.06 94.3C289.08 93.13 289.11 91.81 289.06 90.19V83.71C288.94 82.6 289.21 81.53 289.79 80.83C290.24 80.29 290.86 79.97 291.59 79.92H291.82C292.41 79.91 293.04 80.2 293.55 80.74C294.12 81.35 294.45 82.18 294.4 82.85V97.65C294.37 98.19 294.25 98.87 293.57 99.64C293.12 100.14 292.5 100.41 291.82 100.41ZM307.17 206.64C306.28 203.09 301.59 204.85 303.38 208.03C303.58 208.39 303.74 208.54 303.78 208.88C303.79 210.35 303.78 219.22 303.78 220.97C303.94 223.63 307.5 223.94 308.06 221.32C308.2 218.37 308.06 213.75 308.11 210.75C308.11 208.87 308.29 208.26 307.24 206.79L307.16 206.64H307.17Z" fill="url(#ldsStructure)"/>
      <path id="Vector_62" d="M305.01 205.21C304.53 205.21 304.05 205.44 303.77 205.82C303.41 206.33 303.43 207.02 303.85 207.77C303.91 207.87 303.96 207.95 304 208.02C304.14 208.23 304.28 208.45 304.32 208.81V220.96C304.38 222.01 305.13 222.54 305.84 222.59C306.47 222.63 307.29 222.31 307.53 221.25C307.61 219.46 307.59 217.08 307.58 214.79C307.58 213.31 307.56 211.92 307.58 210.74V210.08C307.6 208.73 307.61 208.23 306.8 207.09L306.64 206.76C306.42 205.9 305.94 205.36 305.27 205.23C305.17 205.21 305.08 205.21 304.98 205.21M305.97 223.67H305.77C304.64 223.59 303.37 222.72 303.27 221.02C303.26 220.07 303.26 217.13 303.27 214.36V208.9C303.27 208.84 303.23 208.79 303.12 208.61C303.06 208.52 303 208.42 302.94 208.3C302.32 207.19 302.32 206.07 302.94 205.21C303.51 204.42 304.55 204.01 305.53 204.2C306.59 204.4 307.38 205.22 307.71 206.46L307.75 206.53C308.74 207.94 308.73 208.72 308.7 210.12V210.77C308.68 211.94 308.7 213.33 308.7 214.8C308.72 217.13 308.73 219.55 308.64 221.37V221.45C308.3 223.01 307.11 223.68 306.01 223.68M276.38 197.92C276.22 202.39 276.38 207.44 276.32 212.33V221.73C276.31 222.26 276.5 222.8 276.84 223.23C277.8 224.59 280.02 224.08 280.46 222.52C280.81 219.37 280.48 201.83 280.59 198.57C280.69 195.99 277.22 195.22 276.42 197.8L276.39 197.91L276.38 197.92Z" fill="url(#ldsStructure)"/>
      <path id="Vector_63" d="M276.92 198C276.82 200.66 276.84 203.48 276.86 206.46C276.86 208.39 276.88 210.39 276.86 212.34V221.73C276.85 222.14 276.99 222.56 277.26 222.9C277.58 223.36 278.12 223.56 278.69 223.45C279.29 223.35 279.77 222.94 279.94 222.42C280.15 220.4 280.1 212.78 280.06 206.65C280.04 202.96 280.01 199.78 280.06 198.56C280.1 197.49 279.4 196.89 278.69 196.77C278.05 196.66 277.25 196.92 276.93 197.97V198.01L276.92 198ZM278.41 224.55C277.61 224.55 276.87 224.19 276.41 223.54C276 223.02 275.78 222.36 275.8 221.72V212.34C275.82 210.39 275.8 208.4 275.8 206.48C275.78 203.46 275.76 200.61 275.86 197.91L275.91 197.67C276.41 196.06 277.76 195.53 278.88 195.72C280.01 195.91 281.21 196.9 281.14 198.6C281.1 199.79 281.12 202.97 281.14 206.65C281.18 212.85 281.23 220.58 281.01 222.59L280.99 222.68C280.73 223.62 279.9 224.34 278.89 224.52C278.73 224.55 278.58 224.56 278.42 224.56M230.86 238.75C230.74 242.74 230.86 247.33 230.82 251.69V259.68C230.82 260.07 230.91 260.46 231.12 260.84C231.86 262.45 234.42 262.24 234.93 260.54C235.35 257.49 234.97 242.22 235.08 239.08C234.96 236.6 231.51 236.18 230.89 238.64L230.86 238.76V238.75Z" fill="url(#ldsStructure)"/>
      <path id="Vector_64" d="M231.39 238.82C231.32 241.2 231.33 243.74 231.34 246.43C231.34 248.18 231.36 249.96 231.34 251.69V259.68C231.34 259.99 231.41 260.29 231.57 260.58C231.88 261.24 232.52 261.43 233.04 261.4C233.55 261.36 234.17 261.09 234.39 260.43C234.64 258.46 234.59 251.59 234.54 246.07C234.51 242.92 234.49 240.21 234.54 239.06C234.49 238.12 233.77 237.61 233.08 237.54C232.47 237.48 231.66 237.77 231.41 238.78V238.84L231.39 238.82ZM232.92 262.46C231.91 262.46 231.03 261.92 230.62 261.05C230.39 260.63 230.27 260.15 230.28 259.66V251.67C230.29 249.94 230.28 248.16 230.28 246.42C230.27 243.7 230.25 241.13 230.33 238.72L230.37 238.5C230.76 236.94 232.07 236.35 233.19 236.46C234.3 236.57 235.53 237.42 235.61 239.04C235.57 240.21 235.59 242.92 235.61 246.05C235.66 251.65 235.72 258.62 235.44 260.6L235.42 260.68C235.12 261.68 234.22 262.37 233.11 262.45H232.91M255.51 271.94C255.41 276.77 255.46 286.21 255.49 290.36C255.85 293.03 259.61 292.83 259.72 290.16C259.65 287.16 259.9 274.65 259.62 271.71C259.03 269.59 256.03 269.68 255.53 271.83L255.5 271.95L255.51 271.94Z" fill="url(#ldsStructure)"/>
      <path id="Vector_65" d="M256.03 290.32C256.19 291.41 257.02 291.76 257.67 291.73C258.4 291.7 259.16 291.19 259.2 290.14C259.17 289.09 259.2 286.79 259.2 284.12C259.23 279.48 259.27 273.72 259.09 271.81C258.84 270.98 258.15 270.68 257.56 270.7C256.99 270.71 256.25 271.05 256.05 271.95V272.01C255.94 276.47 255.98 284.59 256.02 290.32M257.59 292.8C256.46 292.8 255.18 292.08 254.96 290.43V290.37C254.92 284.59 254.88 276.4 254.97 271.93L255.01 271.7C255.29 270.49 256.31 269.66 257.54 269.63C258.76 269.59 259.8 270.36 260.13 271.56V271.65C260.33 273.56 260.29 279.41 260.26 284.11C260.24 286.77 260.22 289.06 260.26 290.13C260.19 291.89 258.89 292.73 257.71 292.78H257.59M179.71 232.2C179.44 259.57 179.71 307.77 179.62 337.09C179.64 340.86 179.57 342.57 179.65 343.54C179.74 344.4 180.95 346.1 182.16 345.63C183.15 345.38 183.84 344.16 183.89 343.25V232.77C183.73 230.29 180.75 229.15 179.75 232.08L179.71 232.19V232.2Z" fill="url(#ldsStructure)"/>
      <path id="Vector_66" d="M180.25 232.29C180.09 248.81 180.12 272.73 180.15 295.86C180.17 311.09 180.19 325.49 180.15 337.09V340.87C180.15 342.18 180.15 342.96 180.18 343.51C180.22 343.88 180.66 344.67 181.25 345.03C181.64 345.27 181.89 345.17 181.97 345.14L182.04 345.12C182.74 344.94 183.32 343.96 183.36 343.23V232.79C183.29 231.7 182.53 230.99 181.86 230.9C181.17 230.81 180.59 231.31 180.26 232.27V232.29H180.25ZM181.73 346.25C181.39 346.25 181.04 346.15 180.7 345.94C179.82 345.41 179.2 344.31 179.12 343.6C179.07 343 179.08 342.19 179.09 340.86C179.09 339.91 179.1 338.68 179.09 337.09C179.12 325.48 179.1 311.09 179.09 295.86C179.06 272.69 179.03 248.73 179.19 232.19L179.21 232.03L179.25 231.92C179.84 230.19 181.06 229.71 182 229.84C183.31 230.02 184.33 231.24 184.42 232.75V343.25C184.36 344.4 183.55 345.81 182.33 346.14C182.14 346.21 181.94 346.25 181.73 346.25ZM206.37 223.8C204.63 223.71 203.7 224.88 202.41 225.43C200.48 225.48 188.51 225.43 186.01 225.45C183.79 225.23 182.45 228.15 184.55 229.4C184.98 229.67 185.45 229.76 185.92 229.75C187.87 229.8 198 229.66 201.6 229.81C202.02 229.99 202.17 230.53 202.42 230.93C202.69 231.47 203.23 232.18 203.31 232.58C203.43 236.69 203.31 246.08 203.35 248.26C203.32 249.38 204.27 250.61 205.5 250.57C206.8 250.61 207.74 249.29 207.65 248.12V234.89C207.67 233.78 207.48 233.46 208.4 232.97C212.59 231.05 211.57 223.8 206.59 223.81H206.37V223.8Z" fill="url(#ldsStructure)"/>
      <path id="Vector_67" d="M195.67 229.2C198.06 229.2 200.27 229.21 201.62 229.27H201.71L201.8 229.31C202.29 229.51 202.52 229.96 202.7 230.32C202.75 230.43 202.81 230.54 202.87 230.64C202.99 230.87 203.12 231.08 203.25 231.28C203.52 231.71 203.77 232.12 203.83 232.48V232.56C203.91 235.07 203.89 239.54 203.88 243.14C203.88 245.43 203.87 247.4 203.88 248.25C203.87 248.73 204.08 249.23 204.43 249.59C204.73 249.89 205.11 250.05 205.47 250.04C205.99 250.05 206.36 249.79 206.57 249.56C206.93 249.18 207.14 248.64 207.11 248.15V234.41C207.1 233.55 207.14 233.03 208.14 232.48C210.22 231.53 210.74 229.25 210.36 227.53C210.02 225.98 208.85 224.33 206.59 224.33H206.34C205.34 224.27 204.67 224.71 203.89 225.2C203.49 225.45 203.08 225.72 202.61 225.92L202.52 225.96H202.42C201.18 225.99 195.86 225.99 191.58 225.98H186.02C185.01 225.88 184.34 226.53 184.12 227.18C183.89 227.88 184.16 228.54 184.83 228.94C185.14 229.13 185.45 229.22 185.92 229.22C186.64 229.24 188.5 229.22 190.65 229.22C192.25 229.22 194 229.21 195.67 229.21M205.41 251.1C204.8 251.1 204.18 250.83 203.69 250.34C203.12 249.77 202.8 248.99 202.82 248.24C202.8 247.41 202.82 245.43 202.82 243.13C202.83 239.56 202.85 235.14 202.78 232.63C202.73 232.46 202.5 232.09 202.35 231.84C202.2 231.61 202.06 231.37 201.95 231.16C201.89 231.07 201.82 230.93 201.75 230.8C201.65 230.61 201.56 230.41 201.45 230.33C199.14 230.24 194.44 230.26 190.66 230.28C188.41 230.28 186.64 230.3 185.91 230.28H185.88C185.27 230.28 184.74 230.14 184.27 229.85C183.18 229.2 182.72 228.02 183.11 226.85C183.309 226.238 183.711 225.713 184.249 225.362C184.788 225.011 185.43 224.855 186.07 224.92H191.58C195.75 224.92 200.9 224.92 202.29 224.9C202.64 224.74 202.97 224.53 203.31 224.31C204.13 223.79 205.05 223.2 206.38 223.27H206.6C208.98 223.27 210.88 224.86 211.41 227.31C211.88 229.44 211.2 232.27 208.62 233.45C208.17 233.7 208.17 233.71 208.18 234.4V248.11C208.24 248.86 207.93 249.7 207.35 250.3C206.83 250.84 206.15 251.12 205.48 251.1H205.4M291.23 126.01C278.64 125.71 235.4 126.07 232.2 125.88C231.67 125.45 230.84 124.51 229.94 124.16C228.87 123.68 227.53 123.61 226.39 123.9C221.91 125.03 221.5 131.62 225.17 133.73C228.34 135.49 231.9 133.67 232.79 130.58C235.34 129.74 271.81 130.54 285.72 130.27C288.8 130.22 289.96 130.37 291.13 130.21C293.19 129.61 293.36 126.82 291.34 126.04L291.24 126L291.23 126.01Z" fill="url(#ldsStructure)"/>
      <path id="Vector_68" d="M227.79 124.27C227.36 124.27 226.93 124.33 226.52 124.43C224.76 124.87 223.55 126.32 223.28 128.3C223.04 130.03 223.61 132.24 225.43 133.28C226.74 134 228.18 134.1 229.51 133.55C230.172 133.272 230.763 132.849 231.241 132.313C231.719 131.776 232.07 131.14 232.27 130.45L232.35 130.18L232.62 130.09C234.14 129.59 245.35 129.63 262.29 129.74C271.12 129.8 280.25 129.86 285.72 129.75C287.01 129.73 287.96 129.75 288.72 129.75C289.76 129.76 290.4 129.77 291.03 129.69C291.371 129.596 291.673 129.394 291.891 129.115C292.109 128.836 292.231 128.494 292.24 128.14C292.26 127.58 291.99 126.86 291.15 126.54H291.14C284 126.37 267.07 126.41 253.45 126.44C242.36 126.47 233.6 126.49 232.18 126.4H232L231.87 126.28C231.73 126.16 231.57 126.01 231.39 125.84C230.92 125.41 230.34 124.86 229.77 124.65C229.18 124.39 228.5 124.25 227.81 124.25M227.76 134.96C226.76 134.957 225.779 134.695 224.91 134.2C222.95 133.08 221.88 130.64 222.23 128.14C222.56 125.75 224.1 123.93 226.26 123.39C227.55 123.05 229 123.16 230.16 123.67C230.9 123.95 231.57 124.57 232.11 125.07C232.22 125.17 232.32 125.27 232.41 125.35C234.26 125.42 243.18 125.4 253.44 125.37C267.12 125.34 284.15 125.3 291.25 125.47H291.34L291.52 125.54C292.65 125.97 293.34 127.01 293.29 128.18C293.24 129.38 292.45 130.38 291.27 130.72H291.2C290.48 130.84 289.77 130.82 288.7 130.81C287.94 130.81 287 130.79 285.73 130.81C280.25 130.92 271.12 130.86 262.28 130.8C249.76 130.72 235.65 130.62 233.21 131.04C232.938 131.818 232.506 132.53 231.941 133.129C231.376 133.729 230.69 134.203 229.93 134.52C229.23 134.82 228.5 134.96 227.77 134.96M296.26 133.57C296.29 137.75 296.03 147.58 296.37 151.46C296.79 153.09 299.29 153.47 300.14 151.94C300.4 151.51 300.52 151.02 300.5 150.57V133.89C300.47 131.33 296.83 130.9 296.29 133.45L296.27 133.57H296.26Z" fill="url(#ldsStructure)"/>
      <path id="Vector_69" d="M296.89 151.37C297.08 152.01 297.7 152.3 298.19 152.37C298.69 152.43 299.34 152.29 299.67 151.69C299.88 151.35 299.98 150.96 299.97 150.61V133.91C299.96 132.9 299.23 132.37 298.51 132.3C297.86 132.24 297.04 132.53 296.82 133.58V133.64C296.82 134.9 296.8 136.62 296.78 138.59C296.73 143.09 296.68 148.67 296.9 151.38M298.43 153.44C298.31 153.44 298.19 153.44 298.06 153.42C296.97 153.28 296.11 152.57 295.85 151.59V151.5C295.6 148.76 295.66 143.1 295.7 138.56C295.72 136.59 295.74 134.82 295.73 133.57V133.51L295.76 133.34C296.11 131.73 297.48 131.11 298.61 131.22C299.76 131.34 301.01 132.22 301.03 133.88V150.57C301.05 151.11 300.9 151.7 300.59 152.21C300.17 152.98 299.35 153.43 298.42 153.43M288.45 154.5C267.26 154.24 229.48 154.5 206.98 154.41C204.86 154.43 203.97 154.37 203.31 154.43C202.15 154.6 200.9 156.34 201.8 157.57C202.15 158.15 202.93 158.66 203.55 158.67C207.49 158.59 284.62 158.84 288.45 158.58C290.23 158.01 290.73 155.44 288.56 154.53L288.46 154.49L288.45 154.5Z" fill="url(#ldsStructure)"/>
      <path id="Vector_70" d="M210.23 158.13C215.12 158.13 222.25 158.13 230.36 158.15C253.64 158.18 285.45 158.21 288.33 158.06C288.97 157.83 289.41 157.24 289.44 156.57C289.47 155.9 289.07 155.34 288.34 155.04C275.54 154.88 256.9 154.91 238.86 154.94C227.04 154.96 215.86 154.98 206.96 154.94H204.86C204.13 154.94 203.69 154.94 203.34 154.96C202.9 155.02 202.36 155.5 202.13 156.07C202 156.38 201.91 156.84 202.21 157.26C202.5 157.74 203.11 158.14 203.53 158.15C204.14 158.14 206.55 158.13 210.21 158.13M262.5 159.24C252.44 159.24 240.86 159.23 230.36 159.21C216.18 159.19 204.99 159.18 203.55 159.21C202.74 159.2 201.78 158.6 201.33 157.84C200.9 157.25 200.82 156.44 201.15 155.65C201.53 154.74 202.38 154.02 203.22 153.9C203.66 153.86 204.12 153.86 204.88 153.87H206.97C215.88 153.9 227.05 153.88 238.87 153.87C256.95 153.84 275.64 153.81 288.46 153.97H288.55L288.74 154.04C289.9 154.53 290.56 155.49 290.52 156.61C290.491 157.168 290.292 157.705 289.951 158.147C289.61 158.59 289.142 158.919 288.61 159.09L288.48 159.11C287.07 159.2 276.21 159.23 262.5 159.23M305.96 127.25C305.6 135.45 293.56 135.14 293.64 126.94C294.1 119.01 305.66 119.15 305.96 127.06V127.25Z" fill="url(#ldsStructure)"/>
      <path id="Vector_71" d="M295.77 127.01C295.77 129.96 297.87 131.06 299.68 131.12C301.51 131.16 303.67 130.17 303.82 127.2V127.1C303.7 124.24 301.59 123.21 299.82 123.19H299.77C298.02 123.19 295.95 124.19 295.76 127.01M299.8 135.38H299.57C295.52 135.27 291.45 132.33 291.5 126.91V126.81C291.8 121.62 295.88 118.92 299.78 118.92H299.86C303.8 118.96 307.89 121.74 308.09 126.97V127.33C307.85 132.64 303.78 135.37 299.8 135.37M203.76 156.5C203.76 156.5 227.04 131.43 227.07 131.4L203.76 156.5Z" fill="url(#ldsStructure)"/>
      <path id="Vector_72" d="M205.32 157.95L202.19 155.05L213.85 142.49C219.65 136.25 225.45 130 225.5 129.94L228.63 132.84L216.97 145.4C211.17 151.64 205.37 157.89 205.32 157.95ZM246.86 117.67C246.86 117.67 265.8 100 265.82 99.97L246.86 117.67Z" fill="url(#ldsStructure)"/>
      <path id="Vector_73" d="M248.31 119.23L245.39 116.12C245.39 116.12 250.14 111.69 254.88 107.26C259.59 102.87 264.29 98.48 264.36 98.42L267.28 101.53C267.28 101.53 262.53 105.96 257.8 110.38C253.09 114.77 248.38 119.17 248.32 119.23M273.09 93.34C273.09 93.34 292.03 75.67 292.05 75.64L273.09 93.34Z" fill="url(#ldsStructure)"/>
      <path id="Vector_74" d="M274.54 94.9L271.63 91.78C271.71 91.71 290.46 74.21 290.59 74.08L293.51 77.19L274.54 94.9ZM191.87 110.09C191.96 110 253.26 49.32 255.07 47.52L191.87 110.09Z" fill="url(#ldsStructure)"/>
      <path id="Vector_75" d="M193.37 111.6L190.36 108.57C190.45 108.48 251.3 48.24 253.57 45.99L256.57 49.02C254.75 50.82 193.57 111.38 193.37 111.59M211.24 121.53C213.37 119.47 265.3 69.14 267.14 67.35L211.24 121.53Z" fill="url(#ldsStructure)"/>
    </g>
    <g id="linkerhelft_1">
      <path id="Vector_76" d="M118.1 109.51C112.75 109.51 112.81 118.19 118.2 118.04C123.79 118.02 123.53 109.51 118.3 109.51H118.1Z" fill="url(#ldsChaos)"/>
      <path id="Vector_2_2" d="M118.1 110.04C116.46 110.04 115.61 110.93 115.19 111.68C114.47 112.95 114.49 114.71 115.24 115.96C115.68 116.69 116.54 117.56 118.2 117.51C120.68 117.51 121.79 115.65 121.78 113.81C121.78 112 120.69 110.05 118.31 110.05H118.1V110.04ZM118.06 118.58C116.45 118.58 115.12 117.85 114.32 116.51C113.37 114.92 113.34 112.77 114.26 111.15C115.06 109.74 116.42 108.97 118.1 108.97H118.31C121.29 108.97 122.84 111.4 122.85 113.8C122.85 116.09 121.4 118.56 118.21 118.57H118.07M110.75 65.01C105.93 65.06 106.22 72.89 111.1 72.47C115.75 72.19 115.4 65.02 110.95 65.01H110.75Z" fill="url(#ldsChaos)"/>
      <path id="Vector_3_2" d="M110.76 65.54C109.31 65.56 108.58 66.35 108.23 67.02C107.63 68.15 107.69 69.68 108.4 70.74C108.81 71.36 109.6 72.07 111.06 71.94C113.1 71.82 113.96 70.21 113.92 68.68C113.88 67.18 112.93 65.55 110.96 65.55H110.76V65.54ZM110.72 73.02C109.37 73.02 108.23 72.42 107.5 71.32C106.58 69.93 106.49 68 107.28 66.51C107.97 65.21 109.2 64.48 110.74 64.47H110.95C113.51 64.47 114.91 66.57 114.97 68.64C115.03 70.62 113.85 72.83 111.13 73C110.99 73.01 110.85 73.02 110.71 73.02M116.92 17.6C112.1 17.65 112.39 25.48 117.27 25.06C121.92 24.78 121.57 17.61 117.12 17.6H116.92Z" fill="url(#ldsChaos)"/>
      <path id="Vector_4_2" d="M116.92 18.14C115.47 18.16 114.74 18.95 114.39 19.62C113.79 20.75 113.85 22.28 114.56 23.34C114.97 23.96 115.76 24.67 117.22 24.54C119.26 24.42 120.12 22.81 120.08 21.28C120.04 19.78 119.09 18.15 117.12 18.15H116.92V18.14ZM116.88 25.61C115.53 25.61 114.39 25.01 113.66 23.91C112.74 22.52 112.65 20.59 113.44 19.1C114.13 17.8 115.36 17.07 116.9 17.06H117.11C119.67 17.06 121.07 19.16 121.13 21.23C121.19 23.21 120.01 25.42 117.29 25.59C117.15 25.6 117.01 25.61 116.87 25.61M127.58 54.82C122.76 54.87 123.05 62.7 127.93 62.28C132.58 62 132.23 54.83 127.78 54.82H127.58Z" fill="url(#ldsChaos)"/>
      <path id="Vector_5_2" d="M127.59 55.35C126.14 55.37 125.41 56.16 125.06 56.83C124.46 57.96 124.52 59.49 125.23 60.55C125.64 61.17 126.43 61.88 127.89 61.75C129.93 61.63 130.79 60.02 130.75 58.49C130.71 56.99 129.76 55.36 127.79 55.36H127.59V55.35ZM127.55 62.83C126.2 62.83 125.06 62.23 124.33 61.13C123.41 59.74 123.32 57.81 124.11 56.32C124.8 55.02 126.03 54.29 127.57 54.28H127.78C130.34 54.28 131.74 56.38 131.8 58.45C131.86 60.43 130.68 62.64 127.96 62.81C127.82 62.82 127.68 62.83 127.54 62.83M78.99 170.72C74.17 170.77 74.46 178.6 79.34 178.18C83.99 177.9 83.64 170.73 79.19 170.72H78.99Z" fill="url(#ldsChaos)"/>
      <path id="Vector_6_2" d="M79 171.25C77.55 171.27 76.82 172.06 76.47 172.73C75.87 173.86 75.93 175.39 76.64 176.45C77.05 177.07 77.84 177.78 79.3 177.65C81.34 177.53 82.2 175.92 82.16 174.39C82.12 172.89 81.17 171.26 79.2 171.26H79V171.25ZM78.96 178.73C77.61 178.73 76.47 178.13 75.74 177.03C74.82 175.64 74.73 173.71 75.52 172.22C76.21 170.92 77.44 170.19 78.98 170.18H79.19C81.75 170.18 83.15 172.28 83.21 174.35C83.27 176.33 82.09 178.54 79.37 178.71C79.23 178.72 79.09 178.73 78.95 178.73M95.11 151.99C90.29 152.04 90.58 159.87 95.46 159.45C100.11 159.17 99.76 152 95.31 151.99H95.11Z" fill="url(#ldsChaos)"/>
      <path id="Vector_7_2" d="M95.11 152.53C93.66 152.55 92.93 153.34 92.58 154.01C91.98 155.14 92.04 156.67 92.75 157.73C93.16 158.35 93.95 159.06 95.41 158.93C97.45 158.81 98.31 157.2 98.27 155.67C98.23 154.17 97.28 152.54 95.31 152.54H95.11V152.53ZM95.08 160C93.73 160 92.59 159.4 91.86 158.3C90.94 156.91 90.85 154.98 91.64 153.49C92.33 152.19 93.56 151.46 95.1 151.45H95.31C97.87 151.45 99.27 153.55 99.33 155.62C99.39 157.6 98.21 159.81 95.49 159.98C95.35 159.99 95.21 160 95.07 160M59.08 129.24C54.26 129.29 54.55 137.12 59.43 136.7C64.08 136.42 63.73 129.25 59.28 129.24H59.08ZM113.84 222.63C109.02 222.68 109.31 230.51 114.19 230.09C118.84 229.81 118.49 222.64 114.04 222.63H113.84Z" fill="url(#ldsChaos)"/>
      <path id="Vector_8_2" d="M113.84 223.16C112.39 223.17 111.66 223.97 111.31 224.64C110.71 225.77 110.77 227.3 111.48 228.36C111.89 228.98 112.68 229.69 114.14 229.56C116.18 229.44 117.04 227.83 117 226.3C116.96 224.8 116.01 223.17 114.04 223.17H113.84V223.16ZM113.8 230.64C112.45 230.64 111.31 230.04 110.58 228.94C109.66 227.55 109.57 225.62 110.36 224.13C111.05 222.83 112.28 222.1 113.82 222.09H114.03C116.59 222.09 117.99 224.19 118.05 226.26C118.11 228.24 116.93 230.45 114.21 230.62C114.07 230.63 113.93 230.64 113.79 230.64M88.95 224.7C83.6 224.7 83.66 233.38 89.05 233.23C94.64 233.21 94.38 224.7 89.15 224.7H88.95Z" fill="url(#ldsChaos)"/>
      <path id="Vector_9_2" d="M88.94 225.23C87.3 225.23 86.45 226.12 86.03 226.87C85.31 228.14 85.32 229.9 86.08 231.15C86.52 231.88 87.41 232.76 89.04 232.7C91.53 232.7 92.63 230.84 92.62 229C92.62 227.19 91.53 225.23 89.15 225.23H88.94ZM88.91 233.77C87.3 233.77 85.97 233.04 85.17 231.7C84.22 230.11 84.19 227.96 85.11 226.34C85.91 224.93 87.27 224.16 88.95 224.16H89.16C92.14 224.16 93.69 226.59 93.7 228.99C93.7 231.28 92.25 233.75 89.06 233.76H88.92M121.89 271.45C117.07 271.5 117.36 279.33 122.24 278.91C126.89 278.63 126.54 271.46 122.09 271.45H121.89Z" fill="url(#ldsChaos)"/>
      <path id="Vector_10_2" d="M121.9 271.98C120.45 272 119.72 272.79 119.37 273.46C118.77 274.59 118.83 276.12 119.54 277.18C119.95 277.8 120.74 278.51 122.2 278.38C124.24 278.26 125.1 276.65 125.06 275.11C125.02 273.61 124.07 271.98 122.1 271.98H121.9ZM121.86 279.46C120.51 279.46 119.37 278.87 118.64 277.76C117.72 276.37 117.63 274.44 118.42 272.95C119.11 271.65 120.34 270.92 121.88 270.91H122.09C124.65 270.91 126.05 273.01 126.11 275.08C126.17 277.06 124.99 279.28 122.27 279.44C122.13 279.45 121.99 279.46 121.85 279.46M96.77 287.75C91.42 287.75 91.48 296.43 96.87 296.28C102.46 296.26 102.2 287.75 96.97 287.75H96.77Z" fill="url(#ldsChaos)"/>
      <path id="Vector_11_2" d="M96.77 288.28C95.13 288.28 94.28 289.17 93.86 289.92C93.14 291.19 93.16 292.95 93.91 294.2C94.35 294.93 95.21 295.79 96.87 295.75C99.35 295.75 100.46 293.89 100.45 292.05C100.45 290.24 99.36 288.29 96.98 288.29H96.77V288.28ZM96.73 296.82C95.12 296.82 93.79 296.09 92.99 294.75C92.04 293.16 92.01 291.01 92.93 289.39C93.73 287.98 95.09 287.21 96.77 287.21H96.98C99.96 287.21 101.51 289.64 101.52 292.04C101.52 294.33 100.07 296.8 96.88 296.81H96.74M129.24 306.95C123.89 306.95 123.95 315.63 129.34 315.48C134.93 315.46 134.67 306.95 129.44 306.95H129.24Z" fill="url(#ldsChaos)"/>
      <path id="Vector_12_2" d="M129.24 307.48C127.6 307.48 126.75 308.37 126.33 309.12C125.61 310.39 125.63 312.15 126.38 313.4C126.82 314.13 127.67 314.99 129.34 314.95C131.83 314.95 132.93 313.09 132.92 311.25C132.92 309.44 131.83 307.49 129.45 307.49H129.24V307.48ZM129.2 316.01C127.59 316.01 126.26 315.28 125.46 313.94C124.51 312.35 124.48 310.2 125.4 308.58C126.2 307.17 127.56 306.4 129.24 306.4H129.45C132.43 306.4 133.98 308.83 133.99 311.23C133.99 313.52 132.54 315.99 129.35 316H129.21M82.07 265.76C77.25 265.81 77.54 273.64 82.42 273.22C87.07 272.94 86.72 265.77 82.27 265.76H82.07Z" fill="url(#ldsChaos)"/>
      <path id="Vector_13_2" d="M82.08 266.3C80.63 266.32 79.9 267.11 79.55 267.78C78.95 268.91 79.01 270.44 79.72 271.5C80.13 272.12 80.92 272.83 82.38 272.7C84.42 272.58 85.28 270.97 85.24 269.43C85.2 267.93 84.25 266.3 82.28 266.3H82.08ZM82.04 273.77C80.69 273.77 79.55 273.18 78.82 272.07C77.9 270.68 77.81 268.75 78.6 267.26C79.29 265.96 80.52 265.23 82.06 265.22H82.27C84.83 265.22 86.23 267.32 86.29 269.39C86.35 271.37 85.17 273.58 82.45 273.75C82.31 273.76 82.17 273.77 82.03 273.77M65.01 241.11C60.19 241.16 60.48 248.99 65.36 248.57C70.01 248.29 69.66 241.12 65.21 241.11H65.01ZM43.91 175.7C39.09 175.75 39.38 183.58 44.26 183.16C48.91 182.88 48.56 175.71 44.11 175.7H43.91Z" fill="url(#ldsChaos)"/>
      <path id="Vector_14_2" d="M43.92 176.23C42.47 176.25 41.74 177.04 41.39 177.71C40.79 178.84 40.85 180.37 41.56 181.43C41.97 182.05 42.76 182.76 44.22 182.63C46.26 182.51 47.12 180.9 47.08 179.37C47.04 177.87 46.09 176.24 44.12 176.24H43.92V176.23ZM43.88 183.71C42.53 183.71 41.39 183.11 40.66 182.01C39.74 180.62 39.65 178.69 40.44 177.2C41.13 175.9 42.36 175.17 43.9 175.16H44.11C46.67 175.16 48.07 177.26 48.13 179.33C48.19 181.31 47.01 183.52 44.29 183.69C44.15 183.7 44.01 183.71 43.87 183.71M32.77 149.62C27.95 149.67 28.24 157.5 33.12 157.08C37.77 156.8 37.42 149.63 32.97 149.62H32.77Z" fill="url(#ldsChaos)"/>
      <path id="Vector_15_2" d="M32.78 150.16C31.33 150.18 30.6 150.97 30.25 151.64C29.65 152.77 29.71 154.3 30.42 155.36C30.83 155.98 31.62 156.69 33.08 156.56C35.12 156.44 35.98 154.83 35.94 153.3C35.9 151.8 34.95 150.17 32.98 150.17H32.78V150.16ZM32.74 157.63C31.39 157.63 30.25 157.03 29.52 155.93C28.6 154.54 28.51 152.61 29.3 151.12C29.99 149.82 31.22 149.09 32.76 149.08H32.97C35.53 149.08 36.93 151.18 36.99 153.25C37.05 155.23 35.87 157.44 33.15 157.61C33.01 157.62 32.87 157.63 32.73 157.63M88.47 103.17C83.65 103.22 83.94 111.05 88.82 110.63C93.47 110.35 93.12 103.18 88.67 103.17H88.47Z" fill="url(#ldsChaos)"/>
      <path id="Vector_16_2" d="M88.48 103.7C87.03 103.72 86.3 104.51 85.95 105.18C85.35 106.31 85.41 107.84 86.12 108.9C86.53 109.52 87.32 110.23 88.78 110.1C90.82 109.98 91.68 108.37 91.64 106.84C91.6 105.34 90.65 103.71 88.68 103.71H88.48V103.7ZM88.44 111.18C87.09 111.18 85.95 110.58 85.22 109.48C84.3 108.09 84.21 106.16 85 104.67C85.69 103.37 86.92 102.64 88.46 102.63H88.67C91.23 102.63 92.63 104.73 92.69 106.8C92.75 108.78 91.57 110.99 88.85 111.16C88.71 111.17 88.57 111.18 88.43 111.18M81.45 271.14C63.66 269.02 63 248.16 62.98 247.27L65.05 247.22L67.24 247.02V247.18C67.26 247.91 67.8 265.22 81.96 266.91L81.46 271.14H81.45ZM93.93 291.59C92.26 287.23 91.87 278.49 92.62 273.6C92.94 271.04 93.41 268.63 94.06 266.31C96.93 254.96 113.68 245.67 123.1 240.54C118.12 238.38 114.38 233.83 112.81 227.85L116.94 226.77C117.49 228.87 119.85 235.83 127.17 237.38C127.746 237.498 128.271 237.791 128.674 238.219C129.076 238.646 129.337 239.188 129.42 239.77C129.51 240.352 129.42 240.949 129.16 241.478C128.901 242.007 128.486 242.444 127.97 242.73C127.3 243.1 126.53 243.52 125.66 243.99C117.55 248.4 100.65 257.59 98.17 267.4C97.57 269.56 97.14 271.77 96.83 274.19C96.1 278.92 96.64 286.75 97.9 290.06L93.91 291.58L93.93 291.59ZM128.71 269.32L126.13 265.92C126.34 265.76 147.58 250.3 159.7 265.81L156.34 268.44C146.82 256.25 129.45 268.78 128.71 269.32ZM131.55 309.91L127.61 308.26C132.43 296.74 143.71 291.35 158.56 293.46L157.96 297.69C150.45 296.62 137.04 296.78 131.55 309.91ZM69.45 215.45C62.05 215.45 54.34 213.43 48.34 208.83L48.26 208.77C40.51 202.23 39.78 189.49 41.68 179.74L45.86 180.55C44.28 188.7 44.67 200.11 50.97 205.47C62.8 214.51 80.72 211.51 87.4 205.55L87.52 205.44C91.42 202.47 96.3 197.4 98.63 193.89L102.18 196.25C99.6 200.14 94.44 205.51 90.17 208.78C85.44 212.96 77.62 215.44 69.43 215.44" fill="url(#ldsChaos)"/>
      <path id="Vector_17_2" d="M100.33 191.87C96.63 191.84 96.26 197.77 99.93 198.24C104.26 198.93 104.88 192.03 100.52 191.87H100.33Z" fill="url(#ldsChaos)"/>
      <path id="Vector_18_2" d="M100.31 192.41C98.76 192.41 97.98 193.66 97.9 194.9C97.82 196.16 98.44 197.52 100 197.71C101.29 197.92 102.02 197.35 102.39 196.84C103.03 195.99 103.15 194.71 102.68 193.75C102.4 193.16 101.79 192.45 100.5 192.41H100.31ZM100.53 198.82C100.31 198.82 100.08 198.8 99.85 198.76C97.63 198.48 96.73 196.52 96.84 194.82C96.95 193.14 98.09 191.34 100.31 191.34H100.53C101.95 191.39 103.09 192.1 103.65 193.29C104.29 194.62 104.13 196.3 103.25 197.48C102.59 198.36 101.64 198.83 100.53 198.83M87.23 228.9C84.82 224.95 86.44 208.03 86.45 207.87L90.69 208.36L88.57 208.11L90.69 208.3C90.04 215.75 89.95 225.12 90.86 226.67L87.22 228.89L87.23 228.9ZM129.49 236.97C126.35 236.94 126.16 242.13 129.33 242.29C133.02 242.56 133.03 237.02 129.68 236.97H129.49Z" fill="url(#ldsChaos)"/>
      <path id="Vector_19_2" d="M129.46 237.5C128.2 237.5 127.6 238.54 127.57 239.58C127.54 240.62 128.08 241.69 129.36 241.76C130.43 241.84 130.97 241.35 131.25 240.93C131.7 240.24 131.73 239.24 131.33 238.49C131.09 238.04 130.61 237.51 129.66 237.49H129.46V237.5ZM129.59 242.83H129.29C127.4 242.73 126.46 241.11 126.5 239.56C126.55 238.01 127.58 236.44 129.46 236.44H129.67C130.81 236.46 131.76 237.03 132.27 238C132.85 239.09 132.8 240.51 132.14 241.52C131.58 242.38 130.68 242.84 129.58 242.84M92.14 157.98C78.58 153.27 69.02 141.13 68.89 128.46C68.78 117.62 75.34 108.95 86.89 104.67L88.37 108.67C78.61 112.29 73.07 119.49 73.16 128.42C73.28 139.33 81.66 149.82 93.54 153.95L92.14 157.98Z" fill="url(#ldsChaos)"/>
      <path id="Vector_20_2" d="M76.57 173.86C76.3 172.92 70.15 150.76 87.6 141.75L89.56 145.54C75.22 152.95 80.44 171.88 80.68 172.68L76.58 173.86H76.57Z" fill="url(#ldsChaos)"/>
      <path id="Vector_21_2" d="M88.26 141.75C85.9 141.71 85.54 145.53 87.85 145.97C90.87 146.63 91.32 141.84 88.41 141.75H88.26Z" fill="url(#ldsChaos)"/>
      <path id="Vector_22_2" d="M88.23 142.28C87.38 142.28 86.92 143 86.85 143.71C86.77 144.45 87.09 145.27 87.97 145.44C88.62 145.58 89.13 145.43 89.47 145C89.88 144.5 89.97 143.69 89.69 143.08C89.53 142.72 89.17 142.3 88.4 142.28H88.23ZM88.4 146.56C88.19 146.56 87.97 146.54 87.75 146.49C86.23 146.2 85.66 144.8 85.78 143.61C85.9 142.44 86.74 141.17 88.27 141.22H88.41C89.44 141.25 90.25 141.77 90.65 142.64C91.1 143.61 90.95 144.86 90.29 145.68C89.82 146.26 89.16 146.57 88.39 146.57" fill="url(#ldsChaos)"/>
      <path id="Vector_23_2" d="M125.4 346.22C120.22 346.22 114.8 345.46 109.59 343.9C98.96 340.73 91.06 334.74 87.91 327.47L87.7 326.99L87.74 326.47C87.94 323.84 89.92 321.84 93.19 320.96C98.15 319.41 104.53 315.67 107.15 311.5L110.76 313.77C106.94 319.85 98.68 323.73 94.41 325.05L94.32 325.08C93.6 325.27 92.47 325.67 92.1 326.39C94.93 332.23 101.7 337.09 110.81 339.81C122.72 343.37 135.7 342.48 143.12 337.6C151.82 332.15 156.94 322.02 156.83 310.48C155.91 270 155.99 228.84 156.07 189.04C156.12 165.85 156.16 141.88 156.01 118.25C156.08 103.76 155.85 86.46 155.62 69.72C155.41 53.9 155.2 38.95 155.24 26.22C153.76 17.09 148.32 9.90999 140.28 6.49999C131.09 2.60999 120.1 4.15999 110.9 10.65C99.86 18.35 92.77 37.08 95.73 50.76C97 56.64 100.69 64.05 110.99 65.94L110.22 70.13C100.38 68.32 93.75 61.76 91.56 51.66C88.22 36.24 95.96 15.86 108.45 7.16C118.85 -0.180001 131.38 -1.90001 141.94 2.57999C151.42 6.58999 157.81 15.03 159.47 25.73L159.5 25.9V26.07C159.46 38.8 159.66 53.79 159.88 69.67C160.11 86.42 160.34 103.76 160.26 118.26C160.41 141.88 160.37 165.87 160.32 189.06C160.24 228.83 160.16 269.97 161.08 310.42C161.2 323.48 155.34 334.98 145.4 341.2C140.37 344.51 133.16 346.22 125.38 346.22" fill="url(#ldsChaos)"/>
      <path id="Vector_24_2" d="M109.34 308.72C105.64 308.69 105.27 314.62 108.94 315.09C113.27 315.78 113.89 308.88 109.53 308.72H109.34Z" fill="url(#ldsChaos)"/>
      <path id="Vector_25_2" d="M109.31 309.26C107.76 309.26 106.98 310.51 106.9 311.75C106.82 313.01 107.44 314.37 109 314.56C110.29 314.76 111.02 314.2 111.39 313.69C112.03 312.84 112.15 311.56 111.68 310.59C111.4 310.01 110.79 309.3 109.5 309.25H109.31V309.26ZM109.53 315.67C109.31 315.67 109.08 315.65 108.85 315.61C106.63 315.33 105.73 313.37 105.84 311.67C105.95 309.99 107.08 308.19 109.31 308.19H109.53C110.95 308.24 112.09 308.95 112.65 310.13C113.29 311.46 113.13 313.15 112.25 314.32C111.59 315.2 110.64 315.67 109.53 315.67ZM76.94 85.54C72.42 84.63 66.22 82.66 62.31 78.43L62.19 78.29C56.8 71.37 50.78 55.28 62.36 38.88C75.93 20.46 103.02 14.95 116.56 18.17L115.57 22.33C104.66 19.74 78.71 23.88 65.83 41.38C55.76 55.64 60.87 69.55 65.52 75.58C68.82 79.1 74.62 80.7 77.79 81.33L76.95 85.53L76.94 85.54Z" fill="url(#ldsChaos)"/>
      <path id="Vector_26_2" d="M78.52 79.94C73.7 79.99 73.99 87.82 78.87 87.4C83.52 87.12 83.17 79.95 78.72 79.94H78.52Z" fill="url(#ldsChaos)"/>
      <path id="Vector_27_2" d="M78.52 80.47C77.07 80.49 76.34 81.28 75.99 81.95C75.39 83.08 75.45 84.61 76.16 85.67C76.57 86.29 77.36 87 78.82 86.87C80.86 86.75 81.72 85.14 81.68 83.61C81.64 82.11 80.69 80.48 78.72 80.48H78.52V80.47ZM78.49 87.95C77.14 87.95 76 87.35 75.27 86.25C74.35 84.86 74.26 82.93 75.05 81.44C75.74 80.14 76.97 79.41 78.51 79.4H78.72C81.28 79.4 82.68 81.5 82.74 83.57C82.8 85.55 81.62 87.76 78.9 87.93C78.76 87.94 78.62 87.95 78.48 87.95M34.44 99.17C30.99 75.33 46.75 62.44 57.49 59.91L58.52 64.3C49.34 66.46 35.89 77.66 38.9 98.52L34.43 99.17H34.44Z" fill="url(#ldsChaos)"/>
      <path id="Vector_28_2" d="M22.62 141.44C17.59 132.62 15.35 119.21 20.83 110.64C25.98 102.46 35.88 94.65 46.36 95.65L45.93 100.14C37.36 99.32 29.06 106.03 24.64 113.05C20.17 120.05 22.28 131.75 26.54 139.2L22.62 141.44Z" fill="url(#ldsChaos)"/>
      <path id="Vector_29_2" d="M46.53 94.93C42.83 94.9 42.46 100.83 46.13 101.3C50.46 101.99 51.08 95.09 46.72 94.93H46.53Z" fill="url(#ldsChaos)"/>
      <path id="Vector_30_2" d="M46.5 95.46C44.95 95.46 44.17 96.71 44.09 97.95C44.01 99.21 44.63 100.57 46.19 100.76C47.48 100.97 48.21 100.4 48.58 99.89C49.22 99.04 49.34 97.76 48.87 96.79C48.59 96.21 47.98 95.5 46.69 95.45H46.49L46.5 95.46ZM46.72 101.88C46.5 101.88 46.27 101.86 46.04 101.82C43.82 101.54 42.92 99.58 43.03 97.88C43.14 96.2 44.28 94.4 46.5 94.4H46.72C48.14 94.45 49.28 95.16 49.84 96.34C50.48 97.67 50.32 99.36 49.44 100.53C48.78 101.41 47.83 101.88 46.72 101.88ZM10.44 186.08C3.28001 178.19 3.82001 162.9 8.78001 154.12C14.11 145.12 24.21 140.09 32.41 136.71L33.21 136.4C35.79 135.38 39 134.12 41.82 134.72L42.48 134.86L42.94 135.35C43.4 135.84 43.62 136.49 43.55 137.15C43.43 138.31 42.53 138.94 42 139.32C41.95 139.36 41.9 139.39 41.86 139.42L41.77 139.49C39.8 140.9 36.93 144.29 34.34 152.44C34.28 152.62 34.24 152.76 34.21 152.86L30.16 151.51L30.28 151.15C31.72 146.59 33.43 142.91 35.35 140.15C35.16 140.23 34.98 140.3 34.79 140.37L34.01 140.68C26.46 143.78 17.15 148.38 12.49 156.26C8.28 163.72 7.85001 176.87 13.62 183.22L10.46 186.08H10.44Z" fill="url(#ldsChaos)"/>
      <path id="Vector_31_2" d="M42.03 134.28C38.33 134.25 37.96 140.18 41.63 140.65C45.96 141.34 46.58 134.44 42.22 134.28H42.03Z" fill="url(#ldsChaos)"/>
      <path id="Vector_32_2" d="M42 134.81C40.45 134.81 39.67 136.06 39.59 137.3C39.51 138.56 40.13 139.92 41.69 140.11C42.98 140.31 43.71 139.75 44.08 139.24C44.72 138.39 44.84 137.11 44.37 136.15C44.09 135.56 43.48 134.85 42.19 134.81H42ZM42.22 141.23C42 141.23 41.77 141.21 41.54 141.17C39.32 140.89 38.42 138.93 38.53 137.23C38.64 135.55 39.78 133.75 42 133.75H42.22C43.64 133.8 44.78 134.51 45.34 135.7C45.98 137.03 45.82 138.71 44.94 139.89C44.28 140.77 43.33 141.24 42.22 141.24M25.13 246.91C21.73 244.84 13.24 239.33 7.75 232.78C0.350001 224.44 -1.39 205.47 4.03 192.18C7.32 183.93 17.22 177.44 24.89 175.93L25.71 180.11C19.28 181.38 10.63 187.17 7.98999 193.77C2.72999 206.68 5.21999 223.52 10.96 229.97L11 230.02C16.09 236.09 24.13 241.31 27.35 243.27L25.13 246.91Z" fill="url(#ldsChaos)"/>
      <path id="Vector_33_2" d="M25.43 174.57C21.73 174.54 21.36 180.47 25.03 180.94C29.36 181.63 29.98 174.73 25.62 174.57H25.43Z" fill="url(#ldsChaos)"/>
      <path id="Vector_34_2" d="M25.41 175.1C23.86 175.1 23.08 176.35 23 177.59C22.92 178.85 23.54 180.21 25.1 180.4C26.39 180.61 27.12 180.04 27.49 179.53C28.13 178.68 28.25 177.4 27.78 176.44C27.5 175.85 26.89 175.14 25.6 175.1H25.41ZM25.63 181.52C25.41 181.52 25.18 181.5 24.95 181.46C22.73 181.18 21.83 179.22 21.94 177.52C22.05 175.84 23.19 174.04 25.41 174.04H25.63C27.05 174.09 28.19 174.8 28.75 175.98C29.39 177.31 29.23 179 28.35 180.17C27.69 181.05 26.74 181.52 25.63 181.52ZM49.14 284.17C41.65 284.17 34.81 280.29 31.33 276.3C24.39 269.58 21.42 260.51 23.18 251.41C25.02 241.92 31.63 234.24 41.32 230.32L42.92 234.27C34.59 237.63 28.92 244.17 27.37 252.22C25.88 259.91 28.43 267.59 34.36 273.29L34.5 273.43C37.52 276.94 47.32 282.97 56.79 278.04L58.76 281.83C55.7944 283.379 52.4959 284.182 49.15 284.17" fill="url(#ldsChaos)"/>
      <path id="Vector_35_2" d="M42.74 228.85C39.04 228.82 38.67 234.75 42.34 235.22C46.67 235.91 47.29 229.01 42.93 228.85H42.74Z" fill="url(#ldsChaos)"/>
      <path id="Vector_36_2" d="M42.71 229.38C41.16 229.38 40.38 230.63 40.3 231.87C40.22 233.13 40.84 234.49 42.4 234.69C43.69 234.9 44.42 234.33 44.79 233.82C45.43 232.97 45.55 231.69 45.08 230.73C44.8 230.14 44.19 229.43 42.9 229.39H42.71V229.38ZM42.93 235.8C42.71 235.8 42.48 235.78 42.25 235.74C40.03 235.46 39.13 233.5 39.24 231.8C39.35 230.12 40.49 228.32 42.71 228.32H42.93C44.35 228.37 45.49 229.08 46.05 230.27C46.69 231.6 46.53 233.28 45.65 234.46C44.99 235.34 44.04 235.81 42.93 235.81M59.09 276.02C55.39 275.99 55.02 281.92 58.69 282.39C63.02 283.08 63.64 276.18 59.28 276.02H59.09ZM87.88 325.9C82.97 325.9 77.92 324.58 73.38 323.16C55.89 318.13 48.96 298.51 49.95 282.41L54.21 282.67C53.32 297.12 59.33 314.68 74.61 319.07C80.49 320.91 87.21 322.57 92.74 321.01L93.89 325.12C91.94 325.66 89.92 325.9 87.88 325.9ZM127.61 265.23C125.25 265.19 124.89 269.01 127.2 269.45C130.22 270.11 130.67 265.32 127.76 265.23H127.61Z" fill="url(#ldsChaos)"/>
      <path id="Vector_37_2" d="M127.57 265.76C126.72 265.76 126.26 266.48 126.19 267.19C126.11 267.93 126.43 268.75 127.31 268.92C127.96 269.06 128.47 268.91 128.81 268.48C129.22 267.97 129.31 267.17 129.03 266.56C128.86 266.2 128.51 265.78 127.74 265.76H127.57ZM127.74 270.04C127.53 270.04 127.31 270.02 127.09 269.97C125.57 269.68 125 268.28 125.12 267.09C125.24 265.93 126.05 264.7 127.56 264.7H127.75C128.78 264.73 129.59 265.25 129.99 266.12C130.44 267.09 130.29 268.34 129.63 269.16C129.16 269.74 128.5 270.05 127.73 270.05M120.37 111.43L116.04 111.38C116.1 105.02 119.99 96.75 124.91 92.49C136.02 81.18 155.07 88.02 158.36 89.83L156.27 93.63C153.6 92.15 137.02 86.25 127.95 95.58L127.81 95.71C123.84 99.11 120.43 106.31 120.38 111.42M135.19 167.37H134.62L134.14 167.12C129.25 164.52 126.6 158.63 125.74 153.99C124.57 147.02 126.76 140.14 131.92 134.58C138.11 127.9 147.78 124.1 156.54 124.9L156.15 129.21C148.67 128.53 140.41 131.79 135.1 137.52C130.87 142.07 129.07 147.66 130.01 153.23C130.62 156.53 132.48 161.01 135.73 163.03C137.61 163.03 142.44 162.96 147.12 162.91C150.71 162.87 154.18 162.83 156.09 162.81L156.13 167.14C154.22 167.16 150.76 167.2 147.17 167.24C141.91 167.3 136.48 167.37 135.18 167.37" fill="url(#ldsChaos)"/>
      <path id="Vector_38_2" d="M156.77 218.43C150.73 210.5 145.92 209.06 139.25 207.08C136.84 206.36 134.1 205.54 131.07 204.34C121.26 200.64 116.79 193.19 118.16 182.8C118.71 174.09 126.65 166 134.03 163.19L135.57 167.24C129.56 169.52 122.87 176.45 122.48 183.13V183.29C121.32 191.84 124.55 197.24 132.64 200.3C135.53 201.45 138.06 202.2 140.5 202.92C147.39 204.97 153.34 206.74 160.23 215.8L156.78 218.42L156.77 218.43Z" fill="url(#ldsChaos)"/>
    </g>
  </g>
</svg>
